#VRML V2.0 utf8
# 3D model generated by easyeda2kicad.py (https://github.com/uPesy/easyeda2kicad.py)

Shape{
    appearance Appearance {
        material  Material 	{
            diffuseColor 1.0 1.0 1.0
            specularColor 0.8784313725490196 0.8784313725490196 0.8784313725490196
            ambientIntensity 1.0
            transparency 0.0
            shininess 0.5
        }
    }
    geometry IndexedFaceSet {
        ccw TRUE
        solid FALSE
        coord DEF co Coordinate {
            point [
                0.1122 0.3148 0.0, -0.0846 0.3916 0.0, -0.0858 0.5005 0.0, -0.463 1.7195 0.0, -0.3492 1.7425 0.0, -0.3492 1.2845 0.0, -0.23 1.7665 0.0, -0.0858 1.7761 0.0, -0.0858 1.2845 0.0, 0.0071 1.7823 0.0, 0.1134 1.7752 0.0, 0.1134 1.2845 0.0, 0.2442 1.7665 0.0, 0.3701 1.7411 0.0, 0.3701 1.2845 0.0, -0.0744 -0.1414 0.0, -0.0858 -0.1222 0.0, -0.0528 -0.1414 0.0, 0.1134 -0.1222 0.0, 0.1134 -0.1703 0.0, 0.113 -0.1641 0.0, 0.1068 -0.1414 0.0, 0.0804 -0.1414 0.0, 0.0899 -0.1635 0.0, -0.0548 -0.1449 0.0, 0.093 -0.1875 0.0, 0.0908 -0.2068 0.0, 0.0855 -0.2216 0.0, 0.0764 -0.2352 0.0, 0.0633 -0.2471 0.0, 0.0117 -0.2614 0.0, -0.0096 -0.2594 0.0, -0.0265 -0.2541 0.0, -0.0634 -0.2103 0.0, -0.0654 -0.1919 0.0, -0.0581 -0.2246 0.0, -0.0499 -0.2367 0.0, -0.0402 -0.2459 0.0, -0.0625 -0.1658 0.0, 0.0481 -0.2552 0.0, 0.027 -0.2605 0.0, 0.1146 -0.1877 0.0, 0.3701 -0.1222 0.0, 0.1134 -0.2024 0.0, 0.3701 -0.2962 0.0, 0.0604 -0.2774 0.0, 0.0788 -0.2659 0.0, 0.1134 -0.2962 0.0, -0.0845 -0.2198 0.0, -0.0779 -0.2389 0.0, -0.0858 -0.2962 0.0, -0.0678 -0.2547 0.0, -0.0523 -0.2695 0.0, -0.0335 -0.28 0.0, 0.0959 -0.2481 0.0, 0.1066 -0.2294 0.0, 0.113 -0.2075 0.0, -0.0127 -0.2859 0.0, 0.0101 -0.2878 0.0, 0.0381 -0.285 0.0, -0.083 -0.1623 0.0, -0.0858 -0.1822 0.0, -0.3492 -0.1222 0.0, -0.0869 -0.1901 0.0, -0.087 -0.1955 0.0, -0.0858 -0.2071 0.0, 0.6516 -0.6535 0.0, 0.6375 -0.6719 0.0, 0.3701 -0.6522 0.0, 0.6286 -0.6932 0.0, 0.6256 -0.7162 0.0, 0.6286 -0.7391 0.0, 0.6375 -0.7605 0.0, 0.6516 -0.7788 0.0, 0.3701 -1.7615 0.0, 0.6699 -0.7929 0.0, 0.3994 -1.7569 0.0, 0.6913 -0.8017 0.0, 0.6273 -1.6896 0.0, 0.7142 -0.8047 0.0, 0.8443 -1.5927 0.0, 0.7371 -0.8017 0.0, 1.0466 -1.4679 0.0, 0.7585 -0.7929 0.0, 1.2306 -1.3175 0.0, 0.7768 -0.7788 0.0, 1.393 -1.144 0.0, 0.7909 -0.7605 0.0, 1.531 -0.9506 0.0, 0.7998 -0.7391 0.0, 1.6423 -0.7406 0.0, 0.8028 -0.7162 0.0, 1.675 -0.6522 0.0, 0.7998 -0.6932 0.0, 0.7909 -0.6719 0.0, 0.7768 -0.6535 0.0, 0.7751 -0.6522 0.0, 1.7247 -0.5177 0.0, 0.7585 -0.6394 0.0, 1.725 -0.5165 0.0, 0.7371 -0.6306 0.0, 0.7142 -0.6276 0.0, 0.6913 -0.6306 0.0, 0.3701 -0.5165 0.0, 0.6699 -0.6394 0.0, 0.6533 -0.6522 0.0, -0.7767 0.6538 0.0, -0.764 0.6372 0.0, -0.764 0.5005 0.0, -0.7627 0.6354 0.0, -0.7443 0.6213 0.0, -0.7229 0.6125 0.0, -0.7 0.6095 0.0, -0.6771 0.7836 0.0, -0.7 0.7866 0.0, -0.764 1.2845 0.0, -0.7229 0.7836 0.0, -0.7443 0.7748 0.0, -0.7627 0.7607 0.0, -0.764 0.7589 0.0, -0.6233 0.7423 0.0, -0.6374 0.7607 0.0, -0.6557 0.7748 0.0, -0.6771 0.6125 0.0, -0.6557 0.6213 0.0, -0.3492 0.5005 0.0, -0.6374 0.6354 0.0, -0.6233 0.6538 0.0, -0.6145 0.6751 0.0, -0.6114 0.6981 0.0, -0.6145 0.721 0.0, 0.1646 -1.7935 0.0, 0.1134 -0.6522 0.0, 1.7746 -0.2962 0.0, 1.7769 -0.2858 0.0, 1.7915 -0.1222 0.0, 1.798 -0.0491 0.0, 0.3701 0.0219 0.0, 1.7949 0.0219 0.0, 1.7875 0.1883 0.0, 0.3701 0.2067 0.0, 1.7842 0.2067 0.0, 0.6699 0.6213 0.0, 0.6913 0.6125 0.0, 0.3701 0.5005 0.0, 0.7142 0.6095 0.0, 0.7371 0.6125 0.0, 0.7585 0.6213 0.0, 1.7207 0.5005 0.0, 0.7768 0.6354 0.0, 0.7371 0.7836 0.0, 0.7142 0.7866 0.0, 0.6516 0.7607 0.0, 0.6375 0.7423 0.0, 0.6286 0.721 0.0, 0.6256 0.6981 0.0, 0.6286 0.6751 0.0, 1.7457 0.4222 0.0, 0.6375 0.6538 0.0, 0.6516 0.6354 0.0, 0.6913 0.7836 0.0, 0.6699 0.7748 0.0, 0.7585 0.7748 0.0, 1.2419 1.2845 0.0, 0.7768 0.7607 0.0, 1.2878 1.2434 0.0, 0.7909 0.7423 0.0, 1.4424 1.0628 0.0, 0.7998 0.721 0.0, 1.5716 0.8634 0.0, 0.8028 0.6981 0.0, 1.6733 0.6486 0.0, 0.7998 0.6751 0.0, 0.7909 0.6538 0.0, 0.4772 1.7195 0.0, 0.7018 1.6421 0.0, 0.9143 1.5356 0.0, 1.1108 1.4019 0.0, -0.6877 1.6421 0.0, -1.0966 1.4019 0.0, -0.9001 1.5356 0.0, -0.764 1.6038 0.0, -0.7856 0.6751 0.0, -1.7065 0.5005 0.0, -0.7886 0.6981 0.0, -1.6592 0.6486 0.0, -0.7856 0.721 0.0, -1.5574 0.8634 0.0, -0.7767 0.7423 0.0, -1.4282 1.0628 0.0, -1.2737 1.2434 0.0, -1.2278 1.2845 0.0, -1.7316 0.4222 0.0, -0.764 0.2067 0.0, -1.7838 -0.0491 0.0, -1.7807 0.0219 0.0, -0.764 0.0219 0.0, -1.7733 0.1883 0.0, -1.7701 0.2067 0.0, -0.764 -0.1222 0.0, -1.7773 -0.1222 0.0, -0.764 -0.5165 0.0, -1.7105 -0.5177 0.0, -1.7604 -0.2962 0.0, -1.6281 -0.7406 0.0, -1.6608 -0.6522 0.0, -0.764 -0.6522 0.0, -0.764 -1.6222 0.0, -0.8301 -1.5927 0.0, -1.0324 -1.4679 0.0, -1.2164 -1.3175 0.0, -1.3788 -1.144 0.0, -1.5169 -0.9506 0.0, -0.7279 -0.744 0.0, -0.7197 -0.7503 0.0, -0.7102 -0.6781 0.0, -0.7197 -0.6821 0.0, -0.738 -0.706 0.0, -0.7394 -0.7162 0.0, -0.738 -0.7263 0.0, -0.7341 -0.7358 0.0, -0.6659 -0.7358 0.0, -0.662 -0.7263 0.0, -0.3492 -0.6522 0.0, -0.6606 -0.7162 0.0, -0.662 -0.706 0.0, -0.6659 -0.6965 0.0, -0.6722 -0.6883 0.0, -0.7102 -0.7542 0.0, -0.7 -0.7555 0.0, -0.6131 -1.6896 0.0, -0.6898 -0.7542 0.0, -0.3852 -1.7569 0.0, -0.3492 -1.7625 0.0, -0.6803 -0.7503 0.0, -0.6722 -0.744 0.0, -0.7279 -0.6883 0.0, -0.7341 -0.6965 0.0, -0.6803 -0.6821 0.0, -0.6898 -0.6781 0.0, -0.7 -0.6768 0.0, -0.0858 -2.0957 0.0, -0.1504 -2.0957 0.0, -0.1504 -1.7935 0.0, -0.3492 -0.2962 0.0, -0.764 -0.2962 0.0, -1.7627 -0.2858 0.0, -0.3492 0.2067 0.0, -0.3492 0.0219 0.0, -0.0858 0.2067 0.0, -0.0858 0.0219 0.0, -0.0858 -0.6522 0.0, 0.1134 -2.0957 0.0, 0.1646 -2.0957 0.0, -0.3492 -0.5165 0.0, -0.0858 -0.5165 0.0, 0.1134 -0.5165 0.0, 0.1122 -0.379 0.0, 0.1122 -0.4054 0.0, -0.0846 -0.4054 0.0, -0.063 -0.379 0.0, -0.063 -0.3046 0.0, -0.0846 -0.3046 0.0, 0.1122 -0.0021 0.0, 0.1134 0.0219 0.0, -0.0846 -0.103 0.0, 0.1122 -0.103 0.0, 0.0906 -0.0021 0.0, -0.063 0.0027 0.0, -0.0846 0.0027 0.0, 0.0042 -0.0765 0.0, -0.063 -0.0765 0.0, 0.0042 -0.0069 0.0, 0.0258 -0.0069 0.0, 0.0258 -0.0765 0.0, 0.0906 -0.0765 0.0, 0.1122 0.0966 0.0, 0.1134 0.2067 0.0, 0.1092 0.1251 0.0, 0.1011 0.1481 0.0, 0.0867 0.1695 0.0, -0.0307 0.1897 0.0, -0.0483 0.1784 0.0, -0.0638 0.1622 0.0, -0.0757 0.1416 0.0, 0.0866 0.1697 0.0, 0.0711 0.1837 0.0, 0.0542 0.1928 0.0, -0.0825 0.119 0.0, -0.0846 0.0946 0.0, -0.0846 0.0411 0.0, 0.1122 0.0411 0.0, 0.0348 0.1981 0.0, 0.0163 0.1995 0.0, -0.0101 0.1968 0.0, -0.0294 0.3428 0.0, -0.0294 0.2615 0.0, -0.0846 0.3628 0.0, -0.0846 0.2427 0.0, -0.0846 0.2139 0.0, 0.1134 0.5005 0.0, 0.1122 0.2883 0.0, 0.1646 -2.0957 0.1969, -0.1504 -2.0957 0.1969, 0.1646 -1.7935 0.1969, 0.3994 -1.7569 0.1969, 1.7247 -0.5177 0.1969, 1.6423 -0.7406 0.1969, 1.531 -0.9506 0.1969, 1.393 -1.144 0.1969, 1.2306 -1.3175 0.1969, 1.0466 -1.4679 0.1969, 0.8443 -1.5927 0.1969, 0.6273 -1.6896 0.1969, 1.7769 -0.2858 0.1969, 1.798 -0.0491 0.1969, 1.7875 0.1883 0.1969, 1.7457 0.4222 0.1969, 1.6733 0.6486 0.1969, 1.5716 0.8634 0.1969, 1.4424 1.0628 0.1969, 1.2878 1.2434 0.1969, 1.1108 1.4019 0.1969, 0.9143 1.5356 0.1969, 0.7018 1.6421 0.1969, 0.4772 1.7195 0.1969, 0.2442 1.7665 0.1969, 0.0071 1.7823 0.1969, -0.23 1.7665 0.1969, -0.463 1.7195 0.1969, -0.6877 1.6421 0.1969, -0.9001 1.5356 0.1969, -1.0966 1.4019 0.1969, -1.2737 1.2434 0.1969, -1.4282 1.0628 0.1969, -1.5574 0.8634 0.1969, -1.6592 0.6486 0.1969, -1.7316 0.4222 0.1969, -1.7733 0.1883 0.1969, -1.7838 -0.0491 0.1969, -1.7627 -0.2858 0.1969, -1.7105 -0.5177 0.1969, -1.6281 -0.7406 0.1969, -1.5169 -0.9506 0.1969, -1.3788 -1.144 0.1969, -1.2164 -1.3175 0.1969, -1.0324 -1.4679 0.1969, -0.8301 -1.5927 0.1969, -0.6131 -1.6896 0.1969, -0.1504 -1.7935 0.1969, -0.3852 -1.7569 0.1969, 0.5592 -1.5259 0.1969, 0.3427 -1.588 0.1969, 0.1197 -1.6193 0.1969, 0.7649 -1.4343 0.1969, 0.9559 -1.3149 0.1969, 1.1284 -1.1702 0.1969, 1.2791 -1.0028 0.1969, 1.405 -0.8161 0.1969, 1.5037 -0.6137 0.1969, 1.5733 -0.3996 0.1969, 1.6124 -0.1778 0.1969, 1.6203 0.0473 0.1969, 1.5967 0.2712 0.1969, 0.0071 -1.6232 0.1969, -0.1055 -1.6193 0.1969, -0.3285 -1.588 0.1969, -0.545 -1.5259 0.1969, -0.7507 -1.4343 0.1969, -0.9417 -1.3149 0.1969, -1.1142 -1.1702 0.1969, -1.2649 -1.0028 0.1969, -1.3908 -0.8161 0.1969, -1.4895 -0.6137 0.1969, -1.5591 -0.3996 0.1969, -1.5982 -0.1778 0.1969, -1.6061 0.0473 0.1969, -1.5826 0.2712 0.1969, 1.5423 0.4898 0.1969, 1.4579 0.6986 0.1969, 1.3453 0.8936 0.1969, 1.2067 1.071 0.1969, 1.0447 1.2275 0.1969, 0.8625 1.3598 0.1969, 0.6636 1.4656 0.1969, 0.452 1.5426 0.1969, 0.2317 1.5894 0.1969, 0.0071 1.6051 0.1969, -0.2176 1.5894 0.1969, -0.4378 1.5426 0.1969, -0.6495 1.4656 0.1969, -0.8483 1.3598 0.1969, -1.0305 1.2275 0.1969, -1.1925 1.071 0.1969, -1.3311 0.8936 0.1969, -1.4437 0.6986 0.1969, -1.5281 0.4898 0.1969, 0.1197 -1.6193 1.6535, 0.0071 -1.6232 1.6535, -0.1055 -1.6193 1.6535, -0.3285 -1.588 1.6535, -0.545 -1.5259 1.6535, -0.7507 -1.4343 1.6535, -0.9417 -1.3149 1.6535, -1.1142 -1.1702 1.6535, -1.2649 -1.0028 1.6535, -1.3908 -0.8161 1.6535, -1.4895 -0.6137 1.6535, -1.5591 -0.3996 1.6535, -1.5982 -0.1778 1.6535, -1.6061 0.0473 1.6535, -1.5826 0.2712 1.6535, -1.5281 0.4898 1.6535, -1.4437 0.6986 1.6535, -1.3311 0.8936 1.6535, -1.1925 1.071 1.6535, -1.0305 1.2275 1.6535, -0.8483 1.3598 1.6535, -0.6495 1.4656 1.6535, -0.4378 1.5426 1.6535, -0.2176 1.5894 1.6535, 0.0071 1.6051 1.6535, 0.2317 1.5894 1.6535, 0.452 1.5426 1.6535, 0.6636 1.4656 1.6535, 0.8625 1.3598 1.6535, 1.0447 1.2275 1.6535, 1.2067 1.071 1.6535, 1.3453 0.8936 1.6535, 1.4579 0.6986 1.6535, 1.5423 0.4898 1.6535, 1.5967 0.2712 1.6535, 1.6203 0.0473 1.6535, 1.6124 -0.1778 1.6535, 1.5733 -0.3996 1.6535, 1.5037 -0.6137 1.6535, 1.405 -0.8161 1.6535, 1.2791 -1.0028 1.6535, 1.1284 -1.1702 1.6535, 0.9559 -1.3149 1.6535, 0.7649 -1.4343 1.6535, 0.5592 -1.5259 1.6535, 0.3427 -1.588 1.6535, 0.5976 -0.7965 1.6535, 0.5976 0.7783 1.6535, -0.5835 0.7783 1.6535, -0.5835 -0.7965 1.6535, 0.7371 0.6125 -1.9685, 0.7585 0.6213 -1.9685, 0.7768 0.6354 -1.9685, 0.7909 0.6538 -1.9685, 0.7998 0.6751 -1.9685, 0.8028 0.6981 -1.9685, 0.7998 0.721 -1.9685, 0.7909 0.7423 -1.9685, 0.7768 0.7607 -1.9685, 0.7585 0.7748 -1.9685, 0.7371 0.7836 -1.9685, 0.7142 0.7866 -1.9685, 0.6913 0.7836 -1.9685, 0.6699 0.7748 -1.9685, 0.6516 0.7607 -1.9685, 0.6375 0.7423 -1.9685, 0.6286 0.721 -1.9685, 0.6256 0.6981 -1.9685, 0.6286 0.6751 -1.9685, 0.6375 0.6538 -1.9685, 0.6516 0.6354 -1.9685, 0.6699 0.6213 -1.9685, 0.6913 0.6125 -1.9685, 0.7142 0.6095 -1.9685, 0.7142 0.6981 -1.9685, -0.7767 0.6538 -1.9685, -0.7856 0.6751 -1.9685, -0.7886 0.6981 -1.9685, -0.7856 0.721 -1.9685, -0.7767 0.7423 -1.9685, -0.7627 0.7607 -1.9685, -0.7627 0.6354 -1.9685, -0.7443 0.6213 -1.9685, -0.7229 0.6125 -1.9685, -0.7 0.6095 -1.9685, -0.6771 0.6125 -1.9685, -0.6557 0.6213 -1.9685, -0.6374 0.6354 -1.9685, -0.6233 0.6538 -1.9685, -0.6145 0.6751 -1.9685, -0.6114 0.6981 -1.9685, -0.6145 0.721 -1.9685, -0.6233 0.7423 -1.9685, -0.6374 0.7607 -1.9685, -0.6557 0.7748 -1.9685, -0.6771 0.7836 -1.9685, -0.7 0.7866 -1.9685, -0.7229 0.7836 -1.9685, -0.7443 0.7748 -1.9685, -0.7 0.6981 -1.9685, -0.6898 -0.7542 -1.9685, -0.6803 -0.7503 -1.9685, -0.6722 -0.744 -1.9685, -0.6659 -0.7358 -1.9685, -0.662 -0.7263 -1.9685, -0.6606 -0.7162 -1.9685, -0.662 -0.706 -1.9685, -0.6659 -0.6965 -1.9685, -0.6722 -0.6883 -1.9685, -0.6803 -0.6821 -1.9685, -0.6898 -0.6781 -1.9685, -0.7 -0.6768 -1.9685, -0.7102 -0.6781 -1.9685, -0.7197 -0.6821 -1.9685, -0.7279 -0.6883 -1.9685, -0.7341 -0.6965 -1.9685, -0.738 -0.706 -1.9685, -0.7394 -0.7162 -1.9685, -0.738 -0.7263 -1.9685, -0.7341 -0.7358 -1.9685, -0.7279 -0.744 -1.9685, -0.7197 -0.7503 -1.9685, -0.7102 -0.7542 -1.9685, -0.7 -0.7555 -1.9685, -0.7 -0.7162 -1.9685, 0.6699 -0.6394 -1.9685, 0.6913 -0.6306 -1.9685, 0.7142 -0.6276 -1.9685, 0.7371 -0.6306 -1.9685, 0.7585 -0.6394 -1.9685, 0.7768 -0.6535 -1.9685, 0.6516 -0.6535 -1.9685, 0.6375 -0.6719 -1.9685, 0.6286 -0.6932 -1.9685, 0.6256 -0.7162 -1.9685, 0.6286 -0.7391 -1.9685, 0.6375 -0.7605 -1.9685, 0.6516 -0.7788 -1.9685, 0.6699 -0.7929 -1.9685, 0.6913 -0.8017 -1.9685, 0.7142 -0.8047 -1.9685, 0.7371 -0.8017 -1.9685, 0.7585 -0.7929 -1.9685, 0.7768 -0.7788 -1.9685, 0.7909 -0.7605 -1.9685, 0.7998 -0.7391 -1.9685, 0.8028 -0.7162 -1.9685, 0.7998 -0.6932 -1.9685, 0.7909 -0.6719 -1.9685, 0.7142 -0.7162 -1.9685
            ]
        }
        coordIndex [
            0,1,2,-1,3,4,5,-1,6,7,8,-1,9,10,11,-1,12,13,14,-1,15,16,17,-1,17,16,18,-1,18,19,20,-1,20,21,18,-1,18,21,22,-1,18,22,17,-1,17,22,23,-1,17,23,24,-1,24,23,25,-1,24,25,26,-1,26,27,24,-1,24,27,28,-1,24,28,29,-1,30,31,24,-1,24,31,32,-1,33,34,35,-1,35,34,36,-1,32,37,24,-1,24,37,36,-1,24,36,38,-1,38,36,34,-1,29,39,24,-1,24,39,40,-1,24,40,30,-1,41,42,43,-1,43,42,44,-1,45,46,47,-1,48,49,50,-1,49,51,50,-1,50,51,52,-1,50,52,53,-1,46,54,47,-1,47,54,55,-1,47,55,56,-1,53,57,50,-1,50,57,58,-1,50,58,47,-1,47,58,59,-1,47,59,45,-1,15,60,16,-1,16,60,61,-1,16,61,62,-1,61,63,62,-1,62,63,64,-1,62,64,65,-1,66,67,68,-1,67,69,68,-1,68,69,70,-1,68,70,71,-1,72,73,74,-1,74,73,75,-1,74,75,76,-1,76,75,77,-1,76,77,78,-1,78,77,79,-1,78,79,80,-1,80,79,81,-1,80,81,82,-1,82,81,83,-1,82,83,84,-1,84,83,85,-1,84,85,86,-1,86,85,87,-1,86,87,88,-1,88,87,89,-1,88,89,90,-1,90,89,91,-1,90,91,92,-1,92,91,93,-1,92,93,94,-1,94,95,92,-1,92,95,96,-1,92,96,97,-1,97,96,98,-1,97,98,99,-1,99,98,100,-1,99,100,101,-1,101,102,103,-1,103,102,104,-1,103,104,68,-1,68,104,105,-1,68,105,66,-1,106,107,108,-1,108,107,109,-1,109,110,108,-1,108,110,111,-1,108,111,112,-1,113,114,115,-1,115,114,116,-1,116,117,115,-1,115,117,118,-1,115,118,119,-1,120,121,5,-1,5,121,122,-1,5,122,113,-1,123,124,125,-1,125,124,126,-1,125,126,127,-1,127,128,125,-1,125,128,129,-1,125,129,5,-1,5,129,130,-1,5,130,120,-1,74,131,132,-1,101,103,99,-1,99,103,44,-1,99,44,133,-1,133,44,134,-1,134,44,42,-1,134,42,135,-1,135,42,136,-1,136,42,137,-1,136,137,138,-1,138,137,139,-1,139,137,140,-1,139,140,141,-1,142,143,144,-1,144,143,145,-1,146,147,148,-1,148,147,149,-1,150,151,14,-1,152,153,14,-1,14,153,154,-1,14,154,144,-1,144,154,155,-1,144,155,156,-1,141,140,157,-1,157,140,144,-1,157,144,148,-1,148,144,145,-1,148,145,146,-1,156,158,144,-1,144,158,159,-1,144,159,142,-1,151,160,14,-1,14,160,161,-1,14,161,152,-1,162,163,164,-1,164,163,165,-1,164,165,166,-1,166,165,167,-1,166,167,168,-1,168,167,169,-1,168,169,170,-1,170,169,171,-1,170,171,172,-1,172,171,148,-1,172,148,173,-1,173,148,149,-1,13,174,14,-1,14,174,175,-1,14,175,176,-1,162,150,163,-1,163,150,14,-1,163,14,177,-1,177,14,176,-1,113,115,5,-1,5,115,178,-1,5,178,3,-1,179,180,115,-1,115,180,181,-1,115,181,178,-1,182,183,184,-1,184,183,185,-1,184,185,186,-1,186,185,187,-1,186,187,188,-1,188,187,189,-1,188,189,119,-1,119,189,190,-1,119,190,115,-1,115,190,191,-1,115,191,179,-1,182,106,183,-1,183,106,108,-1,183,108,192,-1,192,108,193,-1,194,195,196,-1,196,195,197,-1,196,197,193,-1,193,197,198,-1,193,198,192,-1,199,200,194,-1,201,202,203,-1,204,205,206,-1,206,205,202,-1,207,208,206,-1,206,208,209,-1,206,209,210,-1,210,211,206,-1,206,211,212,-1,206,212,204,-1,213,214,207,-1,215,216,206,-1,217,218,206,-1,206,218,219,-1,206,219,207,-1,207,219,220,-1,207,220,213,-1,221,222,223,-1,223,222,224,-1,224,225,223,-1,223,225,226,-1,223,226,227,-1,214,228,207,-1,207,228,229,-1,207,229,230,-1,230,229,231,-1,230,231,232,-1,232,231,233,-1,233,231,234,-1,233,234,235,-1,216,236,206,-1,206,236,237,-1,206,237,217,-1,227,238,223,-1,223,238,239,-1,223,239,206,-1,206,239,240,-1,206,240,215,-1,241,242,243,-1,48,50,65,-1,65,50,244,-1,65,244,62,-1,62,244,245,-1,62,245,199,-1,199,245,246,-1,199,246,200,-1,112,123,108,-1,108,123,125,-1,108,125,193,-1,193,125,247,-1,193,247,196,-1,196,247,248,-1,4,6,5,-1,5,6,8,-1,5,8,125,-1,125,8,2,-1,125,2,247,-1,247,2,249,-1,247,249,248,-1,248,249,250,-1,235,221,233,-1,233,221,223,-1,233,223,243,-1,243,223,251,-1,243,251,241,-1,241,251,132,-1,241,132,252,-1,252,132,131,-1,252,131,253,-1,202,201,206,-1,206,201,254,-1,206,254,223,-1,223,254,255,-1,223,255,251,-1,251,255,256,-1,251,256,132,-1,257,47,258,-1,258,47,256,-1,258,256,259,-1,259,256,255,-1,259,255,50,-1,50,255,254,-1,50,254,244,-1,244,254,201,-1,244,201,245,-1,245,201,203,-1,245,203,246,-1,257,260,47,-1,47,260,261,-1,47,261,50,-1,50,261,262,-1,50,262,259,-1,263,264,18,-1,194,196,199,-1,199,196,248,-1,199,248,62,-1,62,248,250,-1,62,250,16,-1,16,250,265,-1,16,265,18,-1,18,265,266,-1,18,266,263,-1,263,267,264,-1,264,267,268,-1,264,268,250,-1,250,268,269,-1,250,269,265,-1,270,271,272,-1,272,271,268,-1,272,268,273,-1,273,268,267,-1,273,267,274,-1,274,267,275,-1,276,277,264,-1,276,278,277,-1,277,278,279,-1,277,279,280,-1,281,282,249,-1,249,282,283,-1,249,283,284,-1,280,285,277,-1,277,285,286,-1,277,286,287,-1,284,288,249,-1,249,288,289,-1,249,289,250,-1,250,289,290,-1,250,290,264,-1,264,290,291,-1,264,291,276,-1,287,292,277,-1,277,292,293,-1,277,293,249,-1,249,293,294,-1,249,294,281,-1,295,296,297,-1,297,296,298,-1,1,297,2,-1,2,297,298,-1,2,298,249,-1,249,298,299,-1,249,299,277,-1,7,9,8,-1,8,9,11,-1,8,11,2,-1,2,11,300,-1,2,300,0,-1,0,300,277,-1,0,277,301,-1,301,277,299,-1,56,43,47,-1,47,43,44,-1,47,44,256,-1,256,44,103,-1,256,103,132,-1,132,103,68,-1,132,68,74,-1,74,68,71,-1,74,71,72,-1,10,12,11,-1,11,12,14,-1,11,14,300,-1,300,14,144,-1,300,144,277,-1,277,144,140,-1,277,140,264,-1,264,140,137,-1,264,137,18,-1,18,137,42,-1,18,42,19,-1,19,42,41,-1,253,302,252,-1,252,302,303,-1,252,303,241,-1,241,303,242,-1,304,302,131,-1,131,302,253,-1,131,74,304,-1,304,74,305,-1,97,306,92,-1,92,306,307,-1,92,307,90,-1,90,307,308,-1,90,308,88,-1,88,308,309,-1,88,309,86,-1,86,309,310,-1,86,310,84,-1,84,310,311,-1,84,311,82,-1,82,311,312,-1,82,312,80,-1,80,312,313,-1,80,313,78,-1,78,313,305,-1,78,305,76,-1,76,305,74,-1,97,99,306,-1,306,99,133,-1,306,133,314,-1,133,134,314,-1,314,134,135,-1,314,135,315,-1,135,136,315,-1,315,136,138,-1,315,138,316,-1,138,139,316,-1,316,139,141,-1,316,141,317,-1,141,157,317,-1,317,157,148,-1,317,148,318,-1,148,171,318,-1,318,171,169,-1,318,169,319,-1,319,169,167,-1,319,167,320,-1,320,167,165,-1,320,165,321,-1,321,165,163,-1,321,163,322,-1,163,177,322,-1,322,177,176,-1,322,176,323,-1,323,176,175,-1,323,175,324,-1,324,175,174,-1,324,174,325,-1,325,174,13,-1,325,13,326,-1,13,12,326,-1,326,12,10,-1,326,10,327,-1,10,9,327,-1,327,9,7,-1,327,7,328,-1,328,7,6,-1,328,6,329,-1,329,6,4,-1,4,3,329,-1,329,3,178,-1,329,178,330,-1,330,178,181,-1,330,181,331,-1,181,180,331,-1,331,180,179,-1,331,179,332,-1,332,179,191,-1,332,191,333,-1,191,190,333,-1,333,190,189,-1,333,189,334,-1,334,189,187,-1,334,187,335,-1,335,187,185,-1,335,185,336,-1,336,185,183,-1,336,183,337,-1,183,192,337,-1,337,192,198,-1,337,198,338,-1,198,197,338,-1,338,197,195,-1,338,195,339,-1,195,194,339,-1,339,194,200,-1,339,200,340,-1,200,246,340,-1,340,246,203,-1,340,203,341,-1,203,202,341,-1,341,202,205,-1,341,205,342,-1,205,204,342,-1,342,204,212,-1,342,212,343,-1,343,212,211,-1,343,211,344,-1,344,211,210,-1,344,210,345,-1,345,210,209,-1,345,209,346,-1,346,209,208,-1,346,208,347,-1,347,208,207,-1,347,207,348,-1,243,349,233,-1,233,349,350,-1,233,350,232,-1,232,350,348,-1,232,348,230,-1,230,348,207,-1,303,349,242,-1,242,349,243,-1,351,352,349,-1,349,352,353,-1,351,313,354,-1,354,313,312,-1,354,312,355,-1,355,312,311,-1,355,311,356,-1,356,311,310,-1,356,310,357,-1,357,310,309,-1,357,309,358,-1,358,309,308,-1,358,308,359,-1,359,308,307,-1,359,307,360,-1,360,307,306,-1,360,306,361,-1,361,306,314,-1,361,314,362,-1,362,314,315,-1,362,315,363,-1,303,302,349,-1,349,302,304,-1,349,304,351,-1,351,304,305,-1,351,305,313,-1,353,364,349,-1,349,364,365,-1,349,365,350,-1,350,365,366,-1,350,366,348,-1,348,366,367,-1,348,367,347,-1,347,367,368,-1,347,368,346,-1,346,368,369,-1,346,369,345,-1,345,369,370,-1,345,370,344,-1,344,370,371,-1,344,371,343,-1,343,371,372,-1,343,372,342,-1,342,372,373,-1,342,373,341,-1,341,373,374,-1,341,374,340,-1,340,374,375,-1,340,375,339,-1,339,375,376,-1,339,376,338,-1,338,376,377,-1,315,316,363,-1,363,316,317,-1,363,317,378,-1,378,317,318,-1,378,318,379,-1,379,318,319,-1,379,319,380,-1,380,319,320,-1,380,320,381,-1,381,320,321,-1,381,321,382,-1,382,321,322,-1,382,322,383,-1,383,322,323,-1,383,323,384,-1,384,323,324,-1,384,324,385,-1,385,324,325,-1,385,325,386,-1,386,325,326,-1,386,326,387,-1,387,326,327,-1,387,327,388,-1,388,327,328,-1,388,328,389,-1,389,328,329,-1,389,329,390,-1,390,329,330,-1,390,330,391,-1,391,330,331,-1,391,331,392,-1,392,331,332,-1,392,332,393,-1,393,332,333,-1,393,333,394,-1,394,333,334,-1,394,334,395,-1,395,334,335,-1,395,335,396,-1,396,335,336,-1,396,336,377,-1,377,336,337,-1,377,337,338,-1,397,398,364,-1,364,398,365,-1,398,399,365,-1,365,399,400,-1,365,400,366,-1,366,400,401,-1,366,401,367,-1,367,401,402,-1,367,402,368,-1,368,402,403,-1,368,403,369,-1,369,403,404,-1,369,404,370,-1,370,404,405,-1,370,405,371,-1,371,405,406,-1,371,406,372,-1,372,406,407,-1,372,407,373,-1,373,407,408,-1,373,408,374,-1,374,408,409,-1,374,409,375,-1,375,409,410,-1,375,410,376,-1,376,410,411,-1,376,411,377,-1,377,411,412,-1,377,412,396,-1,396,412,413,-1,396,413,395,-1,395,413,414,-1,395,414,394,-1,394,414,415,-1,394,415,393,-1,393,415,416,-1,393,416,392,-1,392,416,417,-1,392,417,391,-1,391,417,418,-1,391,418,390,-1,390,418,419,-1,390,419,389,-1,389,419,420,-1,389,420,388,-1,388,420,421,-1,388,421,387,-1,387,421,422,-1,387,422,386,-1,386,422,423,-1,386,423,385,-1,385,423,424,-1,385,424,384,-1,384,424,425,-1,384,425,383,-1,383,425,426,-1,383,426,382,-1,382,426,427,-1,382,427,381,-1,381,427,428,-1,381,428,380,-1,380,428,429,-1,380,429,379,-1,379,429,430,-1,379,430,378,-1,378,430,431,-1,378,431,363,-1,363,431,432,-1,363,432,362,-1,362,432,433,-1,362,433,361,-1,361,433,434,-1,361,434,360,-1,360,434,435,-1,360,435,359,-1,359,435,436,-1,359,436,358,-1,358,436,437,-1,358,437,357,-1,357,437,438,-1,357,438,356,-1,356,438,439,-1,356,439,355,-1,355,439,440,-1,355,440,354,-1,354,440,441,-1,354,441,351,-1,351,441,442,-1,351,442,352,-1,352,442,397,-1,352,397,353,-1,353,397,364,-1,436,443,437,-1,437,443,438,-1,429,428,444,-1,444,428,427,-1,444,427,426,-1,442,441,443,-1,445,415,414,-1,426,425,444,-1,444,425,424,-1,444,424,423,-1,405,404,446,-1,446,404,403,-1,400,399,446,-1,446,399,398,-1,446,398,443,-1,443,398,397,-1,443,397,442,-1,410,409,446,-1,446,409,408,-1,445,419,418,-1,436,435,443,-1,443,435,434,-1,443,434,433,-1,433,432,443,-1,443,432,431,-1,443,431,444,-1,444,431,430,-1,444,430,429,-1,403,402,446,-1,446,402,401,-1,446,401,400,-1,441,440,443,-1,443,440,439,-1,443,439,438,-1,414,413,445,-1,445,413,412,-1,445,412,446,-1,446,412,411,-1,446,411,410,-1,408,407,446,-1,446,407,406,-1,446,406,405,-1,423,422,444,-1,444,422,421,-1,444,421,445,-1,445,421,420,-1,445,420,419,-1,418,417,445,-1,445,417,416,-1,445,416,415,-1,145,447,146,-1,146,447,448,-1,146,448,147,-1,147,448,449,-1,147,449,149,-1,149,449,450,-1,149,450,173,-1,173,450,451,-1,173,451,172,-1,172,451,452,-1,172,452,170,-1,170,452,453,-1,170,453,168,-1,168,453,454,-1,168,454,166,-1,166,454,455,-1,166,455,164,-1,164,455,456,-1,164,456,162,-1,162,456,457,-1,162,457,150,-1,150,457,458,-1,150,458,151,-1,151,458,459,-1,151,459,160,-1,160,459,460,-1,160,460,161,-1,161,460,461,-1,161,461,152,-1,152,461,462,-1,152,462,153,-1,153,462,463,-1,153,463,154,-1,154,463,464,-1,154,464,155,-1,155,464,465,-1,155,465,156,-1,156,465,466,-1,156,466,158,-1,158,466,467,-1,158,467,159,-1,159,467,468,-1,159,468,142,-1,142,468,469,-1,142,469,143,-1,143,469,470,-1,143,470,145,-1,145,470,447,-1,460,459,471,-1,471,459,458,-1,471,458,457,-1,463,462,471,-1,471,462,461,-1,471,461,460,-1,466,465,471,-1,471,465,464,-1,471,464,463,-1,469,468,471,-1,471,468,467,-1,471,467,466,-1,448,447,471,-1,471,447,470,-1,471,470,469,-1,451,450,471,-1,471,450,449,-1,471,449,448,-1,454,453,471,-1,471,453,452,-1,471,452,451,-1,457,456,471,-1,471,456,455,-1,471,455,454,-1,109,107,472,-1,107,106,472,-1,472,106,182,-1,472,182,473,-1,473,182,184,-1,473,184,474,-1,474,184,186,-1,474,186,475,-1,475,186,188,-1,475,188,476,-1,476,188,119,-1,476,119,477,-1,472,478,109,-1,109,478,479,-1,109,479,110,-1,110,479,480,-1,110,480,111,-1,111,480,481,-1,111,481,112,-1,112,481,482,-1,112,482,123,-1,123,482,483,-1,123,483,124,-1,124,483,484,-1,124,484,126,-1,126,484,485,-1,126,485,127,-1,127,485,486,-1,127,486,128,-1,128,486,487,-1,128,487,129,-1,129,487,488,-1,129,488,130,-1,130,488,489,-1,130,489,120,-1,120,489,490,-1,120,490,121,-1,121,490,491,-1,121,491,122,-1,122,491,492,-1,122,492,113,-1,113,492,493,-1,113,493,114,-1,114,493,494,-1,114,494,116,-1,116,494,495,-1,116,495,117,-1,117,495,477,-1,117,477,118,-1,118,477,119,-1,495,494,496,-1,496,494,493,-1,496,493,492,-1,475,476,496,-1,496,476,477,-1,496,477,495,-1,472,473,496,-1,496,473,474,-1,496,474,475,-1,480,479,496,-1,496,479,478,-1,496,478,472,-1,483,482,496,-1,496,482,481,-1,496,481,480,-1,486,485,496,-1,496,485,484,-1,496,484,483,-1,489,488,496,-1,496,488,487,-1,496,487,486,-1,492,491,496,-1,496,491,490,-1,496,490,489,-1,229,497,231,-1,231,497,498,-1,231,498,234,-1,234,498,499,-1,234,499,235,-1,235,499,500,-1,235,500,221,-1,221,500,501,-1,221,501,222,-1,222,501,502,-1,222,502,224,-1,224,502,503,-1,224,503,225,-1,225,503,504,-1,225,504,226,-1,226,504,505,-1,226,505,227,-1,227,505,506,-1,227,506,238,-1,238,506,507,-1,238,507,239,-1,239,507,508,-1,239,508,240,-1,240,508,509,-1,240,509,215,-1,215,509,510,-1,215,510,216,-1,216,510,511,-1,216,511,236,-1,236,511,512,-1,236,512,237,-1,237,512,513,-1,237,513,217,-1,217,513,514,-1,217,514,218,-1,218,514,515,-1,218,515,219,-1,219,515,516,-1,219,516,220,-1,220,516,517,-1,220,517,213,-1,213,517,518,-1,213,518,214,-1,214,518,519,-1,214,519,228,-1,228,519,520,-1,228,520,229,-1,229,520,497,-1,510,509,521,-1,521,509,508,-1,521,508,507,-1,513,512,521,-1,521,512,511,-1,521,511,510,-1,516,515,521,-1,521,515,514,-1,521,514,513,-1,519,518,521,-1,521,518,517,-1,521,517,516,-1,498,497,521,-1,521,497,520,-1,521,520,519,-1,501,500,521,-1,521,500,499,-1,521,499,498,-1,504,503,521,-1,521,503,502,-1,521,502,501,-1,507,506,521,-1,521,506,505,-1,521,505,504,-1,66,105,522,-1,105,104,522,-1,522,104,102,-1,522,102,523,-1,523,102,101,-1,523,101,524,-1,524,101,100,-1,524,100,525,-1,525,100,98,-1,525,98,526,-1,526,98,96,-1,526,96,527,-1,522,528,66,-1,66,528,529,-1,66,529,67,-1,67,529,530,-1,67,530,69,-1,69,530,531,-1,69,531,70,-1,70,531,532,-1,70,532,71,-1,71,532,533,-1,71,533,72,-1,72,533,534,-1,72,534,73,-1,73,534,535,-1,73,535,75,-1,75,535,536,-1,75,536,77,-1,77,536,537,-1,77,537,79,-1,79,537,538,-1,79,538,81,-1,81,538,539,-1,81,539,83,-1,83,539,540,-1,83,540,85,-1,85,540,541,-1,85,541,87,-1,87,541,542,-1,87,542,89,-1,89,542,543,-1,89,543,91,-1,91,543,544,-1,91,544,93,-1,93,544,545,-1,93,545,94,-1,94,545,527,-1,94,527,95,-1,95,527,96,-1,522,523,546,-1,546,523,524,-1,546,524,525,-1,530,529,546,-1,546,529,528,-1,546,528,522,-1,533,532,546,-1,546,532,531,-1,546,531,530,-1,536,535,546,-1,546,535,534,-1,546,534,533,-1,539,538,546,-1,546,538,537,-1,546,537,536,-1,542,541,546,-1,546,541,540,-1,546,540,539,-1,545,544,546,-1,546,544,543,-1,546,543,542,-1,525,526,546,-1,546,526,527,-1,546,527,545,-1,
        ]
    }
}
Shape{
    appearance Appearance {
        material  Material 	{
            diffuseColor 0.792156862745098 0.8196078431372549 0.9333333333333333
            specularColor 0.396078431372549 0.4117647058823529 0.4666666666666667
            ambientIntensity 0.8244
            transparency 0.0
            shininess 0.5
        }
    }
    geometry IndexedFaceSet {
        ccw TRUE
        solid FALSE
        coord DEF co Coordinate {
            point [
                0.5976 -0.7965 1.6142, -0.5835 -0.7965 1.6142, 0.5976 -0.7965 1.6535, -0.5835 -0.7965 1.6535, -0.5835 0.7783 1.6142, -0.5835 0.7783 1.6535, 0.5976 0.7783 1.6142, 0.5976 0.7783 1.6535
            ]
        }
        coordIndex [
            0,1,2,-1,2,1,3,-1,1,4,3,-1,3,4,5,-1,4,6,5,-1,5,6,7,-1,6,0,7,-1,7,0,2,-1,6,4,0,-1,0,4,1,-1,
        ]
    }
}
Shape{
    appearance Appearance {
        material  Material 	{
            diffuseColor 1.0 1.0 1.0
            specularColor 0.8784313725490196 0.8784313725490196 0.8784313725490196
            ambientIntensity 1.0
            transparency 0.0
            shininess 0.5
        }
    }
    geometry IndexedFaceSet {
        ccw TRUE
        solid FALSE
        coord DEF co Coordinate {
            point [
                -0.063 -0.3046 0.1181, -0.0846 -0.3046 0.1181, -0.063 -0.3046 0.0, -0.0846 -0.3046 0.0, -0.0846 -0.4054 0.1181, -0.0846 -0.4054 0.0, 0.1122 -0.4054 0.1181, 0.1122 -0.4054 0.0, 0.1122 -0.379 0.1181, 0.1122 -0.379 0.0, -0.063 -0.379 0.1181, -0.063 -0.379 0.0, 0.1122 0.3148 0.1181, -0.0846 0.3916 0.1181, 0.1122 0.3148 0.0, -0.0846 0.3916 0.0, -0.0846 0.3628 0.1181, -0.0846 0.3628 0.0, -0.0294 0.3428 0.1181, -0.0294 0.3428 0.0, -0.0294 0.2615 0.1181, -0.0294 0.2615 0.0, -0.0846 0.2427 0.1181, -0.0846 0.2427 0.0, -0.0846 0.2139 0.1181, -0.0846 0.2139 0.0, 0.1122 0.2883 0.1181, 0.1122 0.2883 0.0, -0.0078 0.2682 0.1181, 0.0744 0.2975 0.1181, 0.0812 0.2994 0.1181, 0.0882 0.3007 0.1181, 0.0882 0.3013 0.1181, 0.0813 0.3026 0.1181, -0.0078 0.334 0.1181, 0.0744 0.3044 0.1181, -0.0078 0.2682 0.0, -0.0078 0.334 0.0, 0.0744 0.2975 0.0, 0.0812 0.2994 0.0, 0.0882 0.3007 0.0, 0.0882 0.3013 0.0, 0.0813 0.3026 0.0, 0.0744 0.3044 0.0, -0.0846 0.0946 0.1181, -0.0846 0.0411 0.1181, -0.0846 0.0946 0.0, -0.0846 0.0411 0.0, 0.1122 0.0411 0.1181, 0.1122 0.0411 0.0, 0.1122 0.0966 0.1181, 0.1122 0.0966 0.0, 0.0163 0.1995 0.1181, 0.0163 0.1995 0.0, 0.0348 0.1981 0.0, 0.0348 0.1981 0.1181, 0.0542 0.1928 0.0, 0.0542 0.1928 0.1181, 0.0711 0.1837 0.0, 0.0711 0.1837 0.1181, 0.0866 0.1697 0.0, 0.0866 0.1697 0.1181, 0.0867 0.1695 0.0, 0.0867 0.1695 0.1181, 0.1011 0.1481 0.0, 0.1011 0.1481 0.1181, 0.1092 0.1251 0.0, 0.1092 0.1251 0.1181, -0.0825 0.119 0.0, -0.0825 0.119 0.1181, -0.0757 0.1416 0.0, -0.0757 0.1416 0.1181, -0.0638 0.1622 0.0, -0.0638 0.1622 0.1181, -0.0483 0.1784 0.0, -0.0483 0.1784 0.1181, -0.0307 0.1897 0.0, -0.0307 0.1897 0.1181, -0.0101 0.1968 0.0, -0.0101 0.1968 0.1181, 0.063 0.16 0.1181, 0.0732 0.1504 0.1181, 0.0825 0.1361 0.1181, 0.0881 0.1198 0.1181, 0.0906 0.0965 0.1181, 0.0906 0.0675 0.1181, -0.063 0.0675 0.1181, -0.063 0.0954 0.1181, -0.0611 0.1162 0.1181, -0.0559 0.1328 0.1181, -0.0479 0.1462 0.1181, -0.037 0.1572 0.1181, -0.0235 0.1655 0.1181, -0.005 0.1713 0.1181, 0.0157 0.1731 0.1181, 0.0353 0.1714 0.1181, 0.0509 0.1668 0.1181, 0.0906 0.0965 0.0, 0.0906 0.0675 0.0, 0.0881 0.1198 0.0, 0.0825 0.1361 0.0, 0.0732 0.1504 0.0, 0.063 0.16 0.0, 0.0509 0.1668 0.0, 0.0353 0.1714 0.0, 0.0157 0.1731 0.0, -0.005 0.1713 0.0, -0.0235 0.1655 0.0, -0.037 0.1572 0.0, -0.0479 0.1462 0.0, -0.0559 0.1328 0.0, -0.0611 0.1162 0.0, -0.063 0.0954 0.0, -0.063 0.0675 0.0, -0.063 0.0027 0.1181, -0.0846 0.0027 0.1181, -0.063 0.0027 0.0, -0.0846 0.0027 0.0, -0.0846 -0.103 0.1181, -0.0846 -0.103 0.0, 0.1122 -0.103 0.1181, 0.1122 -0.103 0.0, 0.1122 -0.0021 0.1181, 0.1122 -0.0021 0.0, 0.0906 -0.0021 0.1181, 0.0906 -0.0021 0.0, 0.0906 -0.0765 0.1181, 0.0906 -0.0765 0.0, 0.0258 -0.0765 0.1181, 0.0258 -0.0765 0.0, 0.0258 -0.0069 0.1181, 0.0258 -0.0069 0.0, 0.0042 -0.0069 0.1181, 0.0042 -0.0069 0.0, 0.0042 -0.0765 0.1181, 0.0042 -0.0765 0.0, -0.063 -0.0765 0.1181, -0.063 -0.0765 0.0, -0.0528 -0.1414 0.1181, -0.0744 -0.1414 0.1181, -0.0528 -0.1414 0.0, -0.0744 -0.1414 0.0, -0.083 -0.1623 0.1181, -0.087 -0.1955 0.1181, -0.087 -0.1955 0.0, -0.0869 -0.1901 0.0, -0.0869 -0.1901 0.1181, -0.0858 -0.1822 0.0, -0.083 -0.1623 0.0, -0.0858 -0.2071 0.0, -0.0845 -0.2198 0.1181, -0.0845 -0.2198 0.0, -0.0779 -0.2389 0.1181, -0.0779 -0.2389 0.0, -0.0678 -0.2547 0.1181, -0.0678 -0.2547 0.0, -0.0523 -0.2695 0.1181, -0.0523 -0.2695 0.0, -0.0335 -0.28 0.1181, -0.0335 -0.28 0.0, -0.0127 -0.2859 0.1181, -0.0127 -0.2859 0.0, 0.0101 -0.2878 0.1181, 0.0101 -0.2878 0.0, 0.1146 -0.1877 0.0, 0.1134 -0.2024 0.0, 0.1146 -0.1877 0.1181, 0.113 -0.2075 0.1181, 0.113 -0.2075 0.0, 0.1066 -0.2294 0.0, 0.1066 -0.2294 0.1181, 0.0959 -0.2481 0.0, 0.0959 -0.2481 0.1181, 0.0788 -0.2659 0.0, 0.0788 -0.2659 0.1181, 0.0604 -0.2774 0.0, 0.0604 -0.2774 0.1181, 0.0381 -0.285 0.0, 0.0381 -0.285 0.1181, 0.1134 -0.1703 0.0, 0.113 -0.1641 0.1181, 0.113 -0.1641 0.0, 0.1068 -0.1414 0.1181, 0.1068 -0.1414 0.0, 0.0804 -0.1414 0.1181, 0.0804 -0.1414 0.0, 0.093 -0.1875 0.1181, 0.093 -0.1875 0.0, 0.0899 -0.1635 0.0, 0.0899 -0.1635 0.1181, 0.0117 -0.2614 0.1181, 0.0117 -0.2614 0.0, 0.027 -0.2605 0.0, 0.027 -0.2605 0.1181, 0.0481 -0.2552 0.0, 0.0481 -0.2552 0.1181, 0.0633 -0.2471 0.0, 0.0633 -0.2471 0.1181, 0.0764 -0.2352 0.0, 0.0764 -0.2352 0.1181, 0.0855 -0.2216 0.0, 0.0855 -0.2216 0.1181, 0.0908 -0.2068 0.0, 0.0908 -0.2068 0.1181, -0.0654 -0.1919 0.1181, -0.0654 -0.1919 0.0, -0.0634 -0.2103 0.0, -0.0634 -0.2103 0.1181, -0.0581 -0.2246 0.0, -0.0581 -0.2246 0.1181, -0.0499 -0.2367 0.0, -0.0499 -0.2367 0.1181, -0.0402 -0.2459 0.0, -0.0402 -0.2459 0.1181, -0.0265 -0.2541 0.0, -0.0265 -0.2541 0.1181, -0.0096 -0.2594 0.0, -0.0096 -0.2594 0.1181, -0.0548 -0.1449 0.0, -0.0548 -0.1449 0.1181, -0.0625 -0.1658 0.0, -0.0625 -0.1658 0.1181
            ]
        }
        coordIndex [
            0,1,2,-1,2,1,3,-1,1,4,3,-1,3,4,5,-1,4,6,5,-1,5,6,7,-1,6,8,7,-1,7,8,9,-1,8,10,9,-1,9,10,11,-1,10,0,11,-1,11,0,2,-1,8,6,10,-1,10,6,4,-1,10,4,0,-1,0,4,1,-1,12,13,14,-1,14,13,15,-1,13,16,15,-1,15,16,17,-1,16,18,17,-1,17,18,19,-1,18,20,19,-1,19,20,21,-1,20,22,21,-1,21,22,23,-1,22,24,23,-1,23,24,25,-1,24,26,25,-1,25,26,27,-1,26,12,27,-1,27,12,14,-1,28,29,26,-1,24,22,20,-1,29,30,26,-1,26,30,31,-1,26,31,12,-1,12,31,32,-1,12,32,33,-1,26,24,28,-1,28,24,20,-1,28,20,34,-1,34,20,18,-1,33,35,12,-1,12,35,34,-1,12,34,13,-1,13,34,18,-1,13,18,16,-1,28,34,36,-1,36,34,37,-1,29,28,38,-1,38,28,36,-1,29,38,39,-1,29,39,30,-1,30,39,40,-1,30,40,31,-1,32,31,41,-1,41,31,40,-1,32,41,42,-1,32,42,33,-1,33,42,43,-1,33,43,35,-1,34,35,37,-1,37,35,43,-1,44,45,46,-1,46,45,47,-1,45,48,47,-1,47,48,49,-1,48,50,49,-1,49,50,51,-1,52,53,54,-1,52,54,55,-1,55,54,56,-1,55,56,57,-1,57,56,58,-1,57,58,59,-1,59,58,60,-1,59,60,61,-1,61,60,62,-1,61,62,63,-1,63,62,64,-1,63,64,65,-1,65,64,66,-1,65,66,67,-1,67,66,51,-1,67,51,50,-1,44,46,68,-1,44,68,69,-1,69,68,70,-1,69,70,71,-1,71,70,72,-1,71,72,73,-1,73,72,74,-1,73,74,75,-1,75,74,76,-1,75,76,77,-1,77,76,78,-1,77,78,79,-1,79,78,53,-1,79,53,52,-1,57,59,80,-1,80,59,61,-1,80,61,81,-1,81,61,63,-1,81,63,82,-1,82,63,65,-1,82,65,83,-1,83,65,67,-1,83,67,84,-1,84,67,50,-1,84,50,85,-1,85,50,48,-1,85,48,86,-1,86,48,45,-1,86,45,87,-1,87,45,44,-1,87,44,88,-1,88,44,69,-1,88,69,89,-1,89,69,71,-1,89,71,90,-1,90,71,73,-1,90,73,91,-1,91,73,75,-1,91,75,92,-1,92,75,77,-1,92,77,93,-1,93,77,79,-1,93,79,94,-1,94,79,52,-1,94,52,95,-1,95,52,55,-1,95,55,96,-1,96,55,57,-1,96,57,80,-1,84,85,97,-1,97,85,98,-1,84,97,99,-1,84,99,83,-1,83,99,100,-1,83,100,82,-1,82,100,101,-1,82,101,81,-1,81,101,102,-1,81,102,80,-1,80,102,103,-1,80,103,96,-1,96,103,104,-1,96,104,95,-1,95,104,105,-1,95,105,94,-1,94,105,106,-1,94,106,93,-1,93,106,107,-1,93,107,92,-1,92,107,108,-1,92,108,91,-1,91,108,109,-1,91,109,90,-1,90,109,110,-1,90,110,89,-1,89,110,111,-1,89,111,88,-1,88,111,112,-1,88,112,87,-1,86,87,113,-1,113,87,112,-1,85,86,98,-1,98,86,113,-1,114,115,116,-1,116,115,117,-1,115,118,117,-1,117,118,119,-1,118,120,119,-1,119,120,121,-1,120,122,121,-1,121,122,123,-1,122,124,123,-1,123,124,125,-1,124,126,125,-1,125,126,127,-1,126,128,127,-1,127,128,129,-1,128,130,129,-1,129,130,131,-1,130,132,131,-1,131,132,133,-1,132,134,133,-1,133,134,135,-1,134,136,135,-1,135,136,137,-1,136,114,137,-1,137,114,116,-1,118,115,114,-1,114,136,118,-1,118,136,134,-1,118,134,120,-1,124,122,126,-1,126,122,120,-1,126,120,128,-1,128,120,134,-1,128,134,130,-1,130,134,132,-1,138,139,140,-1,140,139,141,-1,141,139,142,-1,143,144,145,-1,143,145,146,-1,146,145,147,-1,146,147,142,-1,142,147,148,-1,142,148,141,-1,144,143,149,-1,149,143,150,-1,149,150,151,-1,151,150,152,-1,151,152,153,-1,153,152,154,-1,153,154,155,-1,155,154,156,-1,155,156,157,-1,157,156,158,-1,157,158,159,-1,159,158,160,-1,159,160,161,-1,161,160,162,-1,161,162,163,-1,164,165,166,-1,166,165,167,-1,165,168,167,-1,167,168,169,-1,167,169,170,-1,170,169,171,-1,170,171,172,-1,172,171,173,-1,172,173,174,-1,174,173,175,-1,174,175,176,-1,176,175,177,-1,176,177,178,-1,178,177,163,-1,178,163,162,-1,164,166,179,-1,179,166,180,-1,179,180,181,-1,181,180,182,-1,181,182,183,-1,182,184,183,-1,183,184,185,-1,186,187,188,-1,186,188,189,-1,189,188,185,-1,189,185,184,-1,190,191,192,-1,190,192,193,-1,193,192,194,-1,193,194,195,-1,195,194,196,-1,195,196,197,-1,197,196,198,-1,197,198,199,-1,199,198,200,-1,199,200,201,-1,201,200,202,-1,201,202,203,-1,203,202,187,-1,203,187,186,-1,204,205,206,-1,204,206,207,-1,207,206,208,-1,207,208,209,-1,209,208,210,-1,209,210,211,-1,211,210,212,-1,211,212,213,-1,213,212,214,-1,213,214,215,-1,215,214,216,-1,215,216,217,-1,217,216,191,-1,217,191,190,-1,138,140,218,-1,138,218,219,-1,219,218,220,-1,219,220,221,-1,221,220,205,-1,221,205,204,-1,207,143,204,-1,204,143,146,-1,204,146,221,-1,221,146,142,-1,221,142,219,-1,219,142,139,-1,219,139,138,-1,184,182,189,-1,189,182,180,-1,189,180,186,-1,186,180,166,-1,186,166,203,-1,203,166,167,-1,203,167,201,-1,201,167,170,-1,201,170,199,-1,199,170,172,-1,199,172,197,-1,197,172,174,-1,197,174,195,-1,195,174,176,-1,195,176,193,-1,193,176,178,-1,193,178,190,-1,190,178,162,-1,190,162,217,-1,217,162,160,-1,217,160,215,-1,215,160,158,-1,215,158,213,-1,213,158,156,-1,213,156,211,-1,211,156,154,-1,211,154,209,-1,209,154,152,-1,209,152,207,-1,207,152,150,-1,207,150,143,-1,36,37,38,-1,38,37,43,-1,38,43,39,-1,39,43,42,-1,39,42,40,-1,40,42,41,-1,98,113,97,-1,97,113,112,-1,97,112,111,-1,105,104,97,-1,97,104,103,-1,97,103,99,-1,111,110,97,-1,97,110,109,-1,97,109,108,-1,108,107,97,-1,97,107,106,-1,97,106,105,-1,102,101,103,-1,103,101,100,-1,103,100,99,-1,
        ]
    }
}