%TF.GenerationSoftware,KiCad,Pcbnew,10.0.0*%
%TF.CreationDate,2026-05-18T21:46:04-07:00*%
%TF.ProjectId,Chillboard,4368696c-6c62-46f6-9172-642e6b696361,rev?*%
%TF.SameCoordinates,Original*%
%TF.FileFunction,Soldermask,Bot*%
%TF.FilePolarity,Negative*%
%FSLAX46Y46*%
G04 Gerber Fmt 4.6, Leading zero omitted, Abs format (unit mm)*
G04 Created by KiCad (PCBNEW 10.0.0) date 2026-05-18 21:46:04*
%MOMM*%
%LPD*%
G01*
G04 APERTURE LIST*
G04 Aperture macros list*
%AMRoundRect*
0 Rectangle with rounded corners*
0 $1 Rounding radius*
0 $2 $3 $4 $5 $6 $7 $8 $9 X,Y pos of 4 corners*
0 Add a 4 corners polygon primitive as box body*
4,1,4,$2,$3,$4,$5,$6,$7,$8,$9,$2,$3,0*
0 Add four circle primitives for the rounded corners*
1,1,$1+$1,$2,$3*
1,1,$1+$1,$4,$5*
1,1,$1+$1,$6,$7*
1,1,$1+$1,$8,$9*
0 Add four rect primitives between the rounded corners*
20,1,$1+$1,$2,$3,$4,$5,0*
20,1,$1+$1,$4,$5,$6,$7,0*
20,1,$1+$1,$6,$7,$8,$9,0*
20,1,$1+$1,$8,$9,$2,$3,0*%
%AMFreePoly0*
4,1,18,-0.410000,0.593000,-0.403758,0.624380,-0.385983,0.650983,-0.359380,0.668758,-0.328000,0.675000,0.328000,0.675000,0.359380,0.668758,0.385983,0.650983,0.403758,0.624380,0.410000,0.593000,0.410000,-0.593000,0.403758,-0.624380,0.385983,-0.650983,0.359380,-0.668758,0.328000,-0.675000,0.000000,-0.675000,-0.410000,-0.265000,-0.410000,0.593000,-0.410000,0.593000,$1*%
G04 Aperture macros list end*
%ADD10C,1.600000*%
%ADD11RoundRect,0.250000X-0.262500X-0.450000X0.262500X-0.450000X0.262500X0.450000X-0.262500X0.450000X0*%
%ADD12RoundRect,0.250000X-0.002332X-0.520961X0.452332X-0.258461X0.002332X0.520961X-0.452332X0.258461X0*%
%ADD13C,2.100000*%
%ADD14C,1.700000*%
%ADD15C,3.400000*%
%ADD16C,3.300000*%
%ADD17RoundRect,0.260000X1.065000X1.040000X-1.065000X1.040000X-1.065000X-1.040000X1.065000X-1.040000X0*%
%ADD18RoundRect,0.250000X0.250000X0.475000X-0.250000X0.475000X-0.250000X-0.475000X0.250000X-0.475000X0*%
%ADD19RoundRect,0.225000X-0.225000X-0.375000X0.225000X-0.375000X0.225000X0.375000X-0.225000X0.375000X0*%
%ADD20FreePoly0,270.000000*%
%ADD21RoundRect,0.082000X-0.593000X0.328000X-0.593000X-0.328000X0.593000X-0.328000X0.593000X0.328000X0*%
%ADD22RoundRect,0.250000X0.364421X0.394110X-0.118542X0.523520X-0.364421X-0.394110X0.118542X-0.523520X0*%
%ADD23RoundRect,0.225000X0.375000X-0.225000X0.375000X0.225000X-0.375000X0.225000X-0.375000X-0.225000X0*%
%ADD24RoundRect,0.775400X0.775400X0.775400X-0.775400X0.775400X-0.775400X-0.775400X0.775400X-0.775400X0*%
%ADD25C,1.396000*%
%ADD26O,1.700000X1.700000*%
%ADD27R,1.700000X1.700000*%
%ADD28C,1.500000*%
%ADD29R,2.000000X2.000000*%
%ADD30C,2.000000*%
%ADD31R,3.200000X2.000000*%
%ADD32RoundRect,0.250000X-0.550000X-0.550000X0.550000X-0.550000X0.550000X0.550000X-0.550000X0.550000X0*%
%ADD33RoundRect,0.250000X-0.250000X-0.475000X0.250000X-0.475000X0.250000X0.475000X-0.250000X0.475000X0*%
%ADD34RoundRect,0.225000X0.225000X0.375000X-0.225000X0.375000X-0.225000X-0.375000X0.225000X-0.375000X0*%
%ADD35RoundRect,0.250000X-0.454006X-0.286362X-0.020994X-0.536362X0.454006X0.286362X0.020994X0.536362X0*%
%ADD36RoundRect,0.225000X-0.375000X0.225000X-0.375000X-0.225000X0.375000X-0.225000X0.375000X0.225000X0*%
%ADD37RoundRect,0.260000X0.759539X1.280205X-1.297883X0.728921X-0.759539X-1.280205X1.297883X-0.728921X0*%
%ADD38FreePoly0,210.000000*%
%ADD39RoundRect,0.082000X-0.012444X0.677553X-0.580556X0.349553X0.012444X-0.677553X0.580556X-0.349553X0*%
%ADD40FreePoly0,255.000000*%
%ADD41RoundRect,0.082000X-0.487901X0.470303X-0.657687X-0.163344X0.487901X-0.470303X0.657687X0.163344X0*%
%ADD42RoundRect,0.260000X-1.433166X0.402317X-0.368166X-1.442317X1.433166X-0.402317X0.368166X1.442317X0*%
%ADD43RoundRect,0.225000X-0.212260X0.382356X-0.437260X-0.007356X0.212260X-0.382356X0.437260X0.007356X0*%
%ADD44C,0.500000*%
%ADD45RoundRect,0.260000X1.297883X0.728921X-0.759539X1.280205X-1.297883X-0.728921X0.759539X-1.280205X0*%
%ADD46RoundRect,0.260000X0.368166X-1.442317X1.433166X0.402317X-0.368166X1.442317X-1.433166X-0.402317X0*%
%ADD47RoundRect,0.250000X0.454006X0.286362X0.020994X0.536362X-0.454006X-0.286362X-0.020994X-0.536362X0*%
%ADD48RoundRect,0.082000X0.593000X-0.328000X0.593000X0.328000X-0.593000X0.328000X-0.593000X-0.328000X0*%
%ADD49FreePoly0,90.000000*%
%ADD50RoundRect,0.082000X0.487901X-0.470303X0.657687X0.163344X-0.487901X0.470303X-0.657687X-0.163344X0*%
%ADD51FreePoly0,75.000000*%
%ADD52RoundRect,0.082000X-0.580556X-0.349553X-0.012444X-0.677553X0.580556X0.349553X0.012444X0.677553X0*%
%ADD53FreePoly0,330.000000*%
G04 APERTURE END LIST*
D10*
%TO.C,R2*%
X139330000Y-102790000D03*
X139330000Y-95170000D03*
%TD*%
%TO.C,R1*%
X173511638Y-106030000D03*
X173511638Y-113650000D03*
%TD*%
D11*
%TO.C,R3*%
X199102500Y-110510000D03*
X197277500Y-110510000D03*
%TD*%
D12*
%TO.C,R5*%
X171429752Y-112316250D03*
X173010248Y-111403750D03*
%TD*%
D13*
%TO.C,H2*%
X118890000Y-110560000D03*
%TD*%
D14*
%TO.C,SW10*%
X226411638Y-98050000D03*
D15*
X220911638Y-98050000D03*
D14*
X215411638Y-98050000D03*
D16*
X215911638Y-101800000D03*
D17*
X212666638Y-101800000D03*
X224156638Y-104000000D03*
D16*
X220911638Y-104000000D03*
%TD*%
D18*
%TO.C,C28*%
X248261638Y-54350000D03*
X250161638Y-54350000D03*
%TD*%
D19*
%TO.C,D34*%
X303190167Y-92149833D03*
X299890167Y-92149833D03*
%TD*%
D14*
%TO.C,SW9*%
X226311638Y-79050000D03*
D15*
X220811638Y-79050000D03*
D14*
X215311638Y-79050000D03*
D16*
X215811638Y-82800000D03*
D17*
X212566638Y-82800000D03*
X224056638Y-85000000D03*
D16*
X220811638Y-85000000D03*
%TD*%
D20*
%TO.C,D55*%
X217986638Y-73600000D03*
D21*
X217986638Y-75100000D03*
X223436638Y-73600000D03*
X223436638Y-75100000D03*
%TD*%
D13*
%TO.C,H5*%
X287411638Y-74150000D03*
%TD*%
D22*
%TO.C,C16*%
X212394008Y-113504122D03*
X214229268Y-113995878D03*
%TD*%
D23*
%TO.C,D41*%
X281280167Y-91847333D03*
X281280167Y-95147333D03*
%TD*%
D14*
%TO.C,SW3*%
X235811638Y-117650000D03*
D15*
X230311638Y-117650000D03*
D14*
X224811638Y-117650000D03*
D16*
X225311638Y-121400000D03*
D17*
X222066638Y-121400000D03*
X233556638Y-123600000D03*
D16*
X230311638Y-123600000D03*
%TD*%
D23*
%TO.C,D11*%
X205336638Y-70297500D03*
X205336638Y-73597500D03*
%TD*%
D18*
%TO.C,C14*%
X229261638Y-52949999D03*
X231161638Y-52949999D03*
%TD*%
D23*
%TO.C,D9*%
X224340167Y-87059833D03*
X224340167Y-90359833D03*
%TD*%
%TO.C,D12*%
X205286638Y-89280000D03*
X205286638Y-92580000D03*
%TD*%
%TO.C,D26*%
X262300167Y-67927333D03*
X262300167Y-71227333D03*
%TD*%
D24*
%TO.C,U1*%
X165211638Y-59550000D03*
X165211638Y-62950000D03*
%TD*%
D25*
%TO.C,PIR1*%
X162771638Y-77950000D03*
X165311638Y-75410000D03*
X167851638Y-77950000D03*
X165311638Y-80490000D03*
%TD*%
D26*
%TO.C,OLED1*%
X181935167Y-90654833D03*
X184475167Y-90654833D03*
X187015167Y-90654833D03*
D27*
X189555167Y-90654833D03*
%TD*%
D13*
%TO.C,H1*%
X287266638Y-93360000D03*
%TD*%
%TO.C,H9*%
X248456638Y-110340000D03*
%TD*%
D28*
%TO.C,SW43*%
X191125167Y-99059833D03*
X191125167Y-104059833D03*
D29*
X176625167Y-99059833D03*
D30*
X176625167Y-104059833D03*
X176625167Y-101559833D03*
D31*
X184125167Y-95959833D03*
X184125167Y-107159833D03*
%TD*%
D10*
%TO.C,U3*%
X178365167Y-74549833D03*
X178365167Y-77089833D03*
X178365167Y-79629833D03*
X178365167Y-82169833D03*
X178365167Y-84709833D03*
X178365167Y-87249833D03*
X178365167Y-89789833D03*
X178365167Y-92329833D03*
X170745167Y-92329833D03*
X170745167Y-89789833D03*
X170745167Y-87249833D03*
X170745167Y-84709833D03*
X170745167Y-82169833D03*
X170745167Y-79629833D03*
X170745167Y-77089833D03*
D32*
X170745167Y-74549833D03*
%TD*%
D33*
%TO.C,C11*%
X303161638Y-78450000D03*
X301261638Y-78450000D03*
%TD*%
D20*
%TO.C,D76*%
X255986638Y-92600000D03*
D21*
X255986638Y-94100000D03*
X261436638Y-92600000D03*
X261436638Y-94100000D03*
%TD*%
D34*
%TO.C,D25*%
X280870167Y-110959833D03*
X284170167Y-110959833D03*
%TD*%
D33*
%TO.C,C15*%
X250970167Y-92569833D03*
X249070167Y-92569833D03*
%TD*%
D18*
%TO.C,C38*%
X263261638Y-92650000D03*
X265161638Y-92650000D03*
%TD*%
%TO.C,C37*%
X210386638Y-72450000D03*
X212286638Y-72450000D03*
%TD*%
D19*
%TO.C,D35*%
X303182667Y-111349833D03*
X299882667Y-111349833D03*
%TD*%
D20*
%TO.C,D64*%
X293986638Y-78400000D03*
D21*
X293986638Y-79900000D03*
X299436638Y-78400000D03*
X299436638Y-79900000D03*
%TD*%
D14*
%TO.C,SW20*%
X226211638Y-60050000D03*
D15*
X220711638Y-60050000D03*
D14*
X215211638Y-60050000D03*
D16*
X215711638Y-63800000D03*
D17*
X212466638Y-63800000D03*
X223956638Y-66000000D03*
D16*
X220711638Y-66000000D03*
%TD*%
D35*
%TO.C,C5*%
X188635615Y-131439833D03*
X186990167Y-130489833D03*
%TD*%
D20*
%TO.C,D75*%
X236986638Y-90300000D03*
D21*
X236986638Y-91800000D03*
X242436638Y-90300000D03*
X242436638Y-91800000D03*
%TD*%
D20*
%TO.C,D45*%
X236886638Y-52200000D03*
D21*
X236886638Y-53700000D03*
X242336638Y-52200000D03*
X242336638Y-53700000D03*
%TD*%
D18*
%TO.C,C9*%
X225361638Y-73650000D03*
X227261638Y-73650000D03*
%TD*%
D36*
%TO.C,D17*%
X247390167Y-65912333D03*
X247390167Y-62612333D03*
%TD*%
D14*
%TO.C,SW17*%
X245239138Y-57650000D03*
D15*
X239739138Y-57650000D03*
D14*
X234239138Y-57650000D03*
D16*
X234739138Y-61400000D03*
D17*
X231494138Y-61400000D03*
X242984138Y-63600000D03*
D16*
X239739138Y-63600000D03*
%TD*%
D14*
%TO.C,SW26*%
X264311638Y-60050000D03*
D15*
X258811638Y-60050000D03*
D14*
X253311638Y-60050000D03*
D16*
X253811638Y-63800000D03*
D17*
X250566638Y-63800000D03*
X262056638Y-66000000D03*
D16*
X258811638Y-66000000D03*
%TD*%
D20*
%TO.C,D63*%
X274986638Y-78400000D03*
D21*
X274986638Y-79900000D03*
X280436638Y-78400000D03*
X280436638Y-79900000D03*
%TD*%
D18*
%TO.C,C1*%
X267311638Y-57250000D03*
X269211638Y-57250000D03*
%TD*%
D14*
%TO.C,SW36*%
X283311638Y-64750000D03*
D15*
X277811638Y-64750000D03*
D14*
X272311638Y-64750000D03*
D16*
X272811638Y-68500000D03*
D17*
X269566638Y-68500000D03*
X281056638Y-70700000D03*
D16*
X277811638Y-70700000D03*
%TD*%
D18*
%TO.C,C17*%
X244261638Y-71250000D03*
X246161638Y-71250000D03*
%TD*%
D34*
%TO.C,D28*%
X261887667Y-106169833D03*
X265187667Y-106169833D03*
%TD*%
D18*
%TO.C,C26*%
X282261638Y-97350000D03*
X284161638Y-97350000D03*
%TD*%
D20*
%TO.C,D43*%
X217786638Y-54600000D03*
D21*
X217786638Y-56100000D03*
X223236638Y-54600000D03*
X223236638Y-56100000D03*
%TD*%
D14*
%TO.C,SW5*%
X214611638Y-119049999D03*
D15*
X209299046Y-120473504D03*
D14*
X203986454Y-121897009D03*
D16*
X205439988Y-125389822D03*
D37*
X202305559Y-126229689D03*
X213973448Y-125380894D03*
D16*
X210839020Y-126220762D03*
%TD*%
D14*
%TO.C,SW27*%
X264311638Y-79050000D03*
D15*
X258811638Y-79050000D03*
D14*
X253311638Y-79050000D03*
D16*
X253811638Y-82800000D03*
D17*
X250566638Y-82800000D03*
X262056638Y-85000000D03*
D16*
X258811638Y-85000000D03*
%TD*%
D14*
%TO.C,SW11*%
X207311638Y-62450000D03*
D15*
X201811638Y-62450000D03*
D14*
X196311638Y-62450000D03*
D16*
X196811638Y-66200000D03*
D17*
X193566638Y-66200000D03*
X205056638Y-68400000D03*
D16*
X201811638Y-68400000D03*
%TD*%
D34*
%TO.C,D19*%
X242830167Y-103889833D03*
X246130167Y-103889833D03*
%TD*%
D20*
%TO.C,D47*%
X255986638Y-54600000D03*
D21*
X255986638Y-56100000D03*
X261436638Y-54600000D03*
X261436638Y-56100000D03*
%TD*%
D18*
%TO.C,C39*%
X206361638Y-95150000D03*
X208261638Y-95150000D03*
%TD*%
D20*
%TO.C,D54*%
X198586638Y-75900000D03*
D21*
X198586638Y-77400000D03*
X204036638Y-75900000D03*
X204036638Y-77400000D03*
%TD*%
D23*
%TO.C,D33*%
X300260167Y-72612333D03*
X300260167Y-75912333D03*
%TD*%
D18*
%TO.C,C3*%
X234761638Y-112350000D03*
X236661638Y-112350000D03*
%TD*%
D20*
%TO.C,D67*%
X227486638Y-112200000D03*
D21*
X227486638Y-113700000D03*
X232936638Y-112200000D03*
X232936638Y-113700000D03*
%TD*%
D23*
%TO.C,D20*%
X224250167Y-67857333D03*
X224250167Y-71157333D03*
%TD*%
D14*
%TO.C,SW19*%
X245311638Y-95750000D03*
D15*
X239811638Y-95750000D03*
D14*
X234311638Y-95750000D03*
D16*
X234811638Y-99500000D03*
D17*
X231566638Y-99500000D03*
X243056638Y-101700000D03*
D16*
X239811638Y-101700000D03*
%TD*%
D14*
%TO.C,SW34*%
X302311638Y-83850000D03*
D15*
X296811638Y-83850000D03*
D14*
X291311638Y-83850000D03*
D16*
X291811638Y-87600000D03*
D17*
X288566638Y-87600000D03*
X300056638Y-89800000D03*
D16*
X296811638Y-89800000D03*
%TD*%
D23*
%TO.C,D27*%
X262260167Y-86677333D03*
X262260167Y-89977333D03*
%TD*%
D20*
%TO.C,D83*%
X293986638Y-97500000D03*
D21*
X293986638Y-99000000D03*
X299436638Y-97500000D03*
X299436638Y-99000000D03*
%TD*%
D14*
%TO.C,SW41*%
X283311638Y-83850000D03*
D15*
X277811638Y-83850000D03*
D14*
X272311638Y-83850000D03*
D16*
X272811638Y-87600000D03*
D17*
X269566638Y-87600000D03*
X281056638Y-89800000D03*
D16*
X277811638Y-89800000D03*
%TD*%
D14*
%TO.C,SW12*%
X207311638Y-81450000D03*
D15*
X201811638Y-81450000D03*
D14*
X196311638Y-81450000D03*
D16*
X196811638Y-85200000D03*
D17*
X193566638Y-85200000D03*
X205056638Y-87400000D03*
D16*
X201811638Y-87400000D03*
%TD*%
D30*
%TO.C,TP3*%
X168440167Y-62919833D03*
%TD*%
%TO.C,TP1*%
X168550167Y-59339833D03*
%TD*%
D20*
%TO.C,D73*%
X198986638Y-95000000D03*
D21*
X198986638Y-96500000D03*
X204436638Y-95000000D03*
X204436638Y-96500000D03*
%TD*%
D38*
%TO.C,D65*%
X182247187Y-123994914D03*
D39*
X180948148Y-124744914D03*
X184972186Y-128714752D03*
X183673147Y-129464752D03*
%TD*%
D20*
%TO.C,D57*%
X255986638Y-73600000D03*
D21*
X255986638Y-75100000D03*
X261436638Y-73600000D03*
X261436638Y-75100000D03*
%TD*%
D20*
%TO.C,D77*%
X274986638Y-97300000D03*
D21*
X274986638Y-98800000D03*
X280436638Y-97300000D03*
X280436638Y-98800000D03*
%TD*%
D20*
%TO.C,D56*%
X236986638Y-71200000D03*
D21*
X236986638Y-72700000D03*
X242436638Y-71200000D03*
X242436638Y-72700000D03*
%TD*%
D13*
%TO.C,H3*%
X230311638Y-69550000D03*
%TD*%
D14*
%TO.C,SW18*%
X245311638Y-76650000D03*
D15*
X239811638Y-76650000D03*
D14*
X234311638Y-76650000D03*
D16*
X234811638Y-80400000D03*
D17*
X231566638Y-80400000D03*
X243056638Y-82600000D03*
D16*
X239811638Y-82600000D03*
%TD*%
D20*
%TO.C,D48*%
X274986638Y-59300000D03*
D21*
X274986638Y-60800000D03*
X280436638Y-59300000D03*
X280436638Y-60800000D03*
%TD*%
D40*
%TO.C,D66*%
X205673604Y-114520274D03*
D41*
X205285376Y-115969162D03*
X210937900Y-115930838D03*
X210549672Y-117379726D03*
%TD*%
D19*
%TO.C,D3*%
X236612667Y-125919833D03*
X233312667Y-125919833D03*
%TD*%
D18*
%TO.C,C6*%
X227140167Y-92419833D03*
X229040167Y-92419833D03*
%TD*%
%TO.C,C40*%
X282261638Y-78250000D03*
X284161638Y-78250000D03*
%TD*%
D14*
%TO.C,SW1*%
X207311638Y-100450000D03*
D15*
X201811638Y-100450000D03*
D14*
X196311638Y-100450000D03*
D16*
X196811638Y-104200000D03*
D17*
X193566638Y-104200000D03*
X205056638Y-106400000D03*
D16*
X201811638Y-106400000D03*
%TD*%
D14*
%TO.C,SW25*%
X283311638Y-102850000D03*
D15*
X277811638Y-102850000D03*
D14*
X272311638Y-102850000D03*
D16*
X272811638Y-106600000D03*
D17*
X269566638Y-106600000D03*
X281056638Y-108800000D03*
D16*
X277811638Y-108800000D03*
%TD*%
D14*
%TO.C,SW7*%
X184296890Y-119711509D03*
D15*
X187046890Y-124474649D03*
D14*
X189796890Y-129237789D03*
D16*
X192794485Y-126929776D03*
D42*
X194416985Y-129740028D03*
X190577241Y-118689397D03*
D16*
X192199741Y-121499649D03*
%TD*%
D19*
%TO.C,D5*%
X215430167Y-121499833D03*
X212130167Y-121499833D03*
%TD*%
D23*
%TO.C,D18*%
X243326638Y-84690000D03*
X243326638Y-87990000D03*
%TD*%
D14*
%TO.C,SW28*%
X264311638Y-98050000D03*
D15*
X258811638Y-98050000D03*
D14*
X253311638Y-98050000D03*
D16*
X253811638Y-101800000D03*
D17*
X250566638Y-101800000D03*
X262056638Y-104000000D03*
D16*
X258811638Y-104000000D03*
%TD*%
D14*
%TO.C,SW33*%
X302311638Y-64750000D03*
D15*
X296811638Y-64750000D03*
D14*
X291311638Y-64750000D03*
D16*
X291811638Y-68500000D03*
D17*
X288566638Y-68500000D03*
X300056638Y-70700000D03*
D16*
X296811638Y-70700000D03*
%TD*%
D14*
%TO.C,SW35*%
X302311638Y-102950000D03*
D15*
X296811638Y-102950000D03*
D14*
X291311638Y-102950000D03*
D16*
X291811638Y-106700000D03*
D17*
X288566638Y-106700000D03*
X300056638Y-108900000D03*
D16*
X296811638Y-108900000D03*
%TD*%
D19*
%TO.C,D1*%
X194510167Y-109699833D03*
X191210167Y-109699833D03*
%TD*%
D18*
%TO.C,C29*%
X210261638Y-54950000D03*
X212161638Y-54950000D03*
%TD*%
%TO.C,C41*%
X301261638Y-97450000D03*
X303161638Y-97450000D03*
%TD*%
%TO.C,C25*%
X205861638Y-75950000D03*
X207761638Y-75950000D03*
%TD*%
D20*
%TO.C,D53*%
X198986638Y-57000000D03*
D21*
X198986638Y-58500000D03*
X204436638Y-57000000D03*
X204436638Y-58500000D03*
%TD*%
D23*
%TO.C,D36*%
X281300167Y-72467333D03*
X281300167Y-75767333D03*
%TD*%
D20*
%TO.C,D51*%
X293886638Y-59300000D03*
D21*
X293886638Y-60800000D03*
X299336638Y-59300000D03*
X299336638Y-60800000D03*
%TD*%
D43*
%TO.C,D7*%
X182270167Y-117617717D03*
X183920167Y-114759833D03*
%TD*%
D18*
%TO.C,C13*%
X301161638Y-59350000D03*
X303061638Y-59350000D03*
%TD*%
D20*
%TO.C,D74*%
X218061638Y-92600000D03*
D21*
X218061638Y-94100000D03*
X223511638Y-92600000D03*
X223511638Y-94100000D03*
%TD*%
D18*
%TO.C,C27*%
X263261638Y-73650000D03*
X265161638Y-73650000D03*
%TD*%
D23*
%TO.C,D10*%
X224366638Y-105860000D03*
X224366638Y-109160000D03*
%TD*%
D44*
%TO.C,BO1*%
X153554086Y-78976000D03*
X156554086Y-78976000D03*
X153554086Y-78202000D03*
X156554086Y-78202000D03*
X153554086Y-77452000D03*
X156554086Y-77452000D03*
X156554086Y-76702000D03*
X153554086Y-76690000D03*
X153554086Y-75940000D03*
X156554086Y-75940000D03*
%TD*%
%TO.C,BO2*%
X156571638Y-56076000D03*
X153571638Y-56076000D03*
X156571638Y-56850000D03*
X153571638Y-56850000D03*
X156571638Y-57600000D03*
X153571638Y-57600000D03*
X153571638Y-58350000D03*
X156571638Y-58362000D03*
X156571638Y-59112000D03*
X153571638Y-59112000D03*
%TD*%
%TO.C,BO3*%
X156562454Y-65984000D03*
X153562454Y-65984000D03*
X156562454Y-66758000D03*
X153562454Y-66758000D03*
X156562454Y-67508000D03*
X153562454Y-67508000D03*
X153562454Y-68258000D03*
X156562454Y-68270000D03*
X156562454Y-69020000D03*
X153562454Y-69020000D03*
%TD*%
D13*
%TO.C,H2*%
X64231638Y-110900000D03*
%TD*%
%TO.C,H4*%
X80051638Y-69680000D03*
%TD*%
%TO.C,H7*%
X22951638Y-74280000D03*
%TD*%
%TO.C,H11*%
X23001638Y-93460000D03*
%TD*%
D16*
%TO.C,SW2*%
X108551638Y-106530000D03*
D17*
X111796638Y-106530000D03*
X100306638Y-104330000D03*
D16*
X103551638Y-104330000D03*
D14*
X103051638Y-100580000D03*
D15*
X108551638Y-100580000D03*
D14*
X114051638Y-100580000D03*
%TD*%
D16*
%TO.C,SW4*%
X80051638Y-123730000D03*
D17*
X83296638Y-123730000D03*
X71806638Y-121530000D03*
D16*
X75051638Y-121530000D03*
D14*
X74551638Y-117780000D03*
D15*
X80051638Y-117780000D03*
D14*
X85551638Y-117780000D03*
%TD*%
D16*
%TO.C,SW6*%
X99524257Y-126350763D03*
D45*
X102658686Y-127190631D03*
X92129601Y-122091763D03*
D16*
X95264029Y-122931632D03*
D14*
X95751638Y-119180000D03*
D15*
X101064230Y-120603504D03*
D14*
X106376822Y-122027008D03*
%TD*%
D16*
%TO.C,SW8*%
X118163535Y-121629649D03*
D46*
X116541035Y-124439901D03*
X124191291Y-115589270D03*
D16*
X122568791Y-118399522D03*
D14*
X126066386Y-119841509D03*
D15*
X123316386Y-124604649D03*
D14*
X120566386Y-129367789D03*
%TD*%
D16*
%TO.C,SW13*%
X89551638Y-85130000D03*
D17*
X92796638Y-85130000D03*
X81306638Y-82930000D03*
D16*
X84551638Y-82930000D03*
D14*
X84051638Y-79180000D03*
D15*
X89551638Y-79180000D03*
D14*
X95051638Y-79180000D03*
%TD*%
D16*
%TO.C,SW14*%
X89451638Y-104130000D03*
D17*
X92696638Y-104130000D03*
X81206638Y-101930000D03*
D16*
X84451638Y-101930000D03*
D14*
X83951638Y-98180000D03*
D15*
X89451638Y-98180000D03*
D14*
X94951638Y-98180000D03*
%TD*%
D16*
%TO.C,SW15*%
X108551638Y-68530000D03*
D17*
X111796638Y-68530000D03*
X100306638Y-66330000D03*
D16*
X103551638Y-66330000D03*
D14*
X103051638Y-62580000D03*
D15*
X108551638Y-62580000D03*
D14*
X114051638Y-62580000D03*
%TD*%
D16*
%TO.C,SW16*%
X108551638Y-87530000D03*
D17*
X111796638Y-87530000D03*
X100306638Y-85330000D03*
D16*
X103551638Y-85330000D03*
D14*
X103051638Y-81580000D03*
D15*
X108551638Y-81580000D03*
D14*
X114051638Y-81580000D03*
%TD*%
D16*
%TO.C,SW21*%
X70624138Y-63730000D03*
D17*
X73869138Y-63730000D03*
X62379138Y-61530000D03*
D16*
X65624138Y-61530000D03*
D14*
X65124138Y-57780000D03*
D15*
X70624138Y-57780000D03*
D14*
X76124138Y-57780000D03*
%TD*%
D16*
%TO.C,SW22*%
X70551638Y-82730000D03*
D17*
X73796638Y-82730000D03*
X62306638Y-80530000D03*
D16*
X65551638Y-80530000D03*
D14*
X65051638Y-76780000D03*
D15*
X70551638Y-76780000D03*
D14*
X76051638Y-76780000D03*
%TD*%
D16*
%TO.C,SW23*%
X70551638Y-101830000D03*
D17*
X73796638Y-101830000D03*
X62306638Y-99630000D03*
D16*
X65551638Y-99630000D03*
D14*
X65051638Y-95880000D03*
D15*
X70551638Y-95880000D03*
D14*
X76051638Y-95880000D03*
%TD*%
D16*
%TO.C,SW24*%
X89651638Y-66130000D03*
D17*
X92896638Y-66130000D03*
X81406638Y-63930000D03*
D16*
X84651638Y-63930000D03*
D14*
X84151638Y-60180000D03*
D15*
X89651638Y-60180000D03*
D14*
X95151638Y-60180000D03*
%TD*%
D16*
%TO.C,SW29*%
X32551638Y-108930000D03*
D17*
X35796638Y-108930000D03*
X24306638Y-106730000D03*
D16*
X27551638Y-106730000D03*
D14*
X27051638Y-102980000D03*
D15*
X32551638Y-102980000D03*
D14*
X38051638Y-102980000D03*
%TD*%
D16*
%TO.C,SW30*%
X51551638Y-66130000D03*
D17*
X54796638Y-66130000D03*
X43306638Y-63930000D03*
D16*
X46551638Y-63930000D03*
D14*
X46051638Y-60180000D03*
D15*
X51551638Y-60180000D03*
D14*
X57051638Y-60180000D03*
%TD*%
D16*
%TO.C,SW31*%
X51551638Y-85130000D03*
D17*
X54796638Y-85130000D03*
X43306638Y-82930000D03*
D16*
X46551638Y-82930000D03*
D14*
X46051638Y-79180000D03*
D15*
X51551638Y-79180000D03*
D14*
X57051638Y-79180000D03*
%TD*%
D16*
%TO.C,SW32*%
X51551638Y-104130000D03*
D17*
X54796638Y-104130000D03*
X43306638Y-101930000D03*
D16*
X46551638Y-101930001D03*
D14*
X46051639Y-98180000D03*
D15*
X51551638Y-98180000D03*
D14*
X57051637Y-98180000D03*
%TD*%
D16*
%TO.C,SW37*%
X13551638Y-70830000D03*
D17*
X16796638Y-70830000D03*
X5306638Y-68630000D03*
D16*
X8551638Y-68630000D03*
D14*
X8051638Y-64880000D03*
D15*
X13551638Y-64880000D03*
D14*
X19051638Y-64880000D03*
%TD*%
D16*
%TO.C,SW38*%
X13551638Y-89930000D03*
D17*
X16796638Y-89930000D03*
X5306638Y-87730000D03*
D16*
X8551638Y-87730000D03*
D14*
X8051638Y-83980000D03*
D15*
X13551638Y-83980000D03*
D14*
X19051638Y-83980000D03*
%TD*%
D16*
%TO.C,SW39*%
X13551638Y-109030000D03*
D17*
X16796638Y-109030000D03*
X5306638Y-106830000D03*
D16*
X8551638Y-106830000D03*
D14*
X8051638Y-103080000D03*
D15*
X13551638Y-103080000D03*
D14*
X19051638Y-103080000D03*
%TD*%
D16*
%TO.C,SW40*%
X32551638Y-70830000D03*
D17*
X35796638Y-70830000D03*
X24306638Y-68630000D03*
D16*
X27551638Y-68630000D03*
D14*
X27051638Y-64880000D03*
D15*
X32551638Y-64880000D03*
D14*
X38051638Y-64880000D03*
%TD*%
D16*
%TO.C,SW42*%
X32551638Y-89930000D03*
D17*
X35796638Y-89930000D03*
X24306638Y-87730000D03*
D16*
X27551638Y-87730000D03*
D14*
X27051638Y-83980000D03*
D15*
X32551638Y-83980000D03*
D14*
X38051638Y-83980000D03*
%TD*%
D31*
%TO.C,SW44*%
X127026638Y-106680000D03*
X127026638Y-95480000D03*
D30*
X119526638Y-101080000D03*
X119526638Y-103580000D03*
D29*
X119526638Y-98580000D03*
D28*
X134026638Y-103580000D03*
X134026638Y-98580000D03*
%TD*%
D27*
%TO.C,OLED2*%
X128546638Y-89795000D03*
D26*
X126006638Y-89795000D03*
X123466638Y-89795000D03*
X120926638Y-89795000D03*
%TD*%
D25*
%TO.C,PIR2*%
X145051638Y-80620000D03*
X147591638Y-78080000D03*
X145051638Y-75540000D03*
X142511638Y-78080000D03*
%TD*%
D24*
%TO.C,U2*%
X136151638Y-63080000D03*
X136151638Y-59680000D03*
%TD*%
D32*
%TO.C,U4*%
X131951638Y-74700000D03*
D10*
X131951638Y-77240000D03*
X131951638Y-79780000D03*
X131951638Y-82320000D03*
X131951638Y-84860000D03*
X131951638Y-87400000D03*
X131951638Y-89940000D03*
X131951638Y-92480000D03*
X139571638Y-92480000D03*
X139571638Y-89940000D03*
X139571638Y-87400000D03*
X139571638Y-84860000D03*
X139571638Y-82320000D03*
X139571638Y-79780000D03*
X139571638Y-77240000D03*
X139571638Y-74700000D03*
%TD*%
D19*
%TO.C,D21*%
X72501638Y-60180000D03*
X75801638Y-60180000D03*
%TD*%
D18*
%TO.C,C34*%
X62101638Y-54480000D03*
X60201638Y-54480000D03*
%TD*%
D34*
%TO.C,D32*%
X62201638Y-94880000D03*
X58901638Y-94880000D03*
%TD*%
D30*
%TO.C,TP4*%
X139161638Y-59600000D03*
%TD*%
D34*
%TO.C,D4*%
X86451638Y-126480000D03*
X83151638Y-126480000D03*
%TD*%
%TO.C,D40*%
X41201638Y-70780000D03*
X37901638Y-70780000D03*
%TD*%
D18*
%TO.C,C8*%
X85001638Y-92780000D03*
X83101638Y-92780000D03*
%TD*%
D47*
%TO.C,C7*%
X118374362Y-117555000D03*
X116728914Y-116605000D03*
%TD*%
D19*
%TO.C,D38*%
X97301638Y-95780000D03*
X100601638Y-95780000D03*
%TD*%
D18*
%TO.C,C12*%
X9101638Y-78580000D03*
X7201638Y-78580000D03*
%TD*%
%TO.C,C33*%
X47101638Y-73780000D03*
X45201638Y-73780000D03*
%TD*%
%TO.C,C32*%
X28101638Y-97480000D03*
X26201638Y-97480000D03*
%TD*%
D19*
%TO.C,D16*%
X97601638Y-79280000D03*
X100901638Y-79280000D03*
%TD*%
D18*
%TO.C,C31*%
X104501638Y-76080000D03*
X102601638Y-76080000D03*
%TD*%
%TO.C,C20*%
X81101638Y-53079999D03*
X79201638Y-53079999D03*
%TD*%
%TO.C,C4*%
X75601638Y-112480000D03*
X73701638Y-112480000D03*
%TD*%
%TO.C,C23*%
X66101638Y-71380000D03*
X64201638Y-71380000D03*
%TD*%
%TO.C,C45*%
X104001638Y-95280000D03*
X102101638Y-95280000D03*
%TD*%
%TO.C,C35*%
X100101638Y-55080000D03*
X98201638Y-55080000D03*
%TD*%
D34*
%TO.C,D31*%
X43601638Y-104580000D03*
X40301638Y-104580000D03*
%TD*%
%TO.C,D37*%
X43301638Y-80480000D03*
X40001638Y-80480000D03*
%TD*%
D18*
%TO.C,C10*%
X85001638Y-73780000D03*
X83101638Y-73780000D03*
%TD*%
D34*
%TO.C,D30*%
X61851638Y-83380000D03*
X58551638Y-83380000D03*
%TD*%
%TO.C,D13*%
X99001638Y-90480000D03*
X95701638Y-90480000D03*
%TD*%
D18*
%TO.C,C44*%
X47101638Y-92780000D03*
X45201638Y-92780000D03*
%TD*%
D34*
%TO.C,D23*%
X79101638Y-102080000D03*
X75801638Y-102080000D03*
%TD*%
D18*
%TO.C,C43*%
X99976638Y-72580000D03*
X98076638Y-72580000D03*
%TD*%
D36*
%TO.C,D6*%
X91951638Y-111480000D03*
X91951638Y-114780000D03*
%TD*%
D18*
%TO.C,C47*%
X9101638Y-97580000D03*
X7201638Y-97580000D03*
%TD*%
D34*
%TO.C,D29*%
X62401638Y-58580000D03*
X59101638Y-58580000D03*
%TD*%
D22*
%TO.C,C22*%
X97969268Y-114125878D03*
X96134008Y-113634122D03*
%TD*%
D34*
%TO.C,D42*%
X43651638Y-97580000D03*
X40351638Y-97580000D03*
%TD*%
D18*
%TO.C,C19*%
X9201638Y-59480000D03*
X7301638Y-59480000D03*
%TD*%
D34*
%TO.C,D8*%
X117101638Y-106580000D03*
X113801638Y-106580000D03*
%TD*%
D19*
%TO.C,D15*%
X97301638Y-68980000D03*
X100601638Y-68980000D03*
%TD*%
D18*
%TO.C,C21*%
X66101638Y-90480000D03*
X64201638Y-90480000D03*
%TD*%
D34*
%TO.C,D14*%
X98201638Y-101480000D03*
X94901638Y-101480000D03*
%TD*%
%TO.C,D39*%
X29301638Y-111080000D03*
X26001638Y-111080000D03*
%TD*%
D18*
%TO.C,C46*%
X28101638Y-78380000D03*
X26201638Y-78380000D03*
%TD*%
D19*
%TO.C,D2*%
X111201638Y-102980000D03*
X114501638Y-102980000D03*
%TD*%
D30*
%TO.C,TP2*%
X139401638Y-62940000D03*
%TD*%
D19*
%TO.C,D22*%
X63401638Y-84280000D03*
X66701638Y-84280000D03*
%TD*%
D23*
%TO.C,D24*%
X102551638Y-73430000D03*
X102551638Y-70130000D03*
%TD*%
D18*
%TO.C,C2*%
X43051638Y-57380000D03*
X41151638Y-57380000D03*
%TD*%
D48*
%TO.C,D84*%
X10926638Y-97630000D03*
X10926638Y-99130000D03*
X16376638Y-97630000D03*
D49*
X16376638Y-99130000D03*
%TD*%
D48*
%TO.C,D82*%
X29926638Y-97430000D03*
X29926638Y-98930000D03*
X35376638Y-97430000D03*
D49*
X35376638Y-98930000D03*
%TD*%
D48*
%TO.C,D81*%
X48926638Y-92730000D03*
X48926638Y-94230000D03*
X54376638Y-92730000D03*
D49*
X54376638Y-94230000D03*
%TD*%
D48*
%TO.C,D80*%
X67926638Y-90430000D03*
X67926638Y-91930000D03*
X73376638Y-90430000D03*
D49*
X73376638Y-91930000D03*
%TD*%
D48*
%TO.C,D79*%
X86851638Y-92730000D03*
X86851638Y-94230000D03*
X92301638Y-92730000D03*
D49*
X92301638Y-94230000D03*
%TD*%
D48*
%TO.C,D78*%
X105926638Y-95130000D03*
X105926638Y-96630000D03*
X111376638Y-95130000D03*
D49*
X111376638Y-96630000D03*
%TD*%
D48*
%TO.C,D72*%
X77426638Y-112330000D03*
X77426638Y-113830000D03*
X82876638Y-112330000D03*
D49*
X82876638Y-113830000D03*
%TD*%
D50*
%TO.C,D71*%
X99813604Y-114650274D03*
X99425376Y-116099162D03*
X105077900Y-116060838D03*
D51*
X104689672Y-117509726D03*
%TD*%
D52*
%TO.C,D70*%
X129353054Y-125054982D03*
X128054016Y-124304982D03*
X126628054Y-129774820D03*
D53*
X125329016Y-129024820D03*
%TD*%
D48*
%TO.C,D69*%
X10926638Y-78530000D03*
X10926638Y-80030000D03*
X16376638Y-78530000D03*
D49*
X16376638Y-80030000D03*
%TD*%
D48*
%TO.C,D68*%
X29926638Y-78530000D03*
X29926638Y-80030000D03*
X35376638Y-78530000D03*
D49*
X35376638Y-80030000D03*
%TD*%
D48*
%TO.C,D62*%
X48926638Y-73730000D03*
X48926638Y-75230000D03*
X54376638Y-73730000D03*
D49*
X54376638Y-75230000D03*
%TD*%
D48*
%TO.C,D61*%
X67926638Y-71330000D03*
X67926638Y-72830000D03*
X73376638Y-71330000D03*
D49*
X73376638Y-72830000D03*
%TD*%
D48*
%TO.C,D60*%
X86926638Y-73730000D03*
X86926638Y-75230000D03*
X92376638Y-73730000D03*
D49*
X92376638Y-75230000D03*
%TD*%
D48*
%TO.C,D59*%
X106326638Y-76030000D03*
X106326638Y-77530000D03*
X111776638Y-76030000D03*
D49*
X111776638Y-77530000D03*
%TD*%
D48*
%TO.C,D58*%
X105926638Y-57130000D03*
X105926638Y-58630000D03*
X111376638Y-57130000D03*
D49*
X111376638Y-58630000D03*
%TD*%
D48*
%TO.C,D52*%
X11026638Y-59430000D03*
X11026638Y-60930000D03*
X16476638Y-59430000D03*
D49*
X16476638Y-60930000D03*
%TD*%
D48*
%TO.C,D50*%
X29926638Y-59430000D03*
X29926638Y-60930000D03*
X35376638Y-59430000D03*
D49*
X35376638Y-60930000D03*
%TD*%
D48*
%TO.C,D49*%
X48926638Y-54730000D03*
X48926638Y-56230000D03*
X54376638Y-54730000D03*
D49*
X54376638Y-56230000D03*
%TD*%
D48*
%TO.C,D46*%
X68026638Y-52330000D03*
X68026638Y-53830000D03*
X73476638Y-52330000D03*
D49*
X73476638Y-53830000D03*
%TD*%
D48*
%TO.C,D44*%
X87126638Y-54730000D03*
X87126638Y-56230000D03*
X92576638Y-54730000D03*
D49*
X92576638Y-56230000D03*
%TD*%
M02*
