M48
; DRILL file KiCad 10.0.0 date 2026-05-18T21:46:11
; FORMAT={-:-/ absolute / metric / decimal}
; #@! TF.CreationDate,2026-05-18T21:46:11-07:00
; #@! TF.GenerationSoftware,Kicad,Pcbnew,10.0.0
; #@! TF.FileFunction,Plated,1,2,PTH
FMAT,2
METRIC
; #@! TA.AperFunction,Plated,PTH,ViaDrill
T1C0.300
; #@! TA.AperFunction,Plated,PTH,ComponentDrill
T2C0.650
; #@! TA.AperFunction,Plated,PTH,ComponentDrill
T3C0.800
; #@! TA.AperFunction,Plated,PTH,ComponentDrill
T4C1.000
; #@! TA.AperFunction,Plated,PTH,ComponentDrill
T5C1.500
; #@! TA.AperFunction,Plated,PTH,ComponentDrill
T6C2.500
; #@! TA.AperFunction,Plated,PTH,ComponentDrill
T7C3.000
%
G90
G05
T1
X8.852Y-62.28
X9.902Y-86.057
X10.952Y-62.23
X11.052Y-81.88
X11.632Y-107.6
X14.726Y-81.697
X16.852Y-101.28
X17.252Y-62.48
X17.852Y-99.68
X18.552Y-81.38
X19.852Y-79.18
X25.152Y-98.33
X26.022Y-74.97
X26.352Y-99.53
X28.352Y-81.18
X35.952Y-95.58
X37.252Y-98.58
X38.452Y-97.18
X40.152Y-100.98
X40.952Y-58.78
X42.202Y-108.33
X43.352Y-60.03
X44.052Y-60.88
X44.552Y-105.48
X44.952Y-91.155
X45.075Y-77.604
X48.957Y-88.58
X52.374Y-83.144
X55.452Y-94.98
X55.652Y-56.68
X56.052Y-87.98
X57.252Y-54.48
X59.342Y-61.54
X60.052Y-81.98
X65.352Y-72.68
X65.552Y-92.13
X73.93Y-59.41
X74.152Y-94.18
X74.252Y-74.58
X75.252Y-52.28
X76.552Y-92.18
X77.552Y-73.88
X77.652Y-115.78
X78.09Y-105.48
X78.652Y-56.78
X80.352Y-97.48
X86.252Y-69.08
X88.252Y-123.48
X92.852Y-76.18
X93.752Y-52.58
X94.552Y-100.23
X94.802Y-75.78
X94.852Y-114.88
X95.452Y-112.18
X95.752Y-93.78
X95.752Y-96.58
X96.152Y-68.48
X96.252Y-72.78
X97.052Y-54.48
X97.252Y-83.58
X98.252Y-102.88
X99.252Y-57.73
X100.052Y-57.73
X100.116Y-94.167
X100.152Y-90.48
X100.352Y-74.58
X100.703Y-56.53
X100.706Y-97.998
X103.546Y-93.515
X105.052Y-119.48
X111.752Y-97.88
X112.852Y-95.78
X113.352Y-98.38
X114.552Y-83.98
X115.352Y-116.08
X118.226Y-114.354
X118.352Y-86.38
X118.352Y-88.846
X119.696Y-106.154
X127.252Y-53.78
X129.152Y-55.78
X129.852Y-55.18
X130.141Y-56.891
X135.685Y-104.255
X146.612Y-58.07
X146.652Y-66.88
X148.821Y-83.9
X150.532Y-76.076
X160.08Y-58.745
X163.554Y-65.126
X165.24Y-57.55
X172.05Y-94.11
X172.412Y-104.51
X175.3Y-64.29
X176.15Y-81.52
X179.99Y-66.49
X180.01Y-64.3
X180.16Y-56.51
X180.89Y-66.87
X184.89Y-113.51
X185.337Y-115.69
X187.497Y-116.28
X196.133Y-59.603
X197.435Y-72.545
X198.93Y-97.8
X202.09Y-92.9
X206.94Y-73.71
X207.437Y-56.54
X207.65Y-59.603
X208.577Y-96.4
X210.167Y-94.42
X211.38Y-112.47
X212.467Y-92.73
X214.92Y-77.45
X215.24Y-56.28
X216.02Y-113.97
X216.26Y-120.42
X216.439Y-72.053
X222.87Y-90.11
X222.89Y-71.43
X224.962Y-75.101
X225.07Y-113.2
X227.07Y-90.37
X231.4Y-109.65
X233.933Y-112.95
X235.736Y-102.334
X237.41Y-102.86
X237.42Y-104.49
X237.57Y-116.36
X238.79Y-107.07
X243.814Y-107.36
X244.31Y-87.11
X251.21Y-71.07
X251.262Y-58.45
X252.037Y-57.23
X252.28Y-92.79
X254.591Y-53.856
X254.723Y-91.337
X256.42Y-96.79
X262.628Y-91.345
X264.22Y-90.24
X265.59Y-107.97
X265.93Y-105.42
X273.137Y-58.08
X273.711Y-77.776
X275.799Y-95.767
X277.1Y-75.21
X279.323Y-101.183
X281.59Y-79.3
X283.162Y-97.21
X283.33Y-94.86
X283.75Y-95.63
X285.626Y-111.314
X298.227Y-75.89
X298.59Y-57.76
X299.041Y-77.221
X300.37Y-80.87
T2
X142.512Y-78.08
X145.052Y-75.54
X145.052Y-80.62
X147.592Y-78.08
X162.772Y-77.95
X165.312Y-75.41
X165.312Y-80.49
X167.852Y-77.95
T3
X131.952Y-74.7
X131.952Y-77.24
X131.952Y-79.78
X131.952Y-82.32
X131.952Y-84.86
X131.952Y-87.4
X131.952Y-89.94
X131.952Y-92.48
X139.33Y-95.17
X139.33Y-102.79
X139.572Y-74.7
X139.572Y-77.24
X139.572Y-79.78
X139.572Y-82.32
X139.572Y-84.86
X139.572Y-87.4
X139.572Y-89.94
X139.572Y-92.48
X170.745Y-74.55
X170.745Y-77.09
X170.745Y-79.63
X170.745Y-82.17
X170.745Y-84.71
X170.745Y-87.25
X170.745Y-89.79
X170.745Y-92.33
X173.512Y-106.03
X173.512Y-113.65
X178.365Y-74.55
X178.365Y-77.09
X178.365Y-79.63
X178.365Y-82.17
X178.365Y-84.71
X178.365Y-87.25
X178.365Y-89.79
X178.365Y-92.33
T4
X119.527Y-98.58
X119.527Y-101.08
X119.527Y-103.58
X120.927Y-89.795
X123.467Y-89.795
X126.007Y-89.795
X128.547Y-89.795
X134.027Y-98.58
X134.027Y-103.58
X176.625Y-99.06
X176.625Y-101.56
X176.625Y-104.06
X181.935Y-90.655
X184.475Y-90.655
X187.015Y-90.655
X189.555Y-90.655
X191.125Y-99.06
X191.125Y-104.06
T6
X136.152Y-59.68
X136.152Y-63.08
X165.212Y-59.55
X165.212Y-62.95
T7
X8.552Y-68.63
X8.552Y-87.73
X8.552Y-106.83
X13.552Y-70.83
X13.552Y-89.93
X13.552Y-109.03
X27.552Y-68.63
X27.552Y-87.73
X27.552Y-106.73
X32.552Y-70.83
X32.552Y-89.93
X32.552Y-108.93
X46.552Y-63.93
X46.552Y-82.93
X46.552Y-101.93
X51.552Y-66.13
X51.552Y-85.13
X51.552Y-104.13
X65.552Y-80.53
X65.552Y-99.63
X65.624Y-61.53
X70.552Y-82.73
X70.552Y-101.83
X70.624Y-63.73
X75.052Y-121.53
X80.052Y-123.73
X84.452Y-101.93
X84.552Y-82.93
X84.652Y-63.93
X89.452Y-104.13
X89.552Y-85.13
X89.652Y-66.13
X95.264Y-122.932
X99.524Y-126.351
X103.552Y-66.33
X103.552Y-85.33
X103.552Y-104.33
X108.552Y-68.53
X108.552Y-87.53
X108.552Y-106.53
X118.164Y-121.63
X122.569Y-118.4
X192.2Y-121.5
X192.794Y-126.93
X196.812Y-66.2
X196.812Y-85.2
X196.812Y-104.2
X201.812Y-68.4
X201.812Y-87.4
X201.812Y-106.4
X205.44Y-125.39
X210.839Y-126.221
X215.712Y-63.8
X215.812Y-82.8
X215.912Y-101.8
X220.712Y-66.0
X220.812Y-85.0
X220.912Y-104.0
X225.312Y-121.4
X230.312Y-123.6
X234.739Y-61.4
X234.812Y-80.4
X234.812Y-99.5
X239.739Y-63.6
X239.812Y-82.6
X239.812Y-101.7
X253.812Y-63.8
X253.812Y-82.8
X253.812Y-101.8
X258.812Y-66.0
X258.812Y-85.0
X258.812Y-104.0
X272.812Y-68.5
X272.812Y-87.6
X272.812Y-106.6
X277.812Y-70.7
X277.812Y-89.8
X277.812Y-108.8
X291.812Y-68.5
X291.812Y-87.6
X291.812Y-106.7
X296.812Y-70.7
X296.812Y-89.8
X296.812Y-108.9
T5
X126.377Y-95.48G85X127.677Y-95.48
G05
X126.377Y-106.68G85X127.677Y-106.68
G05
X183.475Y-95.96G85X184.775Y-95.96
G05
X183.475Y-107.16G85X184.775Y-107.16
G05
M30
