%TF.GenerationSoftware,KiCad,Pcbnew,10.0.0*%
%TF.CreationDate,2026-05-18T21:46:04-07:00*%
%TF.ProjectId,Chillboard,4368696c-6c62-46f6-9172-642e6b696361,rev?*%
%TF.SameCoordinates,Original*%
%TF.FileFunction,Legend,Top*%
%TF.FilePolarity,Positive*%
%FSLAX46Y46*%
G04 Gerber Fmt 4.6, Leading zero omitted, Abs format (unit mm)*
G04 Created by KiCad (PCBNEW 10.0.0) date 2026-05-18 21:46:04*
%MOMM*%
%LPD*%
G01*
G04 APERTURE LIST*
%ADD10C,0.150000*%
%ADD11C,0.106680*%
%ADD12C,0.118110*%
%ADD13C,0.120000*%
%ADD14C,0.504000*%
%ADD15C,0.100000*%
%ADD16C,0.127000*%
%ADD17C,0.200000*%
%ADD18C,0.040000*%
G04 APERTURE END LIST*
D10*
X176336457Y-110006666D02*
X175860266Y-110339999D01*
X176336457Y-110578094D02*
X175336457Y-110578094D01*
X175336457Y-110578094D02*
X175336457Y-110197142D01*
X175336457Y-110197142D02*
X175384076Y-110101904D01*
X175384076Y-110101904D02*
X175431695Y-110054285D01*
X175431695Y-110054285D02*
X175526933Y-110006666D01*
X175526933Y-110006666D02*
X175669790Y-110006666D01*
X175669790Y-110006666D02*
X175765028Y-110054285D01*
X175765028Y-110054285D02*
X175812647Y-110101904D01*
X175812647Y-110101904D02*
X175860266Y-110197142D01*
X175860266Y-110197142D02*
X175860266Y-110578094D01*
X176336457Y-109054285D02*
X176336457Y-109625713D01*
X176336457Y-109339999D02*
X175336457Y-109339999D01*
X175336457Y-109339999D02*
X175479314Y-109435237D01*
X175479314Y-109435237D02*
X175574552Y-109530475D01*
X175574552Y-109530475D02*
X175622171Y-109625713D01*
X129653501Y-111403243D02*
X129602921Y-110824184D01*
X129158629Y-111117529D02*
X129658629Y-110251504D01*
X129658629Y-110251504D02*
X129988544Y-110441980D01*
X129988544Y-110441980D02*
X130047213Y-110530838D01*
X130047213Y-110530838D02*
X130064642Y-110595887D01*
X130064642Y-110595887D02*
X130058263Y-110702175D01*
X130058263Y-110702175D02*
X129986834Y-110825893D01*
X129986834Y-110825893D02*
X129897976Y-110884562D01*
X129897976Y-110884562D02*
X129832927Y-110901992D01*
X129832927Y-110901992D02*
X129726639Y-110895612D01*
X129726639Y-110895612D02*
X129396724Y-110705136D01*
X130895808Y-110965789D02*
X130730851Y-110870551D01*
X130730851Y-110870551D02*
X130624563Y-110864171D01*
X130624563Y-110864171D02*
X130559514Y-110881601D01*
X130559514Y-110881601D02*
X130405607Y-110957700D01*
X130405607Y-110957700D02*
X130269130Y-111098848D01*
X130269130Y-111098848D02*
X130078653Y-111428762D01*
X130078653Y-111428762D02*
X130072274Y-111535050D01*
X130072274Y-111535050D02*
X130089703Y-111600099D01*
X130089703Y-111600099D02*
X130148372Y-111688958D01*
X130148372Y-111688958D02*
X130313330Y-111784196D01*
X130313330Y-111784196D02*
X130419618Y-111790575D01*
X130419618Y-111790575D02*
X130484667Y-111773146D01*
X130484667Y-111773146D02*
X130573525Y-111714477D01*
X130573525Y-111714477D02*
X130692573Y-111508280D01*
X130692573Y-111508280D02*
X130698952Y-111401992D01*
X130698952Y-111401992D02*
X130681523Y-111336943D01*
X130681523Y-111336943D02*
X130622854Y-111248085D01*
X130622854Y-111248085D02*
X130457896Y-111152847D01*
X130457896Y-111152847D02*
X130351608Y-111146467D01*
X130351608Y-111146467D02*
X130286559Y-111163897D01*
X130286559Y-111163897D02*
X130197701Y-111222566D01*
X110155833Y-112544819D02*
X109822500Y-112068628D01*
X109584405Y-112544819D02*
X109584405Y-111544819D01*
X109584405Y-111544819D02*
X109965357Y-111544819D01*
X109965357Y-111544819D02*
X110060595Y-111592438D01*
X110060595Y-111592438D02*
X110108214Y-111640057D01*
X110108214Y-111640057D02*
X110155833Y-111735295D01*
X110155833Y-111735295D02*
X110155833Y-111878152D01*
X110155833Y-111878152D02*
X110108214Y-111973390D01*
X110108214Y-111973390D02*
X110060595Y-112021009D01*
X110060595Y-112021009D02*
X109965357Y-112068628D01*
X109965357Y-112068628D02*
X109584405Y-112068628D01*
X111012976Y-111878152D02*
X111012976Y-112544819D01*
X110774881Y-111497200D02*
X110536786Y-112211485D01*
X110536786Y-112211485D02*
X111155833Y-112211485D01*
X118128095Y-107964819D02*
X118128095Y-106964819D01*
X118128095Y-107441009D02*
X118699523Y-107441009D01*
X118699523Y-107964819D02*
X118699523Y-106964819D01*
X119128095Y-107060057D02*
X119175714Y-107012438D01*
X119175714Y-107012438D02*
X119270952Y-106964819D01*
X119270952Y-106964819D02*
X119509047Y-106964819D01*
X119509047Y-106964819D02*
X119604285Y-107012438D01*
X119604285Y-107012438D02*
X119651904Y-107060057D01*
X119651904Y-107060057D02*
X119699523Y-107155295D01*
X119699523Y-107155295D02*
X119699523Y-107250533D01*
X119699523Y-107250533D02*
X119651904Y-107393390D01*
X119651904Y-107393390D02*
X119080476Y-107964819D01*
X119080476Y-107964819D02*
X119699523Y-107964819D01*
X286649733Y-71554819D02*
X286649733Y-70554819D01*
X286649733Y-71031009D02*
X287221161Y-71031009D01*
X287221161Y-71554819D02*
X287221161Y-70554819D01*
X288173542Y-70554819D02*
X287697352Y-70554819D01*
X287697352Y-70554819D02*
X287649733Y-71031009D01*
X287649733Y-71031009D02*
X287697352Y-70983390D01*
X287697352Y-70983390D02*
X287792590Y-70935771D01*
X287792590Y-70935771D02*
X288030685Y-70935771D01*
X288030685Y-70935771D02*
X288125923Y-70983390D01*
X288125923Y-70983390D02*
X288173542Y-71031009D01*
X288173542Y-71031009D02*
X288221161Y-71126247D01*
X288221161Y-71126247D02*
X288221161Y-71364342D01*
X288221161Y-71364342D02*
X288173542Y-71459580D01*
X288173542Y-71459580D02*
X288125923Y-71507200D01*
X288125923Y-71507200D02*
X288030685Y-71554819D01*
X288030685Y-71554819D02*
X287792590Y-71554819D01*
X287792590Y-71554819D02*
X287697352Y-71507200D01*
X287697352Y-71507200D02*
X287649733Y-71459580D01*
D11*
X160523088Y-50166391D02*
X160523088Y-50799698D01*
X160523088Y-50799698D02*
X160560342Y-50874204D01*
X160560342Y-50874204D02*
X160597595Y-50911458D01*
X160597595Y-50911458D02*
X160672102Y-50948711D01*
X160672102Y-50948711D02*
X160821115Y-50948711D01*
X160821115Y-50948711D02*
X160895622Y-50911458D01*
X160895622Y-50911458D02*
X160932875Y-50874204D01*
X160932875Y-50874204D02*
X160970128Y-50799698D01*
X160970128Y-50799698D02*
X160970128Y-50166391D01*
X161752448Y-50948711D02*
X161305408Y-50948711D01*
X161528928Y-50948711D02*
X161528928Y-50166391D01*
X161528928Y-50166391D02*
X161454421Y-50278151D01*
X161454421Y-50278151D02*
X161379915Y-50352658D01*
X161379915Y-50352658D02*
X161305408Y-50389911D01*
D10*
X164181755Y-71758614D02*
X164181755Y-71128693D01*
X164181755Y-71128693D02*
X164421725Y-71128693D01*
X164421725Y-71128693D02*
X164481717Y-71158689D01*
X164481717Y-71158689D02*
X164511713Y-71188685D01*
X164511713Y-71188685D02*
X164541710Y-71248678D01*
X164541710Y-71248678D02*
X164541710Y-71338666D01*
X164541710Y-71338666D02*
X164511713Y-71398659D01*
X164511713Y-71398659D02*
X164481717Y-71428655D01*
X164481717Y-71428655D02*
X164421725Y-71458651D01*
X164421725Y-71458651D02*
X164181755Y-71458651D01*
X164811676Y-71758614D02*
X164811676Y-71128693D01*
X165471593Y-71758614D02*
X165261619Y-71458651D01*
X165111638Y-71758614D02*
X165111638Y-71128693D01*
X165111638Y-71128693D02*
X165351608Y-71128693D01*
X165351608Y-71128693D02*
X165411600Y-71158689D01*
X165411600Y-71158689D02*
X165441596Y-71188685D01*
X165441596Y-71188685D02*
X165471593Y-71248678D01*
X165471593Y-71248678D02*
X165471593Y-71338666D01*
X165471593Y-71338666D02*
X165441596Y-71398659D01*
X165441596Y-71398659D02*
X165411600Y-71428655D01*
X165411600Y-71428655D02*
X165351608Y-71458651D01*
X165351608Y-71458651D02*
X165111638Y-71458651D01*
X166071517Y-71758614D02*
X165711562Y-71758614D01*
X165891540Y-71758614D02*
X165891540Y-71128693D01*
X165891540Y-71128693D02*
X165831547Y-71218681D01*
X165831547Y-71218681D02*
X165771555Y-71278674D01*
X165771555Y-71278674D02*
X165711562Y-71308670D01*
D12*
X168436666Y-77269978D02*
X168526655Y-77269978D01*
X168526655Y-77269978D02*
X168571649Y-77292475D01*
X168571649Y-77292475D02*
X168616644Y-77337469D01*
X168616644Y-77337469D02*
X168639141Y-77427458D01*
X168639141Y-77427458D02*
X168639141Y-77584938D01*
X168639141Y-77584938D02*
X168616644Y-77674927D01*
X168616644Y-77674927D02*
X168571649Y-77719922D01*
X168571649Y-77719922D02*
X168526655Y-77742419D01*
X168526655Y-77742419D02*
X168436666Y-77742419D01*
X168436666Y-77742419D02*
X168391672Y-77719922D01*
X168391672Y-77719922D02*
X168346677Y-77674927D01*
X168346677Y-77674927D02*
X168324180Y-77584938D01*
X168324180Y-77584938D02*
X168324180Y-77427458D01*
X168324180Y-77427458D02*
X168346677Y-77337469D01*
X168346677Y-77337469D02*
X168391672Y-77292475D01*
X168391672Y-77292475D02*
X168436666Y-77269978D01*
X168774124Y-77269978D02*
X169044090Y-77269978D01*
X168909107Y-77742419D02*
X168909107Y-77269978D01*
X163921717Y-74299978D02*
X164079197Y-74772419D01*
X164079197Y-74772419D02*
X164236678Y-74299978D01*
X164664124Y-74727424D02*
X164641627Y-74749922D01*
X164641627Y-74749922D02*
X164574135Y-74772419D01*
X164574135Y-74772419D02*
X164529141Y-74772419D01*
X164529141Y-74772419D02*
X164461649Y-74749922D01*
X164461649Y-74749922D02*
X164416655Y-74704927D01*
X164416655Y-74704927D02*
X164394157Y-74659933D01*
X164394157Y-74659933D02*
X164371660Y-74569944D01*
X164371660Y-74569944D02*
X164371660Y-74502452D01*
X164371660Y-74502452D02*
X164394157Y-74412464D01*
X164394157Y-74412464D02*
X164416655Y-74367469D01*
X164416655Y-74367469D02*
X164461649Y-74322475D01*
X164461649Y-74322475D02*
X164529141Y-74299978D01*
X164529141Y-74299978D02*
X164574135Y-74299978D01*
X164574135Y-74299978D02*
X164641627Y-74322475D01*
X164641627Y-74322475D02*
X164664124Y-74344972D01*
X165136565Y-74727424D02*
X165114068Y-74749922D01*
X165114068Y-74749922D02*
X165046576Y-74772419D01*
X165046576Y-74772419D02*
X165001582Y-74772419D01*
X165001582Y-74772419D02*
X164934090Y-74749922D01*
X164934090Y-74749922D02*
X164889096Y-74704927D01*
X164889096Y-74704927D02*
X164866598Y-74659933D01*
X164866598Y-74659933D02*
X164844101Y-74569944D01*
X164844101Y-74569944D02*
X164844101Y-74502452D01*
X164844101Y-74502452D02*
X164866598Y-74412464D01*
X164866598Y-74412464D02*
X164889096Y-74367469D01*
X164889096Y-74367469D02*
X164934090Y-74322475D01*
X164934090Y-74322475D02*
X165001582Y-74299978D01*
X165001582Y-74299978D02*
X165046576Y-74299978D01*
X165046576Y-74299978D02*
X165114068Y-74322475D01*
X165114068Y-74322475D02*
X165136565Y-74344972D01*
X164131683Y-81622475D02*
X164086688Y-81599978D01*
X164086688Y-81599978D02*
X164019197Y-81599978D01*
X164019197Y-81599978D02*
X163951705Y-81622475D01*
X163951705Y-81622475D02*
X163906711Y-81667469D01*
X163906711Y-81667469D02*
X163884213Y-81712464D01*
X163884213Y-81712464D02*
X163861716Y-81802452D01*
X163861716Y-81802452D02*
X163861716Y-81869944D01*
X163861716Y-81869944D02*
X163884213Y-81959933D01*
X163884213Y-81959933D02*
X163906711Y-82004927D01*
X163906711Y-82004927D02*
X163951705Y-82049922D01*
X163951705Y-82049922D02*
X164019197Y-82072419D01*
X164019197Y-82072419D02*
X164064191Y-82072419D01*
X164064191Y-82072419D02*
X164131683Y-82049922D01*
X164131683Y-82049922D02*
X164154180Y-82027424D01*
X164154180Y-82027424D02*
X164154180Y-81869944D01*
X164154180Y-81869944D02*
X164064191Y-81869944D01*
X164356654Y-82072419D02*
X164356654Y-81599978D01*
X164356654Y-81599978D02*
X164626621Y-82072419D01*
X164626621Y-82072419D02*
X164626621Y-81599978D01*
X164851592Y-82072419D02*
X164851592Y-81599978D01*
X164851592Y-81599978D02*
X164964078Y-81599978D01*
X164964078Y-81599978D02*
X165031570Y-81622475D01*
X165031570Y-81622475D02*
X165076564Y-81667469D01*
X165076564Y-81667469D02*
X165099062Y-81712464D01*
X165099062Y-81712464D02*
X165121559Y-81802452D01*
X165121559Y-81802452D02*
X165121559Y-81869944D01*
X165121559Y-81869944D02*
X165099062Y-81959933D01*
X165099062Y-81959933D02*
X165076564Y-82004927D01*
X165076564Y-82004927D02*
X165031570Y-82049922D01*
X165031570Y-82049922D02*
X164964078Y-82072419D01*
X164964078Y-82072419D02*
X164851592Y-82072419D01*
X161132920Y-77472419D02*
X160975439Y-77247447D01*
X160862953Y-77472419D02*
X160862953Y-76999978D01*
X160862953Y-76999978D02*
X161042931Y-76999978D01*
X161042931Y-76999978D02*
X161087925Y-77022475D01*
X161087925Y-77022475D02*
X161110423Y-77044972D01*
X161110423Y-77044972D02*
X161132920Y-77089966D01*
X161132920Y-77089966D02*
X161132920Y-77157458D01*
X161132920Y-77157458D02*
X161110423Y-77202452D01*
X161110423Y-77202452D02*
X161087925Y-77224950D01*
X161087925Y-77224950D02*
X161042931Y-77247447D01*
X161042931Y-77247447D02*
X160862953Y-77247447D01*
X161335394Y-77224950D02*
X161492875Y-77224950D01*
X161560366Y-77472419D02*
X161335394Y-77472419D01*
X161335394Y-77472419D02*
X161335394Y-76999978D01*
X161335394Y-76999978D02*
X161560366Y-76999978D01*
X161987813Y-77472419D02*
X161762841Y-77472419D01*
X161762841Y-77472419D02*
X161762841Y-76999978D01*
D10*
X183906595Y-55509652D02*
X184097071Y-55509652D01*
X184097071Y-55509652D02*
X184192309Y-55557271D01*
X184192309Y-55557271D02*
X184287547Y-55652509D01*
X184287547Y-55652509D02*
X184335166Y-55842985D01*
X184335166Y-55842985D02*
X184335166Y-56176318D01*
X184335166Y-56176318D02*
X184287547Y-56366794D01*
X184287547Y-56366794D02*
X184192309Y-56462033D01*
X184192309Y-56462033D02*
X184097071Y-56509652D01*
X184097071Y-56509652D02*
X183906595Y-56509652D01*
X183906595Y-56509652D02*
X183811357Y-56462033D01*
X183811357Y-56462033D02*
X183716119Y-56366794D01*
X183716119Y-56366794D02*
X183668500Y-56176318D01*
X183668500Y-56176318D02*
X183668500Y-55842985D01*
X183668500Y-55842985D02*
X183716119Y-55652509D01*
X183716119Y-55652509D02*
X183811357Y-55557271D01*
X183811357Y-55557271D02*
X183906595Y-55509652D01*
X185239928Y-56509652D02*
X184763738Y-56509652D01*
X184763738Y-56509652D02*
X184763738Y-55509652D01*
X185573262Y-55985842D02*
X185906595Y-55985842D01*
X186049452Y-56509652D02*
X185573262Y-56509652D01*
X185573262Y-56509652D02*
X185573262Y-55509652D01*
X185573262Y-55509652D02*
X186049452Y-55509652D01*
X186478024Y-56509652D02*
X186478024Y-55509652D01*
X186478024Y-55509652D02*
X186716119Y-55509652D01*
X186716119Y-55509652D02*
X186858976Y-55557271D01*
X186858976Y-55557271D02*
X186954214Y-55652509D01*
X186954214Y-55652509D02*
X187001833Y-55747747D01*
X187001833Y-55747747D02*
X187049452Y-55938223D01*
X187049452Y-55938223D02*
X187049452Y-56081080D01*
X187049452Y-56081080D02*
X187001833Y-56271556D01*
X187001833Y-56271556D02*
X186954214Y-56366794D01*
X186954214Y-56366794D02*
X186858976Y-56462033D01*
X186858976Y-56462033D02*
X186716119Y-56509652D01*
X186716119Y-56509652D02*
X186478024Y-56509652D01*
X188001833Y-56509652D02*
X187430405Y-56509652D01*
X187716119Y-56509652D02*
X187716119Y-55509652D01*
X187716119Y-55509652D02*
X187620881Y-55652509D01*
X187620881Y-55652509D02*
X187525643Y-55747747D01*
X187525643Y-55747747D02*
X187430405Y-55795366D01*
X188983738Y-88279711D02*
X188912310Y-88243997D01*
X188912310Y-88243997D02*
X188805167Y-88243997D01*
X188805167Y-88243997D02*
X188698024Y-88279711D01*
X188698024Y-88279711D02*
X188626595Y-88351140D01*
X188626595Y-88351140D02*
X188590881Y-88422568D01*
X188590881Y-88422568D02*
X188555167Y-88565425D01*
X188555167Y-88565425D02*
X188555167Y-88672568D01*
X188555167Y-88672568D02*
X188590881Y-88815425D01*
X188590881Y-88815425D02*
X188626595Y-88886854D01*
X188626595Y-88886854D02*
X188698024Y-88958283D01*
X188698024Y-88958283D02*
X188805167Y-88993997D01*
X188805167Y-88993997D02*
X188876595Y-88993997D01*
X188876595Y-88993997D02*
X188983738Y-88958283D01*
X188983738Y-88958283D02*
X189019452Y-88922568D01*
X189019452Y-88922568D02*
X189019452Y-88672568D01*
X189019452Y-88672568D02*
X188876595Y-88672568D01*
X189340881Y-88993997D02*
X189340881Y-88243997D01*
X189340881Y-88243997D02*
X189769452Y-88993997D01*
X189769452Y-88993997D02*
X189769452Y-88243997D01*
X190126595Y-88993997D02*
X190126595Y-88243997D01*
X190126595Y-88243997D02*
X190305166Y-88243997D01*
X190305166Y-88243997D02*
X190412309Y-88279711D01*
X190412309Y-88279711D02*
X190483738Y-88351140D01*
X190483738Y-88351140D02*
X190519452Y-88422568D01*
X190519452Y-88422568D02*
X190555166Y-88565425D01*
X190555166Y-88565425D02*
X190555166Y-88672568D01*
X190555166Y-88672568D02*
X190519452Y-88815425D01*
X190519452Y-88815425D02*
X190483738Y-88886854D01*
X190483738Y-88886854D02*
X190412309Y-88958283D01*
X190412309Y-88958283D02*
X190305166Y-88993997D01*
X190305166Y-88993997D02*
X190126595Y-88993997D01*
X186015167Y-88243997D02*
X186265167Y-88993997D01*
X186265167Y-88993997D02*
X186515167Y-88243997D01*
X187193738Y-88922568D02*
X187158024Y-88958283D01*
X187158024Y-88958283D02*
X187050881Y-88993997D01*
X187050881Y-88993997D02*
X186979453Y-88993997D01*
X186979453Y-88993997D02*
X186872310Y-88958283D01*
X186872310Y-88958283D02*
X186800881Y-88886854D01*
X186800881Y-88886854D02*
X186765167Y-88815425D01*
X186765167Y-88815425D02*
X186729453Y-88672568D01*
X186729453Y-88672568D02*
X186729453Y-88565425D01*
X186729453Y-88565425D02*
X186765167Y-88422568D01*
X186765167Y-88422568D02*
X186800881Y-88351140D01*
X186800881Y-88351140D02*
X186872310Y-88279711D01*
X186872310Y-88279711D02*
X186979453Y-88243997D01*
X186979453Y-88243997D02*
X187050881Y-88243997D01*
X187050881Y-88243997D02*
X187158024Y-88279711D01*
X187158024Y-88279711D02*
X187193738Y-88315425D01*
X187943738Y-88922568D02*
X187908024Y-88958283D01*
X187908024Y-88958283D02*
X187800881Y-88993997D01*
X187800881Y-88993997D02*
X187729453Y-88993997D01*
X187729453Y-88993997D02*
X187622310Y-88958283D01*
X187622310Y-88958283D02*
X187550881Y-88886854D01*
X187550881Y-88886854D02*
X187515167Y-88815425D01*
X187515167Y-88815425D02*
X187479453Y-88672568D01*
X187479453Y-88672568D02*
X187479453Y-88565425D01*
X187479453Y-88565425D02*
X187515167Y-88422568D01*
X187515167Y-88422568D02*
X187550881Y-88351140D01*
X187550881Y-88351140D02*
X187622310Y-88279711D01*
X187622310Y-88279711D02*
X187729453Y-88243997D01*
X187729453Y-88243997D02*
X187800881Y-88243997D01*
X187800881Y-88243997D02*
X187908024Y-88279711D01*
X187908024Y-88279711D02*
X187943738Y-88315425D01*
X185199986Y-77083404D02*
X185199986Y-76892928D01*
X185199986Y-76892928D02*
X185247605Y-76797690D01*
X185247605Y-76797690D02*
X185342843Y-76702452D01*
X185342843Y-76702452D02*
X185533319Y-76654833D01*
X185533319Y-76654833D02*
X185866652Y-76654833D01*
X185866652Y-76654833D02*
X186057128Y-76702452D01*
X186057128Y-76702452D02*
X186152367Y-76797690D01*
X186152367Y-76797690D02*
X186199986Y-76892928D01*
X186199986Y-76892928D02*
X186199986Y-77083404D01*
X186199986Y-77083404D02*
X186152367Y-77178642D01*
X186152367Y-77178642D02*
X186057128Y-77273880D01*
X186057128Y-77273880D02*
X185866652Y-77321499D01*
X185866652Y-77321499D02*
X185533319Y-77321499D01*
X185533319Y-77321499D02*
X185342843Y-77273880D01*
X185342843Y-77273880D02*
X185247605Y-77178642D01*
X185247605Y-77178642D02*
X185199986Y-77083404D01*
X186199986Y-75750071D02*
X186199986Y-76226261D01*
X186199986Y-76226261D02*
X185199986Y-76226261D01*
X185676176Y-75416737D02*
X185676176Y-75083404D01*
X186199986Y-74940547D02*
X186199986Y-75416737D01*
X186199986Y-75416737D02*
X185199986Y-75416737D01*
X185199986Y-75416737D02*
X185199986Y-74940547D01*
X186199986Y-74511975D02*
X185199986Y-74511975D01*
X185199986Y-74511975D02*
X185199986Y-74273880D01*
X185199986Y-74273880D02*
X185247605Y-74131023D01*
X185247605Y-74131023D02*
X185342843Y-74035785D01*
X185342843Y-74035785D02*
X185438081Y-73988166D01*
X185438081Y-73988166D02*
X185628557Y-73940547D01*
X185628557Y-73940547D02*
X185771414Y-73940547D01*
X185771414Y-73940547D02*
X185961890Y-73988166D01*
X185961890Y-73988166D02*
X186057128Y-74035785D01*
X186057128Y-74035785D02*
X186152367Y-74131023D01*
X186152367Y-74131023D02*
X186199986Y-74273880D01*
X186199986Y-74273880D02*
X186199986Y-74511975D01*
X186199986Y-72750070D02*
X185199986Y-72750070D01*
X185199986Y-72750070D02*
X185199986Y-72369118D01*
X185199986Y-72369118D02*
X185247605Y-72273880D01*
X185247605Y-72273880D02*
X185295224Y-72226261D01*
X185295224Y-72226261D02*
X185390462Y-72178642D01*
X185390462Y-72178642D02*
X185533319Y-72178642D01*
X185533319Y-72178642D02*
X185628557Y-72226261D01*
X185628557Y-72226261D02*
X185676176Y-72273880D01*
X185676176Y-72273880D02*
X185723795Y-72369118D01*
X185723795Y-72369118D02*
X185723795Y-72750070D01*
X186199986Y-71321499D02*
X185676176Y-71321499D01*
X185676176Y-71321499D02*
X185580938Y-71369118D01*
X185580938Y-71369118D02*
X185533319Y-71464356D01*
X185533319Y-71464356D02*
X185533319Y-71654832D01*
X185533319Y-71654832D02*
X185580938Y-71750070D01*
X186152367Y-71321499D02*
X186199986Y-71416737D01*
X186199986Y-71416737D02*
X186199986Y-71654832D01*
X186199986Y-71654832D02*
X186152367Y-71750070D01*
X186152367Y-71750070D02*
X186057128Y-71797689D01*
X186057128Y-71797689D02*
X185961890Y-71797689D01*
X185961890Y-71797689D02*
X185866652Y-71750070D01*
X185866652Y-71750070D02*
X185819033Y-71654832D01*
X185819033Y-71654832D02*
X185819033Y-71416737D01*
X185819033Y-71416737D02*
X185771414Y-71321499D01*
X185533319Y-70845308D02*
X186199986Y-70845308D01*
X185628557Y-70845308D02*
X185580938Y-70797689D01*
X185580938Y-70797689D02*
X185533319Y-70702451D01*
X185533319Y-70702451D02*
X185533319Y-70559594D01*
X185533319Y-70559594D02*
X185580938Y-70464356D01*
X185580938Y-70464356D02*
X185676176Y-70416737D01*
X185676176Y-70416737D02*
X186199986Y-70416737D01*
X186152367Y-69559594D02*
X186199986Y-69654832D01*
X186199986Y-69654832D02*
X186199986Y-69845308D01*
X186199986Y-69845308D02*
X186152367Y-69940546D01*
X186152367Y-69940546D02*
X186057128Y-69988165D01*
X186057128Y-69988165D02*
X185676176Y-69988165D01*
X185676176Y-69988165D02*
X185580938Y-69940546D01*
X185580938Y-69940546D02*
X185533319Y-69845308D01*
X185533319Y-69845308D02*
X185533319Y-69654832D01*
X185533319Y-69654832D02*
X185580938Y-69559594D01*
X185580938Y-69559594D02*
X185676176Y-69511975D01*
X185676176Y-69511975D02*
X185771414Y-69511975D01*
X185771414Y-69511975D02*
X185866652Y-69988165D01*
X186199986Y-68940546D02*
X186152367Y-69035784D01*
X186152367Y-69035784D02*
X186057128Y-69083403D01*
X186057128Y-69083403D02*
X185199986Y-69083403D01*
X183582310Y-88958283D02*
X183689453Y-88993997D01*
X183689453Y-88993997D02*
X183868024Y-88993997D01*
X183868024Y-88993997D02*
X183939453Y-88958283D01*
X183939453Y-88958283D02*
X183975167Y-88922568D01*
X183975167Y-88922568D02*
X184010881Y-88851140D01*
X184010881Y-88851140D02*
X184010881Y-88779711D01*
X184010881Y-88779711D02*
X183975167Y-88708283D01*
X183975167Y-88708283D02*
X183939453Y-88672568D01*
X183939453Y-88672568D02*
X183868024Y-88636854D01*
X183868024Y-88636854D02*
X183725167Y-88601140D01*
X183725167Y-88601140D02*
X183653738Y-88565425D01*
X183653738Y-88565425D02*
X183618024Y-88529711D01*
X183618024Y-88529711D02*
X183582310Y-88458283D01*
X183582310Y-88458283D02*
X183582310Y-88386854D01*
X183582310Y-88386854D02*
X183618024Y-88315425D01*
X183618024Y-88315425D02*
X183653738Y-88279711D01*
X183653738Y-88279711D02*
X183725167Y-88243997D01*
X183725167Y-88243997D02*
X183903738Y-88243997D01*
X183903738Y-88243997D02*
X184010881Y-88279711D01*
X184760881Y-88922568D02*
X184725167Y-88958283D01*
X184725167Y-88958283D02*
X184618024Y-88993997D01*
X184618024Y-88993997D02*
X184546596Y-88993997D01*
X184546596Y-88993997D02*
X184439453Y-88958283D01*
X184439453Y-88958283D02*
X184368024Y-88886854D01*
X184368024Y-88886854D02*
X184332310Y-88815425D01*
X184332310Y-88815425D02*
X184296596Y-88672568D01*
X184296596Y-88672568D02*
X184296596Y-88565425D01*
X184296596Y-88565425D02*
X184332310Y-88422568D01*
X184332310Y-88422568D02*
X184368024Y-88351140D01*
X184368024Y-88351140D02*
X184439453Y-88279711D01*
X184439453Y-88279711D02*
X184546596Y-88243997D01*
X184546596Y-88243997D02*
X184618024Y-88243997D01*
X184618024Y-88243997D02*
X184725167Y-88279711D01*
X184725167Y-88279711D02*
X184760881Y-88315425D01*
X185439453Y-88993997D02*
X185082310Y-88993997D01*
X185082310Y-88993997D02*
X185082310Y-88243997D01*
X181024453Y-88958283D02*
X181131596Y-88993997D01*
X181131596Y-88993997D02*
X181310167Y-88993997D01*
X181310167Y-88993997D02*
X181381596Y-88958283D01*
X181381596Y-88958283D02*
X181417310Y-88922568D01*
X181417310Y-88922568D02*
X181453024Y-88851140D01*
X181453024Y-88851140D02*
X181453024Y-88779711D01*
X181453024Y-88779711D02*
X181417310Y-88708283D01*
X181417310Y-88708283D02*
X181381596Y-88672568D01*
X181381596Y-88672568D02*
X181310167Y-88636854D01*
X181310167Y-88636854D02*
X181167310Y-88601140D01*
X181167310Y-88601140D02*
X181095881Y-88565425D01*
X181095881Y-88565425D02*
X181060167Y-88529711D01*
X181060167Y-88529711D02*
X181024453Y-88458283D01*
X181024453Y-88458283D02*
X181024453Y-88386854D01*
X181024453Y-88386854D02*
X181060167Y-88315425D01*
X181060167Y-88315425D02*
X181095881Y-88279711D01*
X181095881Y-88279711D02*
X181167310Y-88243997D01*
X181167310Y-88243997D02*
X181345881Y-88243997D01*
X181345881Y-88243997D02*
X181453024Y-88279711D01*
X181774453Y-88993997D02*
X181774453Y-88243997D01*
X181774453Y-88243997D02*
X181953024Y-88243997D01*
X181953024Y-88243997D02*
X182060167Y-88279711D01*
X182060167Y-88279711D02*
X182131596Y-88351140D01*
X182131596Y-88351140D02*
X182167310Y-88422568D01*
X182167310Y-88422568D02*
X182203024Y-88565425D01*
X182203024Y-88565425D02*
X182203024Y-88672568D01*
X182203024Y-88672568D02*
X182167310Y-88815425D01*
X182167310Y-88815425D02*
X182131596Y-88886854D01*
X182131596Y-88886854D02*
X182060167Y-88958283D01*
X182060167Y-88958283D02*
X181953024Y-88993997D01*
X181953024Y-88993997D02*
X181774453Y-88993997D01*
X182488739Y-88779711D02*
X182845882Y-88779711D01*
X182417310Y-88993997D02*
X182667310Y-88243997D01*
X182667310Y-88243997D02*
X182917310Y-88993997D01*
X286504733Y-90764819D02*
X286504733Y-89764819D01*
X286504733Y-90241009D02*
X287076161Y-90241009D01*
X287076161Y-90764819D02*
X287076161Y-89764819D01*
X288076161Y-90764819D02*
X287504733Y-90764819D01*
X287790447Y-90764819D02*
X287790447Y-89764819D01*
X287790447Y-89764819D02*
X287695209Y-89907676D01*
X287695209Y-89907676D02*
X287599971Y-90002914D01*
X287599971Y-90002914D02*
X287504733Y-90050533D01*
X247694733Y-107744819D02*
X247694733Y-106744819D01*
X247694733Y-107221009D02*
X248266161Y-107221009D01*
X248266161Y-107744819D02*
X248266161Y-106744819D01*
X248789971Y-107744819D02*
X248980447Y-107744819D01*
X248980447Y-107744819D02*
X249075685Y-107697200D01*
X249075685Y-107697200D02*
X249123304Y-107649580D01*
X249123304Y-107649580D02*
X249218542Y-107506723D01*
X249218542Y-107506723D02*
X249266161Y-107316247D01*
X249266161Y-107316247D02*
X249266161Y-106935295D01*
X249266161Y-106935295D02*
X249218542Y-106840057D01*
X249218542Y-106840057D02*
X249170923Y-106792438D01*
X249170923Y-106792438D02*
X249075685Y-106744819D01*
X249075685Y-106744819D02*
X248885209Y-106744819D01*
X248885209Y-106744819D02*
X248789971Y-106792438D01*
X248789971Y-106792438D02*
X248742352Y-106840057D01*
X248742352Y-106840057D02*
X248694733Y-106935295D01*
X248694733Y-106935295D02*
X248694733Y-107173390D01*
X248694733Y-107173390D02*
X248742352Y-107268628D01*
X248742352Y-107268628D02*
X248789971Y-107316247D01*
X248789971Y-107316247D02*
X248885209Y-107363866D01*
X248885209Y-107363866D02*
X249075685Y-107363866D01*
X249075685Y-107363866D02*
X249170923Y-107316247D01*
X249170923Y-107316247D02*
X249218542Y-107268628D01*
X249218542Y-107268628D02*
X249266161Y-107173390D01*
X165730643Y-131212033D02*
X165873500Y-131259652D01*
X165873500Y-131259652D02*
X166111595Y-131259652D01*
X166111595Y-131259652D02*
X166206833Y-131212033D01*
X166206833Y-131212033D02*
X166254452Y-131164413D01*
X166254452Y-131164413D02*
X166302071Y-131069175D01*
X166302071Y-131069175D02*
X166302071Y-130973937D01*
X166302071Y-130973937D02*
X166254452Y-130878699D01*
X166254452Y-130878699D02*
X166206833Y-130831080D01*
X166206833Y-130831080D02*
X166111595Y-130783461D01*
X166111595Y-130783461D02*
X165921119Y-130735842D01*
X165921119Y-130735842D02*
X165825881Y-130688223D01*
X165825881Y-130688223D02*
X165778262Y-130640604D01*
X165778262Y-130640604D02*
X165730643Y-130545366D01*
X165730643Y-130545366D02*
X165730643Y-130450128D01*
X165730643Y-130450128D02*
X165778262Y-130354890D01*
X165778262Y-130354890D02*
X165825881Y-130307271D01*
X165825881Y-130307271D02*
X165921119Y-130259652D01*
X165921119Y-130259652D02*
X166159214Y-130259652D01*
X166159214Y-130259652D02*
X166302071Y-130307271D01*
X166635405Y-130259652D02*
X166873500Y-131259652D01*
X166873500Y-131259652D02*
X167063976Y-130545366D01*
X167063976Y-130545366D02*
X167254452Y-131259652D01*
X167254452Y-131259652D02*
X167492548Y-130259652D01*
X168302071Y-130592985D02*
X168302071Y-131259652D01*
X168063976Y-130212033D02*
X167825881Y-130926318D01*
X167825881Y-130926318D02*
X168444928Y-130926318D01*
X168730643Y-130259652D02*
X169349690Y-130259652D01*
X169349690Y-130259652D02*
X169016357Y-130640604D01*
X169016357Y-130640604D02*
X169159214Y-130640604D01*
X169159214Y-130640604D02*
X169254452Y-130688223D01*
X169254452Y-130688223D02*
X169302071Y-130735842D01*
X169302071Y-130735842D02*
X169349690Y-130831080D01*
X169349690Y-130831080D02*
X169349690Y-131069175D01*
X169349690Y-131069175D02*
X169302071Y-131164413D01*
X169302071Y-131164413D02*
X169254452Y-131212033D01*
X169254452Y-131212033D02*
X169159214Y-131259652D01*
X169159214Y-131259652D02*
X168873500Y-131259652D01*
X168873500Y-131259652D02*
X168778262Y-131212033D01*
X168778262Y-131212033D02*
X168730643Y-131164413D01*
X173793262Y-71674652D02*
X173793262Y-72484175D01*
X173793262Y-72484175D02*
X173840881Y-72579413D01*
X173840881Y-72579413D02*
X173888500Y-72627033D01*
X173888500Y-72627033D02*
X173983738Y-72674652D01*
X173983738Y-72674652D02*
X174174214Y-72674652D01*
X174174214Y-72674652D02*
X174269452Y-72627033D01*
X174269452Y-72627033D02*
X174317071Y-72579413D01*
X174317071Y-72579413D02*
X174364690Y-72484175D01*
X174364690Y-72484175D02*
X174364690Y-71674652D01*
X174745643Y-71674652D02*
X175364690Y-71674652D01*
X175364690Y-71674652D02*
X175031357Y-72055604D01*
X175031357Y-72055604D02*
X175174214Y-72055604D01*
X175174214Y-72055604D02*
X175269452Y-72103223D01*
X175269452Y-72103223D02*
X175317071Y-72150842D01*
X175317071Y-72150842D02*
X175364690Y-72246080D01*
X175364690Y-72246080D02*
X175364690Y-72484175D01*
X175364690Y-72484175D02*
X175317071Y-72579413D01*
X175317071Y-72579413D02*
X175269452Y-72627033D01*
X175269452Y-72627033D02*
X175174214Y-72674652D01*
X175174214Y-72674652D02*
X174888500Y-72674652D01*
X174888500Y-72674652D02*
X174793262Y-72627033D01*
X174793262Y-72627033D02*
X174745643Y-72579413D01*
X229549733Y-66954819D02*
X229549733Y-65954819D01*
X229549733Y-66431009D02*
X230121161Y-66431009D01*
X230121161Y-66954819D02*
X230121161Y-65954819D01*
X230502114Y-65954819D02*
X231121161Y-65954819D01*
X231121161Y-65954819D02*
X230787828Y-66335771D01*
X230787828Y-66335771D02*
X230930685Y-66335771D01*
X230930685Y-66335771D02*
X231025923Y-66383390D01*
X231025923Y-66383390D02*
X231073542Y-66431009D01*
X231073542Y-66431009D02*
X231121161Y-66526247D01*
X231121161Y-66526247D02*
X231121161Y-66764342D01*
X231121161Y-66764342D02*
X231073542Y-66859580D01*
X231073542Y-66859580D02*
X231025923Y-66907200D01*
X231025923Y-66907200D02*
X230930685Y-66954819D01*
X230930685Y-66954819D02*
X230644971Y-66954819D01*
X230644971Y-66954819D02*
X230549733Y-66907200D01*
X230549733Y-66907200D02*
X230502114Y-66859580D01*
X63469733Y-108304819D02*
X63469733Y-107304819D01*
X63469733Y-107781009D02*
X64041161Y-107781009D01*
X64041161Y-108304819D02*
X64041161Y-107304819D01*
X64469733Y-107400057D02*
X64517352Y-107352438D01*
X64517352Y-107352438D02*
X64612590Y-107304819D01*
X64612590Y-107304819D02*
X64850685Y-107304819D01*
X64850685Y-107304819D02*
X64945923Y-107352438D01*
X64945923Y-107352438D02*
X64993542Y-107400057D01*
X64993542Y-107400057D02*
X65041161Y-107495295D01*
X65041161Y-107495295D02*
X65041161Y-107590533D01*
X65041161Y-107590533D02*
X64993542Y-107733390D01*
X64993542Y-107733390D02*
X64422114Y-108304819D01*
X64422114Y-108304819D02*
X65041161Y-108304819D01*
X79289733Y-67084819D02*
X79289733Y-66084819D01*
X79289733Y-66561009D02*
X79861161Y-66561009D01*
X79861161Y-67084819D02*
X79861161Y-66084819D01*
X80765923Y-66418152D02*
X80765923Y-67084819D01*
X80527828Y-66037200D02*
X80289733Y-66751485D01*
X80289733Y-66751485D02*
X80908780Y-66751485D01*
X22189733Y-71684819D02*
X22189733Y-70684819D01*
X22189733Y-71161009D02*
X22761161Y-71161009D01*
X22761161Y-71684819D02*
X22761161Y-70684819D01*
X23142114Y-70684819D02*
X23808780Y-70684819D01*
X23808780Y-70684819D02*
X23380209Y-71684819D01*
X21763543Y-90864819D02*
X21763543Y-89864819D01*
X21763543Y-90341009D02*
X22334971Y-90341009D01*
X22334971Y-90864819D02*
X22334971Y-89864819D01*
X23334971Y-90864819D02*
X22763543Y-90864819D01*
X23049257Y-90864819D02*
X23049257Y-89864819D01*
X23049257Y-89864819D02*
X22954019Y-90007676D01*
X22954019Y-90007676D02*
X22858781Y-90102914D01*
X22858781Y-90102914D02*
X22763543Y-90150533D01*
X24287352Y-90864819D02*
X23715924Y-90864819D01*
X24001638Y-90864819D02*
X24001638Y-89864819D01*
X24001638Y-89864819D02*
X23906400Y-90007676D01*
X23906400Y-90007676D02*
X23811162Y-90102914D01*
X23811162Y-90102914D02*
X23715924Y-90150533D01*
X108632114Y-130732200D02*
X108774971Y-130779819D01*
X108774971Y-130779819D02*
X109013066Y-130779819D01*
X109013066Y-130779819D02*
X109108304Y-130732200D01*
X109108304Y-130732200D02*
X109155923Y-130684580D01*
X109155923Y-130684580D02*
X109203542Y-130589342D01*
X109203542Y-130589342D02*
X109203542Y-130494104D01*
X109203542Y-130494104D02*
X109155923Y-130398866D01*
X109155923Y-130398866D02*
X109108304Y-130351247D01*
X109108304Y-130351247D02*
X109013066Y-130303628D01*
X109013066Y-130303628D02*
X108822590Y-130256009D01*
X108822590Y-130256009D02*
X108727352Y-130208390D01*
X108727352Y-130208390D02*
X108679733Y-130160771D01*
X108679733Y-130160771D02*
X108632114Y-130065533D01*
X108632114Y-130065533D02*
X108632114Y-129970295D01*
X108632114Y-129970295D02*
X108679733Y-129875057D01*
X108679733Y-129875057D02*
X108727352Y-129827438D01*
X108727352Y-129827438D02*
X108822590Y-129779819D01*
X108822590Y-129779819D02*
X109060685Y-129779819D01*
X109060685Y-129779819D02*
X109203542Y-129827438D01*
X109536876Y-129779819D02*
X109774971Y-130779819D01*
X109774971Y-130779819D02*
X109965447Y-130065533D01*
X109965447Y-130065533D02*
X110155923Y-130779819D01*
X110155923Y-130779819D02*
X110394019Y-129779819D01*
X111203542Y-130113152D02*
X111203542Y-130779819D01*
X110965447Y-129732200D02*
X110727352Y-130446485D01*
X110727352Y-130446485D02*
X111346399Y-130446485D01*
X112155923Y-130113152D02*
X112155923Y-130779819D01*
X111917828Y-129732200D02*
X111679733Y-130446485D01*
X111679733Y-130446485D02*
X112298780Y-130446485D01*
X122898066Y-54649819D02*
X123088542Y-54649819D01*
X123088542Y-54649819D02*
X123183780Y-54697438D01*
X123183780Y-54697438D02*
X123279018Y-54792676D01*
X123279018Y-54792676D02*
X123326637Y-54983152D01*
X123326637Y-54983152D02*
X123326637Y-55316485D01*
X123326637Y-55316485D02*
X123279018Y-55506961D01*
X123279018Y-55506961D02*
X123183780Y-55602200D01*
X123183780Y-55602200D02*
X123088542Y-55649819D01*
X123088542Y-55649819D02*
X122898066Y-55649819D01*
X122898066Y-55649819D02*
X122802828Y-55602200D01*
X122802828Y-55602200D02*
X122707590Y-55506961D01*
X122707590Y-55506961D02*
X122659971Y-55316485D01*
X122659971Y-55316485D02*
X122659971Y-54983152D01*
X122659971Y-54983152D02*
X122707590Y-54792676D01*
X122707590Y-54792676D02*
X122802828Y-54697438D01*
X122802828Y-54697438D02*
X122898066Y-54649819D01*
X124231399Y-55649819D02*
X123755209Y-55649819D01*
X123755209Y-55649819D02*
X123755209Y-54649819D01*
X124564733Y-55126009D02*
X124898066Y-55126009D01*
X125040923Y-55649819D02*
X124564733Y-55649819D01*
X124564733Y-55649819D02*
X124564733Y-54649819D01*
X124564733Y-54649819D02*
X125040923Y-54649819D01*
X125469495Y-55649819D02*
X125469495Y-54649819D01*
X125469495Y-54649819D02*
X125707590Y-54649819D01*
X125707590Y-54649819D02*
X125850447Y-54697438D01*
X125850447Y-54697438D02*
X125945685Y-54792676D01*
X125945685Y-54792676D02*
X125993304Y-54887914D01*
X125993304Y-54887914D02*
X126040923Y-55078390D01*
X126040923Y-55078390D02*
X126040923Y-55221247D01*
X126040923Y-55221247D02*
X125993304Y-55411723D01*
X125993304Y-55411723D02*
X125945685Y-55506961D01*
X125945685Y-55506961D02*
X125850447Y-55602200D01*
X125850447Y-55602200D02*
X125707590Y-55649819D01*
X125707590Y-55649819D02*
X125469495Y-55649819D01*
X126421876Y-54745057D02*
X126469495Y-54697438D01*
X126469495Y-54697438D02*
X126564733Y-54649819D01*
X126564733Y-54649819D02*
X126802828Y-54649819D01*
X126802828Y-54649819D02*
X126898066Y-54697438D01*
X126898066Y-54697438D02*
X126945685Y-54745057D01*
X126945685Y-54745057D02*
X126993304Y-54840295D01*
X126993304Y-54840295D02*
X126993304Y-54935533D01*
X126993304Y-54935533D02*
X126945685Y-55078390D01*
X126945685Y-55078390D02*
X126374257Y-55649819D01*
X126374257Y-55649819D02*
X126993304Y-55649819D01*
X120015924Y-88098450D02*
X120123067Y-88134164D01*
X120123067Y-88134164D02*
X120301638Y-88134164D01*
X120301638Y-88134164D02*
X120373067Y-88098450D01*
X120373067Y-88098450D02*
X120408781Y-88062735D01*
X120408781Y-88062735D02*
X120444495Y-87991307D01*
X120444495Y-87991307D02*
X120444495Y-87919878D01*
X120444495Y-87919878D02*
X120408781Y-87848450D01*
X120408781Y-87848450D02*
X120373067Y-87812735D01*
X120373067Y-87812735D02*
X120301638Y-87777021D01*
X120301638Y-87777021D02*
X120158781Y-87741307D01*
X120158781Y-87741307D02*
X120087352Y-87705592D01*
X120087352Y-87705592D02*
X120051638Y-87669878D01*
X120051638Y-87669878D02*
X120015924Y-87598450D01*
X120015924Y-87598450D02*
X120015924Y-87527021D01*
X120015924Y-87527021D02*
X120051638Y-87455592D01*
X120051638Y-87455592D02*
X120087352Y-87419878D01*
X120087352Y-87419878D02*
X120158781Y-87384164D01*
X120158781Y-87384164D02*
X120337352Y-87384164D01*
X120337352Y-87384164D02*
X120444495Y-87419878D01*
X120765924Y-88134164D02*
X120765924Y-87384164D01*
X120765924Y-87384164D02*
X120944495Y-87384164D01*
X120944495Y-87384164D02*
X121051638Y-87419878D01*
X121051638Y-87419878D02*
X121123067Y-87491307D01*
X121123067Y-87491307D02*
X121158781Y-87562735D01*
X121158781Y-87562735D02*
X121194495Y-87705592D01*
X121194495Y-87705592D02*
X121194495Y-87812735D01*
X121194495Y-87812735D02*
X121158781Y-87955592D01*
X121158781Y-87955592D02*
X121123067Y-88027021D01*
X121123067Y-88027021D02*
X121051638Y-88098450D01*
X121051638Y-88098450D02*
X120944495Y-88134164D01*
X120944495Y-88134164D02*
X120765924Y-88134164D01*
X121480210Y-87919878D02*
X121837353Y-87919878D01*
X121408781Y-88134164D02*
X121658781Y-87384164D01*
X121658781Y-87384164D02*
X121908781Y-88134164D01*
X122573781Y-88098450D02*
X122680924Y-88134164D01*
X122680924Y-88134164D02*
X122859495Y-88134164D01*
X122859495Y-88134164D02*
X122930924Y-88098450D01*
X122930924Y-88098450D02*
X122966638Y-88062735D01*
X122966638Y-88062735D02*
X123002352Y-87991307D01*
X123002352Y-87991307D02*
X123002352Y-87919878D01*
X123002352Y-87919878D02*
X122966638Y-87848450D01*
X122966638Y-87848450D02*
X122930924Y-87812735D01*
X122930924Y-87812735D02*
X122859495Y-87777021D01*
X122859495Y-87777021D02*
X122716638Y-87741307D01*
X122716638Y-87741307D02*
X122645209Y-87705592D01*
X122645209Y-87705592D02*
X122609495Y-87669878D01*
X122609495Y-87669878D02*
X122573781Y-87598450D01*
X122573781Y-87598450D02*
X122573781Y-87527021D01*
X122573781Y-87527021D02*
X122609495Y-87455592D01*
X122609495Y-87455592D02*
X122645209Y-87419878D01*
X122645209Y-87419878D02*
X122716638Y-87384164D01*
X122716638Y-87384164D02*
X122895209Y-87384164D01*
X122895209Y-87384164D02*
X123002352Y-87419878D01*
X123752352Y-88062735D02*
X123716638Y-88098450D01*
X123716638Y-88098450D02*
X123609495Y-88134164D01*
X123609495Y-88134164D02*
X123538067Y-88134164D01*
X123538067Y-88134164D02*
X123430924Y-88098450D01*
X123430924Y-88098450D02*
X123359495Y-88027021D01*
X123359495Y-88027021D02*
X123323781Y-87955592D01*
X123323781Y-87955592D02*
X123288067Y-87812735D01*
X123288067Y-87812735D02*
X123288067Y-87705592D01*
X123288067Y-87705592D02*
X123323781Y-87562735D01*
X123323781Y-87562735D02*
X123359495Y-87491307D01*
X123359495Y-87491307D02*
X123430924Y-87419878D01*
X123430924Y-87419878D02*
X123538067Y-87384164D01*
X123538067Y-87384164D02*
X123609495Y-87384164D01*
X123609495Y-87384164D02*
X123716638Y-87419878D01*
X123716638Y-87419878D02*
X123752352Y-87455592D01*
X124430924Y-88134164D02*
X124073781Y-88134164D01*
X124073781Y-88134164D02*
X124073781Y-87384164D01*
X124191457Y-76223571D02*
X124191457Y-76033095D01*
X124191457Y-76033095D02*
X124239076Y-75937857D01*
X124239076Y-75937857D02*
X124334314Y-75842619D01*
X124334314Y-75842619D02*
X124524790Y-75795000D01*
X124524790Y-75795000D02*
X124858123Y-75795000D01*
X124858123Y-75795000D02*
X125048599Y-75842619D01*
X125048599Y-75842619D02*
X125143838Y-75937857D01*
X125143838Y-75937857D02*
X125191457Y-76033095D01*
X125191457Y-76033095D02*
X125191457Y-76223571D01*
X125191457Y-76223571D02*
X125143838Y-76318809D01*
X125143838Y-76318809D02*
X125048599Y-76414047D01*
X125048599Y-76414047D02*
X124858123Y-76461666D01*
X124858123Y-76461666D02*
X124524790Y-76461666D01*
X124524790Y-76461666D02*
X124334314Y-76414047D01*
X124334314Y-76414047D02*
X124239076Y-76318809D01*
X124239076Y-76318809D02*
X124191457Y-76223571D01*
X125191457Y-74890238D02*
X125191457Y-75366428D01*
X125191457Y-75366428D02*
X124191457Y-75366428D01*
X124667647Y-74556904D02*
X124667647Y-74223571D01*
X125191457Y-74080714D02*
X125191457Y-74556904D01*
X125191457Y-74556904D02*
X124191457Y-74556904D01*
X124191457Y-74556904D02*
X124191457Y-74080714D01*
X125191457Y-73652142D02*
X124191457Y-73652142D01*
X124191457Y-73652142D02*
X124191457Y-73414047D01*
X124191457Y-73414047D02*
X124239076Y-73271190D01*
X124239076Y-73271190D02*
X124334314Y-73175952D01*
X124334314Y-73175952D02*
X124429552Y-73128333D01*
X124429552Y-73128333D02*
X124620028Y-73080714D01*
X124620028Y-73080714D02*
X124762885Y-73080714D01*
X124762885Y-73080714D02*
X124953361Y-73128333D01*
X124953361Y-73128333D02*
X125048599Y-73175952D01*
X125048599Y-73175952D02*
X125143838Y-73271190D01*
X125143838Y-73271190D02*
X125191457Y-73414047D01*
X125191457Y-73414047D02*
X125191457Y-73652142D01*
X125191457Y-71890237D02*
X124191457Y-71890237D01*
X124191457Y-71890237D02*
X124191457Y-71509285D01*
X124191457Y-71509285D02*
X124239076Y-71414047D01*
X124239076Y-71414047D02*
X124286695Y-71366428D01*
X124286695Y-71366428D02*
X124381933Y-71318809D01*
X124381933Y-71318809D02*
X124524790Y-71318809D01*
X124524790Y-71318809D02*
X124620028Y-71366428D01*
X124620028Y-71366428D02*
X124667647Y-71414047D01*
X124667647Y-71414047D02*
X124715266Y-71509285D01*
X124715266Y-71509285D02*
X124715266Y-71890237D01*
X125191457Y-70461666D02*
X124667647Y-70461666D01*
X124667647Y-70461666D02*
X124572409Y-70509285D01*
X124572409Y-70509285D02*
X124524790Y-70604523D01*
X124524790Y-70604523D02*
X124524790Y-70794999D01*
X124524790Y-70794999D02*
X124572409Y-70890237D01*
X125143838Y-70461666D02*
X125191457Y-70556904D01*
X125191457Y-70556904D02*
X125191457Y-70794999D01*
X125191457Y-70794999D02*
X125143838Y-70890237D01*
X125143838Y-70890237D02*
X125048599Y-70937856D01*
X125048599Y-70937856D02*
X124953361Y-70937856D01*
X124953361Y-70937856D02*
X124858123Y-70890237D01*
X124858123Y-70890237D02*
X124810504Y-70794999D01*
X124810504Y-70794999D02*
X124810504Y-70556904D01*
X124810504Y-70556904D02*
X124762885Y-70461666D01*
X124524790Y-69985475D02*
X125191457Y-69985475D01*
X124620028Y-69985475D02*
X124572409Y-69937856D01*
X124572409Y-69937856D02*
X124524790Y-69842618D01*
X124524790Y-69842618D02*
X124524790Y-69699761D01*
X124524790Y-69699761D02*
X124572409Y-69604523D01*
X124572409Y-69604523D02*
X124667647Y-69556904D01*
X124667647Y-69556904D02*
X125191457Y-69556904D01*
X125143838Y-68699761D02*
X125191457Y-68794999D01*
X125191457Y-68794999D02*
X125191457Y-68985475D01*
X125191457Y-68985475D02*
X125143838Y-69080713D01*
X125143838Y-69080713D02*
X125048599Y-69128332D01*
X125048599Y-69128332D02*
X124667647Y-69128332D01*
X124667647Y-69128332D02*
X124572409Y-69080713D01*
X124572409Y-69080713D02*
X124524790Y-68985475D01*
X124524790Y-68985475D02*
X124524790Y-68794999D01*
X124524790Y-68794999D02*
X124572409Y-68699761D01*
X124572409Y-68699761D02*
X124667647Y-68652142D01*
X124667647Y-68652142D02*
X124762885Y-68652142D01*
X124762885Y-68652142D02*
X124858123Y-69128332D01*
X125191457Y-68080713D02*
X125143838Y-68175951D01*
X125143838Y-68175951D02*
X125048599Y-68223570D01*
X125048599Y-68223570D02*
X124191457Y-68223570D01*
X125006638Y-87384164D02*
X125256638Y-88134164D01*
X125256638Y-88134164D02*
X125506638Y-87384164D01*
X126185209Y-88062735D02*
X126149495Y-88098450D01*
X126149495Y-88098450D02*
X126042352Y-88134164D01*
X126042352Y-88134164D02*
X125970924Y-88134164D01*
X125970924Y-88134164D02*
X125863781Y-88098450D01*
X125863781Y-88098450D02*
X125792352Y-88027021D01*
X125792352Y-88027021D02*
X125756638Y-87955592D01*
X125756638Y-87955592D02*
X125720924Y-87812735D01*
X125720924Y-87812735D02*
X125720924Y-87705592D01*
X125720924Y-87705592D02*
X125756638Y-87562735D01*
X125756638Y-87562735D02*
X125792352Y-87491307D01*
X125792352Y-87491307D02*
X125863781Y-87419878D01*
X125863781Y-87419878D02*
X125970924Y-87384164D01*
X125970924Y-87384164D02*
X126042352Y-87384164D01*
X126042352Y-87384164D02*
X126149495Y-87419878D01*
X126149495Y-87419878D02*
X126185209Y-87455592D01*
X126935209Y-88062735D02*
X126899495Y-88098450D01*
X126899495Y-88098450D02*
X126792352Y-88134164D01*
X126792352Y-88134164D02*
X126720924Y-88134164D01*
X126720924Y-88134164D02*
X126613781Y-88098450D01*
X126613781Y-88098450D02*
X126542352Y-88027021D01*
X126542352Y-88027021D02*
X126506638Y-87955592D01*
X126506638Y-87955592D02*
X126470924Y-87812735D01*
X126470924Y-87812735D02*
X126470924Y-87705592D01*
X126470924Y-87705592D02*
X126506638Y-87562735D01*
X126506638Y-87562735D02*
X126542352Y-87491307D01*
X126542352Y-87491307D02*
X126613781Y-87419878D01*
X126613781Y-87419878D02*
X126720924Y-87384164D01*
X126720924Y-87384164D02*
X126792352Y-87384164D01*
X126792352Y-87384164D02*
X126899495Y-87419878D01*
X126899495Y-87419878D02*
X126935209Y-87455592D01*
X127975209Y-87419878D02*
X127903781Y-87384164D01*
X127903781Y-87384164D02*
X127796638Y-87384164D01*
X127796638Y-87384164D02*
X127689495Y-87419878D01*
X127689495Y-87419878D02*
X127618066Y-87491307D01*
X127618066Y-87491307D02*
X127582352Y-87562735D01*
X127582352Y-87562735D02*
X127546638Y-87705592D01*
X127546638Y-87705592D02*
X127546638Y-87812735D01*
X127546638Y-87812735D02*
X127582352Y-87955592D01*
X127582352Y-87955592D02*
X127618066Y-88027021D01*
X127618066Y-88027021D02*
X127689495Y-88098450D01*
X127689495Y-88098450D02*
X127796638Y-88134164D01*
X127796638Y-88134164D02*
X127868066Y-88134164D01*
X127868066Y-88134164D02*
X127975209Y-88098450D01*
X127975209Y-88098450D02*
X128010923Y-88062735D01*
X128010923Y-88062735D02*
X128010923Y-87812735D01*
X128010923Y-87812735D02*
X127868066Y-87812735D01*
X128332352Y-88134164D02*
X128332352Y-87384164D01*
X128332352Y-87384164D02*
X128760923Y-88134164D01*
X128760923Y-88134164D02*
X128760923Y-87384164D01*
X129118066Y-88134164D02*
X129118066Y-87384164D01*
X129118066Y-87384164D02*
X129296637Y-87384164D01*
X129296637Y-87384164D02*
X129403780Y-87419878D01*
X129403780Y-87419878D02*
X129475209Y-87491307D01*
X129475209Y-87491307D02*
X129510923Y-87562735D01*
X129510923Y-87562735D02*
X129546637Y-87705592D01*
X129546637Y-87705592D02*
X129546637Y-87812735D01*
X129546637Y-87812735D02*
X129510923Y-87955592D01*
X129510923Y-87955592D02*
X129475209Y-88027021D01*
X129475209Y-88027021D02*
X129403780Y-88098450D01*
X129403780Y-88098450D02*
X129296637Y-88134164D01*
X129296637Y-88134164D02*
X129118066Y-88134164D01*
X143921755Y-71888614D02*
X143921755Y-71258693D01*
X143921755Y-71258693D02*
X144161725Y-71258693D01*
X144161725Y-71258693D02*
X144221717Y-71288689D01*
X144221717Y-71288689D02*
X144251713Y-71318685D01*
X144251713Y-71318685D02*
X144281710Y-71378678D01*
X144281710Y-71378678D02*
X144281710Y-71468666D01*
X144281710Y-71468666D02*
X144251713Y-71528659D01*
X144251713Y-71528659D02*
X144221717Y-71558655D01*
X144221717Y-71558655D02*
X144161725Y-71588651D01*
X144161725Y-71588651D02*
X143921755Y-71588651D01*
X144551676Y-71888614D02*
X144551676Y-71258693D01*
X145211593Y-71888614D02*
X145001619Y-71588651D01*
X144851638Y-71888614D02*
X144851638Y-71258693D01*
X144851638Y-71258693D02*
X145091608Y-71258693D01*
X145091608Y-71258693D02*
X145151600Y-71288689D01*
X145151600Y-71288689D02*
X145181596Y-71318685D01*
X145181596Y-71318685D02*
X145211593Y-71378678D01*
X145211593Y-71378678D02*
X145211593Y-71468666D01*
X145211593Y-71468666D02*
X145181596Y-71528659D01*
X145181596Y-71528659D02*
X145151600Y-71558655D01*
X145151600Y-71558655D02*
X145091608Y-71588651D01*
X145091608Y-71588651D02*
X144851638Y-71588651D01*
X145451562Y-71318685D02*
X145481559Y-71288689D01*
X145481559Y-71288689D02*
X145541551Y-71258693D01*
X145541551Y-71258693D02*
X145691532Y-71258693D01*
X145691532Y-71258693D02*
X145751525Y-71288689D01*
X145751525Y-71288689D02*
X145781521Y-71318685D01*
X145781521Y-71318685D02*
X145811517Y-71378678D01*
X145811517Y-71378678D02*
X145811517Y-71438670D01*
X145811517Y-71438670D02*
X145781521Y-71528659D01*
X145781521Y-71528659D02*
X145421566Y-71888614D01*
X145421566Y-71888614D02*
X145811517Y-71888614D01*
D12*
X140872920Y-77602419D02*
X140715439Y-77377447D01*
X140602953Y-77602419D02*
X140602953Y-77129978D01*
X140602953Y-77129978D02*
X140782931Y-77129978D01*
X140782931Y-77129978D02*
X140827925Y-77152475D01*
X140827925Y-77152475D02*
X140850423Y-77174972D01*
X140850423Y-77174972D02*
X140872920Y-77219966D01*
X140872920Y-77219966D02*
X140872920Y-77287458D01*
X140872920Y-77287458D02*
X140850423Y-77332452D01*
X140850423Y-77332452D02*
X140827925Y-77354950D01*
X140827925Y-77354950D02*
X140782931Y-77377447D01*
X140782931Y-77377447D02*
X140602953Y-77377447D01*
X141075394Y-77354950D02*
X141232875Y-77354950D01*
X141300366Y-77602419D02*
X141075394Y-77602419D01*
X141075394Y-77602419D02*
X141075394Y-77129978D01*
X141075394Y-77129978D02*
X141300366Y-77129978D01*
X141727813Y-77602419D02*
X141502841Y-77602419D01*
X141502841Y-77602419D02*
X141502841Y-77129978D01*
X143871683Y-81752475D02*
X143826688Y-81729978D01*
X143826688Y-81729978D02*
X143759197Y-81729978D01*
X143759197Y-81729978D02*
X143691705Y-81752475D01*
X143691705Y-81752475D02*
X143646711Y-81797469D01*
X143646711Y-81797469D02*
X143624213Y-81842464D01*
X143624213Y-81842464D02*
X143601716Y-81932452D01*
X143601716Y-81932452D02*
X143601716Y-81999944D01*
X143601716Y-81999944D02*
X143624213Y-82089933D01*
X143624213Y-82089933D02*
X143646711Y-82134927D01*
X143646711Y-82134927D02*
X143691705Y-82179922D01*
X143691705Y-82179922D02*
X143759197Y-82202419D01*
X143759197Y-82202419D02*
X143804191Y-82202419D01*
X143804191Y-82202419D02*
X143871683Y-82179922D01*
X143871683Y-82179922D02*
X143894180Y-82157424D01*
X143894180Y-82157424D02*
X143894180Y-81999944D01*
X143894180Y-81999944D02*
X143804191Y-81999944D01*
X144096654Y-82202419D02*
X144096654Y-81729978D01*
X144096654Y-81729978D02*
X144366621Y-82202419D01*
X144366621Y-82202419D02*
X144366621Y-81729978D01*
X144591592Y-82202419D02*
X144591592Y-81729978D01*
X144591592Y-81729978D02*
X144704078Y-81729978D01*
X144704078Y-81729978D02*
X144771570Y-81752475D01*
X144771570Y-81752475D02*
X144816564Y-81797469D01*
X144816564Y-81797469D02*
X144839062Y-81842464D01*
X144839062Y-81842464D02*
X144861559Y-81932452D01*
X144861559Y-81932452D02*
X144861559Y-81999944D01*
X144861559Y-81999944D02*
X144839062Y-82089933D01*
X144839062Y-82089933D02*
X144816564Y-82134927D01*
X144816564Y-82134927D02*
X144771570Y-82179922D01*
X144771570Y-82179922D02*
X144704078Y-82202419D01*
X144704078Y-82202419D02*
X144591592Y-82202419D01*
X143661717Y-74429978D02*
X143819197Y-74902419D01*
X143819197Y-74902419D02*
X143976678Y-74429978D01*
X144404124Y-74857424D02*
X144381627Y-74879922D01*
X144381627Y-74879922D02*
X144314135Y-74902419D01*
X144314135Y-74902419D02*
X144269141Y-74902419D01*
X144269141Y-74902419D02*
X144201649Y-74879922D01*
X144201649Y-74879922D02*
X144156655Y-74834927D01*
X144156655Y-74834927D02*
X144134157Y-74789933D01*
X144134157Y-74789933D02*
X144111660Y-74699944D01*
X144111660Y-74699944D02*
X144111660Y-74632452D01*
X144111660Y-74632452D02*
X144134157Y-74542464D01*
X144134157Y-74542464D02*
X144156655Y-74497469D01*
X144156655Y-74497469D02*
X144201649Y-74452475D01*
X144201649Y-74452475D02*
X144269141Y-74429978D01*
X144269141Y-74429978D02*
X144314135Y-74429978D01*
X144314135Y-74429978D02*
X144381627Y-74452475D01*
X144381627Y-74452475D02*
X144404124Y-74474972D01*
X144876565Y-74857424D02*
X144854068Y-74879922D01*
X144854068Y-74879922D02*
X144786576Y-74902419D01*
X144786576Y-74902419D02*
X144741582Y-74902419D01*
X144741582Y-74902419D02*
X144674090Y-74879922D01*
X144674090Y-74879922D02*
X144629096Y-74834927D01*
X144629096Y-74834927D02*
X144606598Y-74789933D01*
X144606598Y-74789933D02*
X144584101Y-74699944D01*
X144584101Y-74699944D02*
X144584101Y-74632452D01*
X144584101Y-74632452D02*
X144606598Y-74542464D01*
X144606598Y-74542464D02*
X144629096Y-74497469D01*
X144629096Y-74497469D02*
X144674090Y-74452475D01*
X144674090Y-74452475D02*
X144741582Y-74429978D01*
X144741582Y-74429978D02*
X144786576Y-74429978D01*
X144786576Y-74429978D02*
X144854068Y-74452475D01*
X144854068Y-74452475D02*
X144876565Y-74474972D01*
X148176666Y-77399978D02*
X148266655Y-77399978D01*
X148266655Y-77399978D02*
X148311649Y-77422475D01*
X148311649Y-77422475D02*
X148356644Y-77467469D01*
X148356644Y-77467469D02*
X148379141Y-77557458D01*
X148379141Y-77557458D02*
X148379141Y-77714938D01*
X148379141Y-77714938D02*
X148356644Y-77804927D01*
X148356644Y-77804927D02*
X148311649Y-77849922D01*
X148311649Y-77849922D02*
X148266655Y-77872419D01*
X148266655Y-77872419D02*
X148176666Y-77872419D01*
X148176666Y-77872419D02*
X148131672Y-77849922D01*
X148131672Y-77849922D02*
X148086677Y-77804927D01*
X148086677Y-77804927D02*
X148064180Y-77714938D01*
X148064180Y-77714938D02*
X148064180Y-77557458D01*
X148064180Y-77557458D02*
X148086677Y-77467469D01*
X148086677Y-77467469D02*
X148131672Y-77422475D01*
X148131672Y-77422475D02*
X148176666Y-77399978D01*
X148514124Y-77399978D02*
X148784090Y-77399978D01*
X148649107Y-77872419D02*
X148649107Y-77399978D01*
D11*
X131463088Y-50296391D02*
X131463088Y-50929698D01*
X131463088Y-50929698D02*
X131500342Y-51004204D01*
X131500342Y-51004204D02*
X131537595Y-51041458D01*
X131537595Y-51041458D02*
X131612102Y-51078711D01*
X131612102Y-51078711D02*
X131761115Y-51078711D01*
X131761115Y-51078711D02*
X131835622Y-51041458D01*
X131835622Y-51041458D02*
X131872875Y-51004204D01*
X131872875Y-51004204D02*
X131910128Y-50929698D01*
X131910128Y-50929698D02*
X131910128Y-50296391D01*
X132245408Y-50370898D02*
X132282661Y-50333644D01*
X132282661Y-50333644D02*
X132357168Y-50296391D01*
X132357168Y-50296391D02*
X132543435Y-50296391D01*
X132543435Y-50296391D02*
X132617941Y-50333644D01*
X132617941Y-50333644D02*
X132655195Y-50370898D01*
X132655195Y-50370898D02*
X132692448Y-50445404D01*
X132692448Y-50445404D02*
X132692448Y-50519911D01*
X132692448Y-50519911D02*
X132655195Y-50631671D01*
X132655195Y-50631671D02*
X132208155Y-51078711D01*
X132208155Y-51078711D02*
X132692448Y-51078711D01*
D10*
X134999733Y-71824819D02*
X134999733Y-72634342D01*
X134999733Y-72634342D02*
X135047352Y-72729580D01*
X135047352Y-72729580D02*
X135094971Y-72777200D01*
X135094971Y-72777200D02*
X135190209Y-72824819D01*
X135190209Y-72824819D02*
X135380685Y-72824819D01*
X135380685Y-72824819D02*
X135475923Y-72777200D01*
X135475923Y-72777200D02*
X135523542Y-72729580D01*
X135523542Y-72729580D02*
X135571161Y-72634342D01*
X135571161Y-72634342D02*
X135571161Y-71824819D01*
X136475923Y-72158152D02*
X136475923Y-72824819D01*
X136237828Y-71777200D02*
X135999733Y-72491485D01*
X135999733Y-72491485D02*
X136618780Y-72491485D01*
%TO.C,R1*%
D13*
X174881638Y-106570000D02*
X174881638Y-113110000D01*
X174551638Y-106570000D02*
X174881638Y-106570000D01*
X172471638Y-106570000D02*
X172141638Y-106570000D01*
X172141638Y-106570000D02*
X172141638Y-113110000D01*
X174881638Y-113110000D02*
X174551638Y-113110000D01*
X172141638Y-113110000D02*
X172471638Y-113110000D01*
%TO.C,R6*%
X130679391Y-110413811D02*
X130286105Y-110186747D01*
X131414391Y-109140753D02*
X131021105Y-108913689D01*
%TO.C,R4*%
X110549564Y-111175000D02*
X110095436Y-111175000D01*
X110549564Y-109705000D02*
X110095436Y-109705000D01*
%TO.C,U1*%
D14*
X162082638Y-53146000D02*
G75*
G02*
X161578638Y-53146000I-252000J0D01*
G01*
X161578638Y-53146000D02*
G75*
G02*
X162082638Y-53146000I252000J0D01*
G01*
X160808638Y-52429000D02*
G75*
G02*
X160304638Y-52429000I-252000J0D01*
G01*
X160304638Y-52429000D02*
G75*
G02*
X160808638Y-52429000I252000J0D01*
G01*
D15*
X178546638Y-71063000D02*
G75*
G02*
X176641638Y-72968000I-1905000J0D01*
G01*
X176641638Y-52013000D02*
G75*
G02*
X178546638Y-53918000I-50J-1905050D01*
G01*
D16*
X173660638Y-50503000D02*
G75*
G02*
X174160638Y-51003000I-100J-500100D01*
G01*
X165165366Y-51002728D02*
G75*
G02*
X165665366Y-50503001I500018J-291D01*
G01*
D15*
X162671638Y-72968000D02*
G75*
G02*
X160766638Y-71063000I1J1905001D01*
G01*
X160766638Y-53914000D02*
G75*
G02*
X162671638Y-52009000I1905001J-1D01*
G01*
X178546638Y-71063000D02*
X178546638Y-53918000D01*
X176641638Y-52013000D02*
X162671638Y-52013000D01*
D16*
X174160638Y-51003000D02*
X174160638Y-52013000D01*
X165665366Y-50503000D02*
X173660638Y-50503000D01*
X165161638Y-52013000D02*
X165165366Y-51002728D01*
D15*
X162671638Y-72968000D02*
X176641638Y-72968000D01*
X160766638Y-71063000D02*
X160766638Y-53918000D01*
%TO.C,PIR1*%
X169861638Y-77950000D02*
G75*
G02*
X160761638Y-77950000I-4550000J0D01*
G01*
D17*
X169011638Y-81450000D02*
G75*
G02*
X168811638Y-81450000I-100000J0D01*
G01*
X168811638Y-81450000D02*
G75*
G02*
X169011638Y-81450000I100000J0D01*
G01*
D15*
X160761638Y-77950000D02*
G75*
G02*
X169861638Y-77950000I4550000J0D01*
G01*
X169411638Y-81390000D02*
X168811638Y-81990000D01*
X168811638Y-81990000D02*
X168211638Y-81390000D01*
X168811638Y-80790000D02*
X169411638Y-81390000D01*
%TO.C,OLED1*%
D18*
X191745167Y-92154833D02*
X191745167Y-54154833D01*
X191745167Y-87154833D02*
X179745167Y-87154833D01*
X191745167Y-57654833D02*
X179745167Y-57654833D01*
X191745167Y-54154833D02*
X179745167Y-54154833D01*
X179745167Y-92154833D02*
X191745167Y-92154833D01*
X179745167Y-54154833D02*
X179745167Y-92154833D01*
%TO.C,SW43*%
D13*
X176325167Y-97459833D02*
X176925167Y-97459833D01*
X176625167Y-97759833D02*
X176325167Y-97459833D01*
X176925167Y-97459833D02*
X176625167Y-97759833D01*
X178025167Y-95759833D02*
X178025167Y-107459833D01*
X182125167Y-95759833D02*
X178025167Y-95759833D01*
X182125167Y-107459833D02*
X178025167Y-107459833D01*
X183625167Y-101559833D02*
X184625167Y-101559833D01*
X184125167Y-101059833D02*
X184125167Y-102059833D01*
X186125167Y-95659833D02*
X190225167Y-95659833D01*
X190225167Y-95659833D02*
X190225167Y-98259833D01*
X190225167Y-100259833D02*
X190225167Y-102859833D01*
X190225167Y-104859833D02*
X190225167Y-107459833D01*
X190225167Y-107459833D02*
X186125167Y-107459833D01*
X187125167Y-101559833D02*
G75*
G02*
X181125167Y-101559833I-3000000J0D01*
G01*
X181125167Y-101559833D02*
G75*
G02*
X187125167Y-101559833I3000000J0D01*
G01*
%TO.C,U3*%
X175555167Y-73219833D02*
G75*
G02*
X173555167Y-73219833I-1000000J0D01*
G01*
X177205167Y-93659833D02*
X177205167Y-73219833D01*
X177205167Y-73219833D02*
X175555167Y-73219833D01*
X173555167Y-73219833D02*
X171905167Y-73219833D01*
X171905167Y-93659833D02*
X177205167Y-93659833D01*
X171905167Y-73219833D02*
X171905167Y-93659833D01*
%TO.C,BO1*%
D15*
X156554086Y-74452000D02*
G75*
G02*
X153554086Y-74452000I-1500000J0D01*
G01*
X153554086Y-80452000D02*
G75*
G02*
X156554086Y-80452000I1500000J0D01*
G01*
%TO.C,BO2*%
X156571638Y-54600000D02*
G75*
G02*
X153571638Y-54600000I-1500000J0D01*
G01*
X153571638Y-60600000D02*
G75*
G02*
X156571638Y-60600000I1500000J0D01*
G01*
%TO.C,BO3*%
X156562454Y-64508000D02*
G75*
G02*
X153562454Y-64508000I-1500000J0D01*
G01*
X153562454Y-70508000D02*
G75*
G02*
X156562454Y-70508000I1500000J0D01*
G01*
%TO.C,SW44*%
D13*
X130026638Y-101080000D02*
G75*
G02*
X124026638Y-101080000I-3000000J0D01*
G01*
X124026638Y-101080000D02*
G75*
G02*
X130026638Y-101080000I3000000J0D01*
G01*
X133126638Y-106980000D02*
X129026638Y-106980000D01*
X133126638Y-104380000D02*
X133126638Y-106980000D01*
X133126638Y-99780000D02*
X133126638Y-102380000D01*
X133126638Y-95180000D02*
X133126638Y-97780000D01*
X129026638Y-95180000D02*
X133126638Y-95180000D01*
X127026638Y-100580000D02*
X127026638Y-101580000D01*
X126526638Y-101080000D02*
X127526638Y-101080000D01*
X125026638Y-106980000D02*
X120926638Y-106980000D01*
X125026638Y-95280000D02*
X120926638Y-95280000D01*
X120926638Y-95280000D02*
X120926638Y-106980000D01*
X119826638Y-96980000D02*
X119526638Y-97280000D01*
X119526638Y-97280000D02*
X119226638Y-96980000D01*
X119226638Y-96980000D02*
X119826638Y-96980000D01*
%TO.C,OLED2*%
D18*
X118736638Y-53295000D02*
X118736638Y-91295000D01*
X118736638Y-91295000D02*
X130736638Y-91295000D01*
X130736638Y-53295000D02*
X118736638Y-53295000D01*
X130736638Y-56795000D02*
X118736638Y-56795000D01*
X130736638Y-86295000D02*
X118736638Y-86295000D01*
X130736638Y-91295000D02*
X130736638Y-53295000D01*
%TO.C,PIR2*%
D15*
X148551638Y-80920000D02*
X149151638Y-81520000D01*
X148551638Y-82120000D02*
X147951638Y-81520000D01*
X149151638Y-81520000D02*
X148551638Y-82120000D01*
X140501638Y-78080000D02*
G75*
G02*
X149601638Y-78080000I4550000J0D01*
G01*
D17*
X148551638Y-81580000D02*
G75*
G02*
X148751638Y-81580000I100000J0D01*
G01*
X148751638Y-81580000D02*
G75*
G02*
X148551638Y-81580000I-100000J0D01*
G01*
D15*
X149601638Y-78080000D02*
G75*
G02*
X140501638Y-78080000I-4550000J0D01*
G01*
%TO.C,U2*%
X131706638Y-71193000D02*
X131706638Y-54048000D01*
X133611638Y-73098000D02*
X147581638Y-73098000D01*
D16*
X136101638Y-52143000D02*
X136105366Y-51132728D01*
X136605366Y-50633000D02*
X144600638Y-50633000D01*
X145100638Y-51133000D02*
X145100638Y-52143000D01*
D15*
X147581638Y-52143000D02*
X133611638Y-52143000D01*
X149486638Y-71193000D02*
X149486638Y-54048000D01*
X131706638Y-54044000D02*
G75*
G02*
X133611638Y-52139000I1905001J-1D01*
G01*
X133611638Y-73098000D02*
G75*
G02*
X131706638Y-71193000I1J1905001D01*
G01*
D16*
X136105366Y-51132728D02*
G75*
G02*
X136605366Y-50633001I500018J-291D01*
G01*
X144600638Y-50633000D02*
G75*
G02*
X145100638Y-51133000I-100J-500100D01*
G01*
D15*
X147581638Y-52143000D02*
G75*
G02*
X149486638Y-54048000I-50J-1905050D01*
G01*
X149486638Y-71193000D02*
G75*
G02*
X147581638Y-73098000I-1905000J0D01*
G01*
D14*
X131748638Y-52559000D02*
G75*
G02*
X131244638Y-52559000I-252000J0D01*
G01*
X131244638Y-52559000D02*
G75*
G02*
X131748638Y-52559000I252000J0D01*
G01*
X133022638Y-53276000D02*
G75*
G02*
X132518638Y-53276000I-252000J0D01*
G01*
X132518638Y-53276000D02*
G75*
G02*
X133022638Y-53276000I252000J0D01*
G01*
%TO.C,U4*%
D13*
X133111638Y-73370000D02*
X133111638Y-93810000D01*
X133111638Y-93810000D02*
X138411638Y-93810000D01*
X134761638Y-73370000D02*
X133111638Y-73370000D01*
X138411638Y-73370000D02*
X136761638Y-73370000D01*
X138411638Y-93810000D02*
X138411638Y-73370000D01*
X136761638Y-73370000D02*
G75*
G02*
X134761638Y-73370000I-1000000J0D01*
G01*
%TD*%
M02*
