%TF.GenerationSoftware,KiCad,Pcbnew,10.0.0*%
%TF.CreationDate,2026-05-18T21:46:04-07:00*%
%TF.ProjectId,Chillboard,4368696c-6c62-46f6-9172-642e6b696361,rev?*%
%TF.SameCoordinates,Original*%
%TF.FileFunction,Copper,L2,Bot*%
%TF.FilePolarity,Positive*%
%FSLAX46Y46*%
G04 Gerber Fmt 4.6, Leading zero omitted, Abs format (unit mm)*
G04 Created by KiCad (PCBNEW 10.0.0) date 2026-05-18 21:46:04*
%MOMM*%
%LPD*%
G01*
G04 APERTURE LIST*
G04 Aperture macros list*
%AMRoundRect*
0 Rectangle with rounded corners*
0 $1 Rounding radius*
0 $2 $3 $4 $5 $6 $7 $8 $9 X,Y pos of 4 corners*
0 Add a 4 corners polygon primitive as box body*
4,1,4,$2,$3,$4,$5,$6,$7,$8,$9,$2,$3,0*
0 Add four circle primitives for the rounded corners*
1,1,$1+$1,$2,$3*
1,1,$1+$1,$4,$5*
1,1,$1+$1,$6,$7*
1,1,$1+$1,$8,$9*
0 Add four rect primitives between the rounded corners*
20,1,$1+$1,$2,$3,$4,$5,0*
20,1,$1+$1,$4,$5,$6,$7,0*
20,1,$1+$1,$6,$7,$8,$9,0*
20,1,$1+$1,$8,$9,$2,$3,0*%
%AMRotRect*
0 Rectangle, with rotation*
0 The origin of the aperture is its center*
0 $1 length*
0 $2 width*
0 $3 Rotation angle, in degrees counterclockwise*
0 Add horizontal line*
21,1,$1,$2,0,0,$3*%
%AMFreePoly0*
4,1,18,-0.410000,0.593000,-0.403758,0.624380,-0.385983,0.650983,-0.359380,0.668758,-0.328000,0.675000,0.328000,0.675000,0.359380,0.668758,0.385983,0.650983,0.403758,0.624380,0.410000,0.593000,0.410000,-0.593000,0.403758,-0.624380,0.385983,-0.650983,0.359380,-0.668758,0.328000,-0.675000,0.000000,-0.675000,-0.410000,-0.265000,-0.410000,0.593000,-0.410000,0.593000,$1*%
G04 Aperture macros list end*
%TA.AperFunction,ComponentPad*%
%ADD10C,1.600000*%
%TD*%
%TA.AperFunction,SMDPad,CuDef*%
%ADD11RoundRect,0.250000X-0.262500X-0.450000X0.262500X-0.450000X0.262500X0.450000X-0.262500X0.450000X0*%
%TD*%
%TA.AperFunction,SMDPad,CuDef*%
%ADD12RoundRect,0.250000X-0.002332X-0.520961X0.452332X-0.258461X0.002332X0.520961X-0.452332X0.258461X0*%
%TD*%
%TA.AperFunction,ComponentPad*%
%ADD13C,3.300000*%
%TD*%
%TA.AperFunction,SMDPad,CuDef*%
%ADD14R,1.200000X2.600000*%
%TD*%
%TA.AperFunction,SMDPad,CuDef*%
%ADD15RoundRect,0.260000X1.065000X1.040000X-1.065000X1.040000X-1.065000X-1.040000X1.065000X-1.040000X0*%
%TD*%
%TA.AperFunction,SMDPad,CuDef*%
%ADD16RoundRect,0.250000X0.250000X0.475000X-0.250000X0.475000X-0.250000X-0.475000X0.250000X-0.475000X0*%
%TD*%
%TA.AperFunction,SMDPad,CuDef*%
%ADD17RoundRect,0.225000X-0.225000X-0.375000X0.225000X-0.375000X0.225000X0.375000X-0.225000X0.375000X0*%
%TD*%
%TA.AperFunction,SMDPad,CuDef*%
%ADD18FreePoly0,270.000000*%
%TD*%
%TA.AperFunction,SMDPad,CuDef*%
%ADD19RoundRect,0.082000X-0.593000X0.328000X-0.593000X-0.328000X0.593000X-0.328000X0.593000X0.328000X0*%
%TD*%
%TA.AperFunction,SMDPad,CuDef*%
%ADD20RoundRect,0.250000X0.364421X0.394110X-0.118542X0.523520X-0.364421X-0.394110X0.118542X-0.523520X0*%
%TD*%
%TA.AperFunction,SMDPad,CuDef*%
%ADD21RoundRect,0.225000X0.375000X-0.225000X0.375000X0.225000X-0.375000X0.225000X-0.375000X-0.225000X0*%
%TD*%
%TA.AperFunction,ComponentPad*%
%ADD22RoundRect,0.750000X0.750000X0.750000X-0.750000X0.750000X-0.750000X-0.750000X0.750000X-0.750000X0*%
%TD*%
%TA.AperFunction,ComponentPad*%
%ADD23C,1.192000*%
%TD*%
%TA.AperFunction,ComponentPad*%
%ADD24O,1.700000X1.700000*%
%TD*%
%TA.AperFunction,ComponentPad*%
%ADD25R,1.700000X1.700000*%
%TD*%
%TA.AperFunction,ComponentPad*%
%ADD26C,1.500000*%
%TD*%
%TA.AperFunction,ComponentPad*%
%ADD27R,2.000000X2.000000*%
%TD*%
%TA.AperFunction,ComponentPad*%
%ADD28C,2.000000*%
%TD*%
%TA.AperFunction,ComponentPad*%
%ADD29R,3.200000X2.000000*%
%TD*%
%TA.AperFunction,ComponentPad*%
%ADD30RoundRect,0.250000X-0.550000X-0.550000X0.550000X-0.550000X0.550000X0.550000X-0.550000X0.550000X0*%
%TD*%
%TA.AperFunction,SMDPad,CuDef*%
%ADD31RoundRect,0.250000X-0.250000X-0.475000X0.250000X-0.475000X0.250000X0.475000X-0.250000X0.475000X0*%
%TD*%
%TA.AperFunction,SMDPad,CuDef*%
%ADD32RoundRect,0.225000X0.225000X0.375000X-0.225000X0.375000X-0.225000X-0.375000X0.225000X-0.375000X0*%
%TD*%
%TA.AperFunction,SMDPad,CuDef*%
%ADD33RoundRect,0.250000X-0.454006X-0.286362X-0.020994X-0.536362X0.454006X0.286362X0.020994X0.536362X0*%
%TD*%
%TA.AperFunction,SMDPad,CuDef*%
%ADD34RoundRect,0.225000X-0.375000X0.225000X-0.375000X-0.225000X0.375000X-0.225000X0.375000X0.225000X0*%
%TD*%
%TA.AperFunction,SMDPad,CuDef*%
%ADD35RotRect,1.200000X2.600000X195.000000*%
%TD*%
%TA.AperFunction,SMDPad,CuDef*%
%ADD36RoundRect,0.260000X0.759539X1.280205X-1.297883X0.728921X-0.759539X-1.280205X1.297883X-0.728921X0*%
%TD*%
%TA.AperFunction,SMDPad,CuDef*%
%ADD37RotRect,1.200000X2.600000X15.000000*%
%TD*%
%TA.AperFunction,SMDPad,CuDef*%
%ADD38C,2.000000*%
%TD*%
%TA.AperFunction,SMDPad,CuDef*%
%ADD39FreePoly0,210.000000*%
%TD*%
%TA.AperFunction,SMDPad,CuDef*%
%ADD40RoundRect,0.082000X-0.012444X0.677553X-0.580556X0.349553X0.012444X-0.677553X0.580556X-0.349553X0*%
%TD*%
%TA.AperFunction,SMDPad,CuDef*%
%ADD41FreePoly0,255.000000*%
%TD*%
%TA.AperFunction,SMDPad,CuDef*%
%ADD42RoundRect,0.082000X-0.487901X0.470303X-0.657687X-0.163344X0.487901X-0.470303X0.657687X0.163344X0*%
%TD*%
%TA.AperFunction,SMDPad,CuDef*%
%ADD43RotRect,1.200000X2.600000X300.000000*%
%TD*%
%TA.AperFunction,SMDPad,CuDef*%
%ADD44RoundRect,0.260000X-1.433166X0.402317X-0.368166X-1.442317X1.433166X-0.402317X0.368166X1.442317X0*%
%TD*%
%TA.AperFunction,SMDPad,CuDef*%
%ADD45RotRect,1.200000X2.600000X120.000000*%
%TD*%
%TA.AperFunction,SMDPad,CuDef*%
%ADD46RoundRect,0.225000X-0.212260X0.382356X-0.437260X-0.007356X0.212260X-0.382356X0.437260X0.007356X0*%
%TD*%
%TA.AperFunction,SMDPad,CuDef*%
%ADD47RotRect,1.200000X2.600000X345.000000*%
%TD*%
%TA.AperFunction,SMDPad,CuDef*%
%ADD48RoundRect,0.260000X1.297883X0.728921X-0.759539X1.280205X-1.297883X-0.728921X0.759539X-1.280205X0*%
%TD*%
%TA.AperFunction,SMDPad,CuDef*%
%ADD49RotRect,1.200000X2.600000X165.000000*%
%TD*%
%TA.AperFunction,SMDPad,CuDef*%
%ADD50RotRect,1.200000X2.600000X240.000000*%
%TD*%
%TA.AperFunction,SMDPad,CuDef*%
%ADD51RoundRect,0.260000X0.368166X-1.442317X1.433166X0.402317X-0.368166X1.442317X-1.433166X-0.402317X0*%
%TD*%
%TA.AperFunction,SMDPad,CuDef*%
%ADD52RotRect,1.200000X2.600000X60.000000*%
%TD*%
%TA.AperFunction,SMDPad,CuDef*%
%ADD53RoundRect,0.250000X0.454006X0.286362X0.020994X0.536362X-0.454006X-0.286362X-0.020994X-0.536362X0*%
%TD*%
%TA.AperFunction,SMDPad,CuDef*%
%ADD54RoundRect,0.082000X0.593000X-0.328000X0.593000X0.328000X-0.593000X0.328000X-0.593000X-0.328000X0*%
%TD*%
%TA.AperFunction,SMDPad,CuDef*%
%ADD55FreePoly0,90.000000*%
%TD*%
%TA.AperFunction,SMDPad,CuDef*%
%ADD56RoundRect,0.082000X0.487901X-0.470303X0.657687X0.163344X-0.487901X0.470303X-0.657687X-0.163344X0*%
%TD*%
%TA.AperFunction,SMDPad,CuDef*%
%ADD57FreePoly0,75.000000*%
%TD*%
%TA.AperFunction,SMDPad,CuDef*%
%ADD58RoundRect,0.082000X-0.580556X-0.349553X-0.012444X-0.677553X0.580556X0.349553X0.012444X0.677553X0*%
%TD*%
%TA.AperFunction,SMDPad,CuDef*%
%ADD59FreePoly0,330.000000*%
%TD*%
%TA.AperFunction,ViaPad*%
%ADD60C,0.600000*%
%TD*%
%TA.AperFunction,Conductor*%
%ADD61C,0.200000*%
%TD*%
G04 APERTURE END LIST*
D10*
%TO.P,R2,1*%
%TO.N,BACKLIGHT_LED*%
X139330000Y-102790000D03*
%TO.P,R2,2*%
%TO.N,Net-(D44-DIN)*%
X139330000Y-95170000D03*
%TD*%
%TO.P,R1,1*%
%TO.N,BACKLIGHT_LED*%
X173511638Y-106030000D03*
%TO.P,R1,2*%
%TO.N,Net-(D43-DIN)*%
X173511638Y-113650000D03*
%TD*%
D11*
%TO.P,R3,2*%
%TO.N,BAT_PIN*%
X199102500Y-110510000D03*
%TO.P,R3,1*%
%TO.N,VBAT*%
X197277500Y-110510000D03*
%TD*%
D12*
%TO.P,R5,1*%
%TO.N,GND*%
X171429752Y-112316250D03*
%TO.P,R5,2*%
%TO.N,BAT_PIN*%
X173010248Y-111403750D03*
%TD*%
D13*
%TO.P,SW10,1,1_1*%
%TO.N,COL2*%
X215911638Y-101800000D03*
D14*
X214361638Y-101800000D03*
D15*
X212666638Y-101800000D03*
%TO.P,SW10,2,2_2*%
%TO.N,Net-(D10-A)*%
X224156638Y-104000000D03*
D14*
X222461638Y-104000000D03*
D13*
X220911638Y-104000000D03*
%TD*%
D16*
%TO.P,C28,2*%
%TO.N,GND*%
X248261638Y-54350000D03*
%TO.P,C28,1*%
%TO.N,+5V*%
X250161638Y-54350000D03*
%TD*%
D17*
%TO.P,D34,2,A_2*%
%TO.N,/left/ROW1*%
X303190167Y-92149833D03*
%TO.P,D34,1,K_1*%
%TO.N,/left/ROW2*%
X299890167Y-92149833D03*
%TD*%
D13*
%TO.P,SW9,1,1_1*%
%TO.N,COL2*%
X215811638Y-82800000D03*
D14*
X214261638Y-82800000D03*
D15*
X212566638Y-82800000D03*
%TO.P,SW9,2,2_2*%
%TO.N,Net-(D9-A)*%
X224056638Y-85000000D03*
D14*
X222361638Y-85000000D03*
D13*
X220811638Y-85000000D03*
%TD*%
D18*
%TO.P,D55,4,VSS_4*%
%TO.N,GND*%
X217986638Y-73600000D03*
D19*
%TO.P,D55,3,DIN_3*%
%TO.N,Net-(D54-DOUT)*%
X217986638Y-75100000D03*
%TO.P,D55,2,DOUT_2*%
%TO.N,Net-(D55-DOUT)*%
X223436638Y-73600000D03*
%TO.P,D55,1,VDD_1*%
%TO.N,+5V*%
X223436638Y-75100000D03*
%TD*%
D20*
%TO.P,C16,2*%
%TO.N,GND*%
X212394008Y-113504122D03*
%TO.P,C16,1*%
%TO.N,+5V*%
X214229268Y-113995878D03*
%TD*%
D21*
%TO.P,D41,2,A_2*%
%TO.N,Net-(D41-A)*%
X281280167Y-91847333D03*
%TO.P,D41,1,K_1*%
%TO.N,ROW5*%
X281280167Y-95147333D03*
%TD*%
D13*
%TO.P,SW3,1,1_1*%
%TO.N,COL1*%
X225311638Y-121400000D03*
D14*
X223761638Y-121400000D03*
D15*
X222066638Y-121400000D03*
%TO.P,SW3,2,2_2*%
%TO.N,Net-(D3-A)*%
X233556638Y-123600000D03*
D14*
X231861638Y-123600000D03*
D13*
X230311638Y-123600000D03*
%TD*%
D21*
%TO.P,D11,2,A_2*%
%TO.N,Net-(D11-A)*%
X205336638Y-70297500D03*
%TO.P,D11,1,K_1*%
%TO.N,/left/ROW3*%
X205336638Y-73597500D03*
%TD*%
D16*
%TO.P,C14,2*%
%TO.N,GND*%
X229261638Y-52949999D03*
%TO.P,C14,1*%
%TO.N,+5V*%
X231161638Y-52949999D03*
%TD*%
D21*
%TO.P,D9,2,A_2*%
%TO.N,Net-(D9-A)*%
X224340167Y-87059833D03*
%TO.P,D9,1,K_1*%
%TO.N,/left/ROW1*%
X224340167Y-90359833D03*
%TD*%
%TO.P,D12,2,A_2*%
%TO.N,Net-(D12-A)*%
X205286638Y-89280000D03*
%TO.P,D12,1,K_1*%
%TO.N,/left/ROW4*%
X205286638Y-92580000D03*
%TD*%
%TO.P,D26,2,A_2*%
%TO.N,Net-(D26-A)*%
X262300167Y-67927333D03*
%TO.P,D26,1,K_1*%
%TO.N,/left/ROW2*%
X262300167Y-71227333D03*
%TD*%
D22*
%TO.P,U1,16,GND_16*%
%TO.N,GND*%
X165211638Y-59550000D03*
%TO.P,U1,15,BAT_15*%
%TO.N,VBAT*%
X165211638Y-62950000D03*
%TD*%
D23*
%TO.P,PIR1,4,OUT_4*%
%TO.N,PIR_OUT*%
X162771638Y-77950000D03*
%TO.P,PIR1,3,VCC_3*%
%TO.N,+3V3*%
X165311638Y-75410000D03*
%TO.P,PIR1,2,ON_TIME_2*%
%TO.N,GND*%
X167851638Y-77950000D03*
%TO.P,PIR1,1,GND_1*%
X165311638Y-80490000D03*
%TD*%
D24*
%TO.P,OLED1,4,SCL_4*%
%TO.N,OLED_SCL*%
X181935167Y-90654833D03*
%TO.P,OLED1,3,SDA_3*%
%TO.N,OLED_SDA*%
X184475167Y-90654833D03*
%TO.P,OLED1,2,GND_2*%
%TO.N,GND*%
X187015167Y-90654833D03*
D25*
%TO.P,OLED1,1,VCC_1*%
%TO.N,+5V*%
X189555167Y-90654833D03*
%TD*%
D26*
%TO.P,SW43,*%
%TO.N,*%
X191125167Y-99059833D03*
X191125167Y-104059833D03*
D27*
%TO.P,SW43,A,A_A*%
%TO.N,ROT_A*%
X176625167Y-99059833D03*
D28*
%TO.P,SW43,B,B_B*%
%TO.N,ROT_B*%
X176625167Y-104059833D03*
%TO.P,SW43,C,C_C*%
%TO.N,GND*%
X176625167Y-101559833D03*
D29*
%TO.P,SW43,MP*%
%TO.N,N/C*%
X184125167Y-95959833D03*
X184125167Y-107159833D03*
%TD*%
D10*
%TO.P,U3,16,VDD_16*%
%TO.N,+5V*%
X178365167Y-74549833D03*
%TO.P,U3,15,SDA_15*%
%TO.N,EXP_SDA*%
X178365167Y-77089833D03*
%TO.P,U3,14,SCL_14*%
%TO.N,EXP_SCL*%
X178365167Y-79629833D03*
%TO.P,U3,13,~{INT}_13*%
%TO.N,unconnected-(U3-~{INT}-Pad13)*%
X178365167Y-82169833D03*
%TO.P,U3,12,P7_12*%
%TO.N,OLED_SCL*%
X178365167Y-84709833D03*
%TO.P,U3,11,P6_11*%
%TO.N,OLED_SDA*%
X178365167Y-87249833D03*
%TO.P,U3,10,P5_10*%
%TO.N,ROT_B*%
X178365167Y-89789833D03*
%TO.P,U3,9,P4_9*%
%TO.N,ROT_A*%
X178365167Y-92329833D03*
%TO.P,U3,8,GND_8*%
%TO.N,GND*%
X170745167Y-92329833D03*
%TO.P,U3,7,P3_7*%
%TO.N,PIR_OUT*%
X170745167Y-89789833D03*
%TO.P,U3,6,P2_6*%
%TO.N,BACKLIGHT_LED*%
X170745167Y-87249833D03*
%TO.P,U3,5,P1_5*%
%TO.N,COL5*%
X170745167Y-84709833D03*
%TO.P,U3,4,P0_4*%
%TO.N,COL4*%
X170745167Y-82169833D03*
%TO.P,U3,3,A2_3*%
%TO.N,unconnected-(U3-A2-Pad3)*%
X170745167Y-79629833D03*
%TO.P,U3,2,A1_2*%
%TO.N,unconnected-(U3-A1-Pad2)*%
X170745167Y-77089833D03*
D30*
%TO.P,U3,1,A0_1*%
%TO.N,unconnected-(U3-A0-Pad1)*%
X170745167Y-74549833D03*
%TD*%
D31*
%TO.P,C11,2*%
%TO.N,GND*%
X303161638Y-78450000D03*
%TO.P,C11,1*%
%TO.N,+5V*%
X301261638Y-78450000D03*
%TD*%
D18*
%TO.P,D76,4,VSS_4*%
%TO.N,GND*%
X255986638Y-92600000D03*
D19*
%TO.P,D76,3,DIN_3*%
%TO.N,Net-(D75-DOUT)*%
X255986638Y-94100000D03*
%TO.P,D76,2,DOUT_2*%
%TO.N,Net-(D76-DOUT)*%
X261436638Y-92600000D03*
%TO.P,D76,1,VDD_1*%
%TO.N,+5V*%
X261436638Y-94100000D03*
%TD*%
D32*
%TO.P,D25,2,A_2*%
%TO.N,Net-(D25-A)*%
X280870167Y-110959833D03*
%TO.P,D25,1,K_1*%
%TO.N,/left/ROW1*%
X284170167Y-110959833D03*
%TD*%
D31*
%TO.P,C15,2*%
%TO.N,GND*%
X250970167Y-92569833D03*
%TO.P,C15,1*%
%TO.N,+5V*%
X249070167Y-92569833D03*
%TD*%
D16*
%TO.P,C38,2*%
%TO.N,GND*%
X263261638Y-92650000D03*
%TO.P,C38,1*%
%TO.N,+5V*%
X265161638Y-92650000D03*
%TD*%
%TO.P,C37,2*%
%TO.N,GND*%
X210386638Y-72450000D03*
%TO.P,C37,1*%
%TO.N,+5V*%
X212286638Y-72450000D03*
%TD*%
D17*
%TO.P,D35,2,A_2*%
%TO.N,Net-(D35-A)*%
X303182667Y-111349833D03*
%TO.P,D35,1,K_1*%
%TO.N,/left/ROW3*%
X299882667Y-111349833D03*
%TD*%
D18*
%TO.P,D64,4,VSS_4*%
%TO.N,GND*%
X293986638Y-78400000D03*
D19*
%TO.P,D64,3,DIN_3*%
%TO.N,Net-(D63-DOUT)*%
X293986638Y-79900000D03*
%TO.P,D64,2,DOUT_2*%
%TO.N,Net-(D64-DOUT)*%
X299436638Y-78400000D03*
%TO.P,D64,1,VDD_1*%
%TO.N,+5V*%
X299436638Y-79900000D03*
%TD*%
D13*
%TO.P,SW20,1,1_1*%
%TO.N,COL3*%
X215711638Y-63800000D03*
D14*
X214161638Y-63800000D03*
D15*
X212466638Y-63800000D03*
%TO.P,SW20,2,2_2*%
%TO.N,Net-(D20-A)*%
X223956638Y-66000000D03*
D14*
X222261638Y-66000000D03*
D13*
X220711638Y-66000000D03*
%TD*%
D33*
%TO.P,C5,2*%
%TO.N,GND*%
X188635615Y-131439833D03*
%TO.P,C5,1*%
%TO.N,+5V*%
X186990167Y-130489833D03*
%TD*%
D18*
%TO.P,D75,4,VSS_4*%
%TO.N,GND*%
X236986638Y-90300000D03*
D19*
%TO.P,D75,3,DIN_3*%
%TO.N,Net-(D74-DOUT)*%
X236986638Y-91800000D03*
%TO.P,D75,2,DOUT_2*%
%TO.N,Net-(D75-DOUT)*%
X242436638Y-90300000D03*
%TO.P,D75,1,VDD_1*%
%TO.N,+5V*%
X242436638Y-91800000D03*
%TD*%
D18*
%TO.P,D45,4,VSS_4*%
%TO.N,GND*%
X236886638Y-52200000D03*
D19*
%TO.P,D45,3,DIN_3*%
%TO.N,Net-(D43-DOUT)*%
X236886638Y-53700000D03*
%TO.P,D45,2,DOUT_2*%
%TO.N,Net-(D45-DOUT)*%
X242336638Y-52200000D03*
%TO.P,D45,1,VDD_1*%
%TO.N,+5V*%
X242336638Y-53700000D03*
%TD*%
D16*
%TO.P,C9,2*%
%TO.N,GND*%
X225361638Y-73650000D03*
%TO.P,C9,1*%
%TO.N,+5V*%
X227261638Y-73650000D03*
%TD*%
D34*
%TO.P,D17,2,A_2*%
%TO.N,Net-(D17-A)*%
X247390167Y-65912333D03*
%TO.P,D17,1,K_1*%
%TO.N,/left/ROW1*%
X247390167Y-62612333D03*
%TD*%
D13*
%TO.P,SW17,1,1_1*%
%TO.N,COL3*%
X234739138Y-61400000D03*
D14*
X233189138Y-61400000D03*
D15*
X231494138Y-61400000D03*
%TO.P,SW17,2,2_2*%
%TO.N,Net-(D17-A)*%
X242984138Y-63600000D03*
D14*
X241289138Y-63600000D03*
D13*
X239739138Y-63600000D03*
%TD*%
%TO.P,SW26,1,1_1*%
%TO.N,COL4*%
X253811638Y-63800000D03*
D14*
X252261638Y-63800000D03*
D15*
X250566638Y-63800000D03*
%TO.P,SW26,2,2_2*%
%TO.N,Net-(D26-A)*%
X262056638Y-66000000D03*
D14*
X260361638Y-66000000D03*
D13*
X258811638Y-66000000D03*
%TD*%
D18*
%TO.P,D63,4,VSS_4*%
%TO.N,GND*%
X274986638Y-78400000D03*
D19*
%TO.P,D63,3,DIN_3*%
%TO.N,Net-(D57-DOUT)*%
X274986638Y-79900000D03*
%TO.P,D63,2,DOUT_2*%
%TO.N,Net-(D63-DOUT)*%
X280436638Y-78400000D03*
%TO.P,D63,1,VDD_1*%
%TO.N,+5V*%
X280436638Y-79900000D03*
%TD*%
D16*
%TO.P,C1,2*%
%TO.N,GND*%
X267311638Y-57250000D03*
%TO.P,C1,1*%
%TO.N,+5V*%
X269211638Y-57250000D03*
%TD*%
D13*
%TO.P,SW36,1,1_1*%
%TO.N,COL5*%
X272811638Y-68500000D03*
D14*
X271261638Y-68500000D03*
D15*
X269566638Y-68500000D03*
%TO.P,SW36,2,2_2*%
%TO.N,Net-(D36-A)*%
X281056638Y-70700000D03*
D14*
X279361638Y-70700000D03*
D13*
X277811638Y-70700000D03*
%TD*%
D16*
%TO.P,C17,2*%
%TO.N,GND*%
X244261638Y-71250000D03*
%TO.P,C17,1*%
%TO.N,+5V*%
X246161638Y-71250000D03*
%TD*%
D32*
%TO.P,D28,2,A_2*%
%TO.N,Net-(D28-A)*%
X261887667Y-106169833D03*
%TO.P,D28,1,K_1*%
%TO.N,/left/ROW4*%
X265187667Y-106169833D03*
%TD*%
D16*
%TO.P,C26,2*%
%TO.N,GND*%
X282261638Y-97350000D03*
%TO.P,C26,1*%
%TO.N,+5V*%
X284161638Y-97350000D03*
%TD*%
D18*
%TO.P,D43,4,VSS_4*%
%TO.N,GND*%
X217786638Y-54600000D03*
D19*
%TO.P,D43,3,DIN_3*%
%TO.N,Net-(D43-DIN)*%
X217786638Y-56100000D03*
%TO.P,D43,2,DOUT_2*%
%TO.N,Net-(D43-DOUT)*%
X223236638Y-54600000D03*
%TO.P,D43,1,VDD_1*%
%TO.N,+5V*%
X223236638Y-56100000D03*
%TD*%
D13*
%TO.P,SW5,1,1_1*%
%TO.N,COL1*%
X205439988Y-125389822D03*
D35*
X203942803Y-125790991D03*
D36*
X202305559Y-126229689D03*
%TO.P,SW5,2,2_2*%
%TO.N,Net-(D5-A)*%
X213973448Y-125380894D03*
D37*
X212336205Y-125819593D03*
D13*
X210839020Y-126220762D03*
%TD*%
%TO.P,SW27,1,1_1*%
%TO.N,COL4*%
X253811638Y-82800000D03*
D14*
X252261638Y-82800000D03*
D15*
X250566638Y-82800000D03*
%TO.P,SW27,2,2_2*%
%TO.N,Net-(D27-A)*%
X262056638Y-85000000D03*
D14*
X260361638Y-85000000D03*
D13*
X258811638Y-85000000D03*
%TD*%
%TO.P,SW11,1,1_1*%
%TO.N,COL2*%
X196811638Y-66200000D03*
D14*
X195261638Y-66200000D03*
D15*
X193566638Y-66200000D03*
%TO.P,SW11,2,2_2*%
%TO.N,Net-(D11-A)*%
X205056638Y-68400000D03*
D14*
X203361638Y-68400000D03*
D13*
X201811638Y-68400000D03*
%TD*%
D32*
%TO.P,D19,2,A_2*%
%TO.N,Net-(D19-A)*%
X242830167Y-103889833D03*
%TO.P,D19,1,K_1*%
%TO.N,/left/ROW3*%
X246130167Y-103889833D03*
%TD*%
D18*
%TO.P,D47,4,VSS_4*%
%TO.N,GND*%
X255986638Y-54600000D03*
D19*
%TO.P,D47,3,DIN_3*%
%TO.N,Net-(D45-DOUT)*%
X255986638Y-56100000D03*
%TO.P,D47,2,DOUT_2*%
%TO.N,Net-(D47-DOUT)*%
X261436638Y-54600000D03*
%TO.P,D47,1,VDD_1*%
%TO.N,+5V*%
X261436638Y-56100000D03*
%TD*%
D16*
%TO.P,C39,2*%
%TO.N,GND*%
X206361638Y-95150000D03*
%TO.P,C39,1*%
%TO.N,+5V*%
X208261638Y-95150000D03*
%TD*%
D18*
%TO.P,D54,4,VSS_4*%
%TO.N,GND*%
X198586638Y-75900000D03*
D19*
%TO.P,D54,3,DIN_3*%
%TO.N,Net-(D53-DOUT)*%
X198586638Y-77400000D03*
%TO.P,D54,2,DOUT_2*%
%TO.N,Net-(D54-DOUT)*%
X204036638Y-75900000D03*
%TO.P,D54,1,VDD_1*%
%TO.N,+5V*%
X204036638Y-77400000D03*
%TD*%
D21*
%TO.P,D33,2,A_2*%
%TO.N,Net-(D33-A)*%
X300260167Y-72612333D03*
%TO.P,D33,1,K_1*%
%TO.N,/left/ROW1*%
X300260167Y-75912333D03*
%TD*%
D16*
%TO.P,C3,2*%
%TO.N,GND*%
X234761638Y-112350000D03*
%TO.P,C3,1*%
%TO.N,+5V*%
X236661638Y-112350000D03*
%TD*%
D18*
%TO.P,D67,4,VSS_4*%
%TO.N,GND*%
X227486638Y-112200000D03*
D19*
%TO.P,D67,3,DIN_3*%
%TO.N,Net-(D66-DOUT)*%
X227486638Y-113700000D03*
%TO.P,D67,2,DOUT_2*%
%TO.N,Net-(D67-DOUT)*%
X232936638Y-112200000D03*
%TO.P,D67,1,VDD_1*%
%TO.N,+5V*%
X232936638Y-113700000D03*
%TD*%
D21*
%TO.P,D20,2,A_2*%
%TO.N,Net-(D20-A)*%
X224250167Y-67857333D03*
%TO.P,D20,1,K_1*%
%TO.N,/left/ROW4*%
X224250167Y-71157333D03*
%TD*%
D13*
%TO.P,SW19,1,1_1*%
%TO.N,COL3*%
X234811638Y-99500000D03*
D14*
X233261638Y-99500000D03*
D15*
X231566638Y-99500000D03*
%TO.P,SW19,2,2_2*%
%TO.N,Net-(D19-A)*%
X243056638Y-101700000D03*
D14*
X241361638Y-101700000D03*
D13*
X239811638Y-101700000D03*
%TD*%
%TO.P,SW34,1,1_1*%
%TO.N,COL5*%
X291811638Y-87600000D03*
D14*
X290261638Y-87600000D03*
D15*
X288566638Y-87600000D03*
%TO.P,SW34,2,2_2*%
%TO.N,/left/ROW1*%
X300056638Y-89800000D03*
D14*
X298361638Y-89800000D03*
D13*
X296811638Y-89800000D03*
%TD*%
D21*
%TO.P,D27,2,A_2*%
%TO.N,Net-(D27-A)*%
X262260167Y-86677333D03*
%TO.P,D27,1,K_1*%
%TO.N,/left/ROW3*%
X262260167Y-89977333D03*
%TD*%
D18*
%TO.P,D83,4,VSS_4*%
%TO.N,GND*%
X293986638Y-97500000D03*
D19*
%TO.P,D83,3,DIN_3*%
%TO.N,Net-(D77-DOUT)*%
X293986638Y-99000000D03*
%TO.P,D83,2,DOUT_2*%
%TO.N,unconnected-(D83-DOUT-Pad2)*%
X299436638Y-97500000D03*
%TO.P,D83,1,VDD_1*%
%TO.N,+5V*%
X299436638Y-99000000D03*
%TD*%
D13*
%TO.P,SW41,1,1_1*%
%TO.N,COL5*%
X272811638Y-87600000D03*
D14*
X271261638Y-87600000D03*
D15*
X269566638Y-87600000D03*
%TO.P,SW41,2,2_2*%
%TO.N,Net-(D41-A)*%
X281056638Y-89800000D03*
D14*
X279361638Y-89800000D03*
D13*
X277811638Y-89800000D03*
%TD*%
%TO.P,SW12,1,1_1*%
%TO.N,COL2*%
X196811638Y-85200000D03*
D14*
X195261638Y-85200000D03*
D15*
X193566638Y-85200000D03*
%TO.P,SW12,2,2_2*%
%TO.N,Net-(D12-A)*%
X205056638Y-87400000D03*
D14*
X203361638Y-87400000D03*
D13*
X201811638Y-87400000D03*
%TD*%
D38*
%TO.P,TP3,1,1_1*%
%TO.N,GND*%
X168440167Y-62919833D03*
%TD*%
%TO.P,TP1,1,1_1*%
%TO.N,VBAT*%
X168550167Y-59339833D03*
%TD*%
D18*
%TO.P,D73,4,VSS_4*%
%TO.N,GND*%
X198986638Y-95000000D03*
D19*
%TO.P,D73,3,DIN_3*%
%TO.N,Net-(D67-DOUT)*%
X198986638Y-96500000D03*
%TO.P,D73,2,DOUT_2*%
%TO.N,Net-(D73-DOUT)*%
X204436638Y-95000000D03*
%TO.P,D73,1,VDD_1*%
%TO.N,+5V*%
X204436638Y-96500000D03*
%TD*%
D39*
%TO.P,D65,4,VSS_4*%
%TO.N,GND*%
X182247187Y-123994914D03*
D40*
%TO.P,D65,3,DIN_3*%
%TO.N,Net-(D64-DOUT)*%
X180948148Y-124744914D03*
%TO.P,D65,2,DOUT_2*%
%TO.N,Net-(D65-DOUT)*%
X184972186Y-128714752D03*
%TO.P,D65,1,VDD_1*%
%TO.N,+5V*%
X183673147Y-129464752D03*
%TD*%
D18*
%TO.P,D57,4,VSS_4*%
%TO.N,GND*%
X255986638Y-73600000D03*
D19*
%TO.P,D57,3,DIN_3*%
%TO.N,Net-(D56-DOUT)*%
X255986638Y-75100000D03*
%TO.P,D57,2,DOUT_2*%
%TO.N,Net-(D57-DOUT)*%
X261436638Y-73600000D03*
%TO.P,D57,1,VDD_1*%
%TO.N,+5V*%
X261436638Y-75100000D03*
%TD*%
D18*
%TO.P,D77,4,VSS_4*%
%TO.N,GND*%
X274986638Y-97300000D03*
D19*
%TO.P,D77,3,DIN_3*%
%TO.N,Net-(D76-DOUT)*%
X274986638Y-98800000D03*
%TO.P,D77,2,DOUT_2*%
%TO.N,Net-(D77-DOUT)*%
X280436638Y-97300000D03*
%TO.P,D77,1,VDD_1*%
%TO.N,+5V*%
X280436638Y-98800000D03*
%TD*%
D18*
%TO.P,D56,4,VSS_4*%
%TO.N,GND*%
X236986638Y-71200000D03*
D19*
%TO.P,D56,3,DIN_3*%
%TO.N,Net-(D55-DOUT)*%
X236986638Y-72700000D03*
%TO.P,D56,2,DOUT_2*%
%TO.N,Net-(D56-DOUT)*%
X242436638Y-71200000D03*
%TO.P,D56,1,VDD_1*%
%TO.N,+5V*%
X242436638Y-72700000D03*
%TD*%
D13*
%TO.P,SW18,1,1_1*%
%TO.N,COL3*%
X234811638Y-80400000D03*
D14*
X233261638Y-80400000D03*
D15*
X231566638Y-80400000D03*
%TO.P,SW18,2,2_2*%
%TO.N,Net-(D18-A)*%
X243056638Y-82600000D03*
D14*
X241361638Y-82600000D03*
D13*
X239811638Y-82600000D03*
%TD*%
D18*
%TO.P,D48,4,VSS_4*%
%TO.N,GND*%
X274986638Y-59300000D03*
D19*
%TO.P,D48,3,DIN_3*%
%TO.N,Net-(D47-DOUT)*%
X274986638Y-60800000D03*
%TO.P,D48,2,DOUT_2*%
%TO.N,Net-(D48-DOUT)*%
X280436638Y-59300000D03*
%TO.P,D48,1,VDD_1*%
%TO.N,+5V*%
X280436638Y-60800000D03*
%TD*%
D41*
%TO.P,D66,4,VSS_4*%
%TO.N,GND*%
X205673604Y-114520274D03*
D42*
%TO.P,D66,3,DIN_3*%
%TO.N,Net-(D65-DOUT)*%
X205285376Y-115969162D03*
%TO.P,D66,2,DOUT_2*%
%TO.N,Net-(D66-DOUT)*%
X210937900Y-115930838D03*
%TO.P,D66,1,VDD_1*%
%TO.N,+5V*%
X210549672Y-117379726D03*
%TD*%
D17*
%TO.P,D3,2,A_2*%
%TO.N,Net-(D3-A)*%
X236612667Y-125919833D03*
%TO.P,D3,1,K_1*%
%TO.N,/left/ROW2*%
X233312667Y-125919833D03*
%TD*%
D16*
%TO.P,C6,2*%
%TO.N,GND*%
X227140167Y-92419833D03*
%TO.P,C6,1*%
%TO.N,+5V*%
X229040167Y-92419833D03*
%TD*%
%TO.P,C40,2*%
%TO.N,GND*%
X282261638Y-78250000D03*
%TO.P,C40,1*%
%TO.N,+5V*%
X284161638Y-78250000D03*
%TD*%
D13*
%TO.P,SW1,1,1_1*%
%TO.N,COL1*%
X196811638Y-104200000D03*
D14*
X195261638Y-104200000D03*
D15*
X193566638Y-104200000D03*
%TO.P,SW1,2,2_2*%
%TO.N,Net-(D1-A)*%
X205056638Y-106400000D03*
D14*
X203361638Y-106400000D03*
D13*
X201811638Y-106400000D03*
%TD*%
%TO.P,SW25,1,1_1*%
%TO.N,COL4*%
X272811638Y-106600000D03*
D14*
X271261638Y-106600000D03*
D15*
X269566638Y-106600000D03*
%TO.P,SW25,2,2_2*%
%TO.N,Net-(D25-A)*%
X281056638Y-108800000D03*
D14*
X279361638Y-108800000D03*
D13*
X277811638Y-108800000D03*
%TD*%
%TO.P,SW7,1,1_1*%
%TO.N,COL1*%
X192794485Y-126929776D03*
D43*
X193569485Y-128272115D03*
D44*
X194416985Y-129740028D03*
%TO.P,SW7,2,2_2*%
%TO.N,Net-(D7-A)*%
X190577241Y-118689397D03*
D45*
X191424741Y-120157310D03*
D13*
X192199741Y-121499649D03*
%TD*%
D17*
%TO.P,D5,2,A_2*%
%TO.N,Net-(D5-A)*%
X215430167Y-121499833D03*
%TO.P,D5,1,K_1*%
%TO.N,/left/ROW3*%
X212130167Y-121499833D03*
%TD*%
D21*
%TO.P,D18,2,A_2*%
%TO.N,Net-(D18-A)*%
X243326638Y-84690000D03*
%TO.P,D18,1,K_1*%
%TO.N,/left/ROW2*%
X243326638Y-87990000D03*
%TD*%
D13*
%TO.P,SW28,1,1_1*%
%TO.N,COL4*%
X253811638Y-101800000D03*
D14*
X252261638Y-101800000D03*
D15*
X250566638Y-101800000D03*
%TO.P,SW28,2,2_2*%
%TO.N,Net-(D28-A)*%
X262056638Y-104000000D03*
D14*
X260361638Y-104000000D03*
D13*
X258811638Y-104000000D03*
%TD*%
%TO.P,SW33,1,1_1*%
%TO.N,COL5*%
X291811638Y-68500000D03*
D14*
X290261638Y-68500000D03*
D15*
X288566638Y-68500000D03*
%TO.P,SW33,2,2_2*%
%TO.N,Net-(D33-A)*%
X300056638Y-70700000D03*
D14*
X298361638Y-70700000D03*
D13*
X296811638Y-70700000D03*
%TD*%
%TO.P,SW35,1,1_1*%
%TO.N,COL5*%
X291811638Y-106700000D03*
D14*
X290261638Y-106700000D03*
D15*
X288566638Y-106700000D03*
%TO.P,SW35,2,2_2*%
%TO.N,Net-(D35-A)*%
X300056638Y-108900000D03*
D14*
X298361638Y-108900000D03*
D13*
X296811638Y-108900000D03*
%TD*%
D17*
%TO.P,D1,2,A_2*%
%TO.N,Net-(D1-A)*%
X194510167Y-109699833D03*
%TO.P,D1,1,K_1*%
%TO.N,/left/ROW1*%
X191210167Y-109699833D03*
%TD*%
D16*
%TO.P,C29,2*%
%TO.N,GND*%
X210261638Y-54950000D03*
%TO.P,C29,1*%
%TO.N,+5V*%
X212161638Y-54950000D03*
%TD*%
%TO.P,C41,2*%
%TO.N,GND*%
X301261638Y-97450000D03*
%TO.P,C41,1*%
%TO.N,+5V*%
X303161638Y-97450000D03*
%TD*%
%TO.P,C25,2*%
%TO.N,GND*%
X205861638Y-75950000D03*
%TO.P,C25,1*%
%TO.N,+5V*%
X207761638Y-75950000D03*
%TD*%
D18*
%TO.P,D53,4,VSS_4*%
%TO.N,GND*%
X198986638Y-57000000D03*
D19*
%TO.P,D53,3,DIN_3*%
%TO.N,Net-(D51-DOUT)*%
X198986638Y-58500000D03*
%TO.P,D53,2,DOUT_2*%
%TO.N,Net-(D53-DOUT)*%
X204436638Y-57000000D03*
%TO.P,D53,1,VDD_1*%
%TO.N,+5V*%
X204436638Y-58500000D03*
%TD*%
D21*
%TO.P,D36,2,A_2*%
%TO.N,Net-(D36-A)*%
X281300167Y-72467333D03*
%TO.P,D36,1,K_1*%
%TO.N,/left/ROW4*%
X281300167Y-75767333D03*
%TD*%
D18*
%TO.P,D51,4,VSS_4*%
%TO.N,GND*%
X293886638Y-59300000D03*
D19*
%TO.P,D51,3,DIN_3*%
%TO.N,Net-(D48-DOUT)*%
X293886638Y-60800000D03*
%TO.P,D51,2,DOUT_2*%
%TO.N,Net-(D51-DOUT)*%
X299336638Y-59300000D03*
%TO.P,D51,1,VDD_1*%
%TO.N,+5V*%
X299336638Y-60800000D03*
%TD*%
D46*
%TO.P,D7,2,A_2*%
%TO.N,Net-(D7-A)*%
X182270167Y-117617717D03*
%TO.P,D7,1,K_1*%
%TO.N,/left/ROW4*%
X183920167Y-114759833D03*
%TD*%
D16*
%TO.P,C13,2*%
%TO.N,GND*%
X301161638Y-59350000D03*
%TO.P,C13,1*%
%TO.N,+5V*%
X303061638Y-59350000D03*
%TD*%
D18*
%TO.P,D74,4,VSS_4*%
%TO.N,GND*%
X218061638Y-92600000D03*
D19*
%TO.P,D74,3,DIN_3*%
%TO.N,Net-(D73-DOUT)*%
X218061638Y-94100000D03*
%TO.P,D74,2,DOUT_2*%
%TO.N,Net-(D74-DOUT)*%
X223511638Y-92600000D03*
%TO.P,D74,1,VDD_1*%
%TO.N,+5V*%
X223511638Y-94100000D03*
%TD*%
D16*
%TO.P,C27,2*%
%TO.N,GND*%
X263261638Y-73650000D03*
%TO.P,C27,1*%
%TO.N,+5V*%
X265161638Y-73650000D03*
%TD*%
D21*
%TO.P,D10,2,A_2*%
%TO.N,Net-(D10-A)*%
X224366638Y-105860000D03*
%TO.P,D10,1,K_1*%
%TO.N,/left/ROW2*%
X224366638Y-109160000D03*
%TD*%
D13*
%TO.P,SW2,2,2_2*%
%TO.N,Net-(D2-A)*%
X108551638Y-106530000D03*
D14*
X110101638Y-106530000D03*
D15*
X111796638Y-106530000D03*
%TO.P,SW2,1,1_1*%
%TO.N,COL1*%
X100306638Y-104330000D03*
D14*
X102001638Y-104330000D03*
D13*
X103551638Y-104330000D03*
%TD*%
%TO.P,SW4,2,2_2*%
%TO.N,Net-(D4-A)*%
X80051638Y-123730000D03*
D14*
X81601638Y-123730000D03*
D15*
X83296638Y-123730000D03*
%TO.P,SW4,1,1_1*%
%TO.N,COL1*%
X71806638Y-121530000D03*
D14*
X73501638Y-121530000D03*
D13*
X75051638Y-121530000D03*
%TD*%
%TO.P,SW6,2,2_2*%
%TO.N,Net-(D6-A)*%
X99524257Y-126350763D03*
D47*
X101021442Y-126751931D03*
D48*
X102658686Y-127190631D03*
%TO.P,SW6,1,1_1*%
%TO.N,COL1*%
X92129601Y-122091763D03*
D49*
X93766845Y-122530461D03*
D13*
X95264029Y-122931632D03*
%TD*%
%TO.P,SW8,2,2_2*%
%TO.N,Net-(D8-A)*%
X118163535Y-121629649D03*
D50*
X117388535Y-122971988D03*
D51*
X116541035Y-124439901D03*
%TO.P,SW8,1,1_1*%
%TO.N,COL1*%
X124191291Y-115589270D03*
D52*
X123343791Y-117057183D03*
D13*
X122568791Y-118399522D03*
%TD*%
%TO.P,SW13,2,2_2*%
%TO.N,Net-(D13-A)*%
X89551638Y-85130000D03*
D14*
X91101638Y-85130000D03*
D15*
X92796638Y-85130000D03*
%TO.P,SW13,1,1_1*%
%TO.N,COL2*%
X81306638Y-82930000D03*
D14*
X83001638Y-82930000D03*
D13*
X84551638Y-82930000D03*
%TD*%
%TO.P,SW14,2,2_2*%
%TO.N,Net-(D14-A)*%
X89451638Y-104130000D03*
D14*
X91001638Y-104130000D03*
D15*
X92696638Y-104130000D03*
%TO.P,SW14,1,1_1*%
%TO.N,COL2*%
X81206638Y-101930000D03*
D14*
X82901638Y-101930000D03*
D13*
X84451638Y-101930000D03*
%TD*%
%TO.P,SW15,2,2_2*%
%TO.N,Net-(D15-A)*%
X108551638Y-68530000D03*
D14*
X110101638Y-68530000D03*
D15*
X111796638Y-68530000D03*
%TO.P,SW15,1,1_1*%
%TO.N,COL2*%
X100306638Y-66330000D03*
D14*
X102001638Y-66330000D03*
D13*
X103551638Y-66330000D03*
%TD*%
%TO.P,SW16,2,2_2*%
%TO.N,Net-(D16-A)*%
X108551638Y-87530000D03*
D14*
X110101638Y-87530000D03*
D15*
X111796638Y-87530000D03*
%TO.P,SW16,1,1_1*%
%TO.N,COL2*%
X100306638Y-85330000D03*
D14*
X102001638Y-85330000D03*
D13*
X103551638Y-85330000D03*
%TD*%
%TO.P,SW21,2,2_2*%
%TO.N,Net-(D21-A)*%
X70624138Y-63730000D03*
D14*
X72174138Y-63730000D03*
D15*
X73869138Y-63730000D03*
%TO.P,SW21,1,1_1*%
%TO.N,COL3*%
X62379138Y-61530000D03*
D14*
X64074138Y-61530000D03*
D13*
X65624138Y-61530000D03*
%TD*%
%TO.P,SW22,2,2_2*%
%TO.N,Net-(D22-A)*%
X70551638Y-82730000D03*
D14*
X72101638Y-82730000D03*
D15*
X73796638Y-82730000D03*
%TO.P,SW22,1,1_1*%
%TO.N,COL3*%
X62306638Y-80530000D03*
D14*
X64001638Y-80530000D03*
D13*
X65551638Y-80530000D03*
%TD*%
%TO.P,SW23,2,2_2*%
%TO.N,Net-(D23-A)*%
X70551638Y-101830000D03*
D14*
X72101638Y-101830000D03*
D15*
X73796638Y-101830000D03*
%TO.P,SW23,1,1_1*%
%TO.N,COL3*%
X62306638Y-99630000D03*
D14*
X64001638Y-99630000D03*
D13*
X65551638Y-99630000D03*
%TD*%
%TO.P,SW24,2,2_2*%
%TO.N,Net-(D24-A)*%
X89651638Y-66130000D03*
D14*
X91201638Y-66130000D03*
D15*
X92896638Y-66130000D03*
%TO.P,SW24,1,1_1*%
%TO.N,COL3*%
X81406638Y-63930000D03*
D14*
X83101638Y-63930000D03*
D13*
X84651638Y-63930000D03*
%TD*%
%TO.P,SW29,2,2_2*%
%TO.N,Net-(D29-A)*%
X32551638Y-108930000D03*
D14*
X34101638Y-108930000D03*
D15*
X35796638Y-108930000D03*
%TO.P,SW29,1,1_1*%
%TO.N,COL4*%
X24306638Y-106730000D03*
D14*
X26001638Y-106730000D03*
D13*
X27551638Y-106730000D03*
%TD*%
%TO.P,SW30,2,2_2*%
%TO.N,Net-(D30-A)*%
X51551638Y-66130000D03*
D14*
X53101638Y-66130000D03*
D15*
X54796638Y-66130000D03*
%TO.P,SW30,1,1_1*%
%TO.N,COL4*%
X43306638Y-63930000D03*
D14*
X45001638Y-63930000D03*
D13*
X46551638Y-63930000D03*
%TD*%
%TO.P,SW31,2,2_2*%
%TO.N,Net-(D31-A)*%
X51551638Y-85130000D03*
D14*
X53101638Y-85130000D03*
D15*
X54796638Y-85130000D03*
%TO.P,SW31,1,1_1*%
%TO.N,COL4*%
X43306638Y-82930000D03*
D14*
X45001638Y-82930000D03*
D13*
X46551638Y-82930000D03*
%TD*%
%TO.P,SW32,2,2_2*%
%TO.N,Net-(D32-A)*%
X51551638Y-104130000D03*
D14*
X53101638Y-104130000D03*
D15*
X54796638Y-104130000D03*
%TO.P,SW32,1,1_1*%
%TO.N,COL4*%
X43306638Y-101930000D03*
D14*
X45001638Y-101930001D03*
D13*
X46551638Y-101930001D03*
%TD*%
%TO.P,SW37,2,2_2*%
%TO.N,Net-(D37-A)*%
X13551638Y-70830000D03*
D14*
X15101638Y-70830000D03*
D15*
X16796638Y-70830000D03*
%TO.P,SW37,1,1_1*%
%TO.N,COL5*%
X5306638Y-68630000D03*
D14*
X7001638Y-68630000D03*
D13*
X8551638Y-68630000D03*
%TD*%
%TO.P,SW38,2,2_2*%
%TO.N,/right/ROW1*%
X13551638Y-89930000D03*
D14*
X15101638Y-89930000D03*
D15*
X16796638Y-89930000D03*
%TO.P,SW38,1,1_1*%
%TO.N,COL5*%
X5306638Y-87730000D03*
D14*
X7001638Y-87730000D03*
D13*
X8551638Y-87730000D03*
%TD*%
%TO.P,SW39,2,2_2*%
%TO.N,Net-(D39-A)*%
X13551638Y-109030000D03*
D14*
X15101638Y-109030000D03*
D15*
X16796638Y-109030000D03*
%TO.P,SW39,1,1_1*%
%TO.N,COL5*%
X5306638Y-106830000D03*
D14*
X7001638Y-106830000D03*
D13*
X8551638Y-106830000D03*
%TD*%
%TO.P,SW40,2,2_2*%
%TO.N,Net-(D40-A)*%
X32551638Y-70830000D03*
D14*
X34101638Y-70830000D03*
D15*
X35796638Y-70830000D03*
%TO.P,SW40,1,1_1*%
%TO.N,COL5*%
X24306638Y-68630000D03*
D14*
X26001638Y-68630000D03*
D13*
X27551638Y-68630000D03*
%TD*%
%TO.P,SW42,2,2_2*%
%TO.N,Net-(D42-A)*%
X32551638Y-89930000D03*
D14*
X34101638Y-89930000D03*
D15*
X35796638Y-89930000D03*
%TO.P,SW42,1,1_1*%
%TO.N,COL5*%
X24306638Y-87730000D03*
D14*
X26001638Y-87730000D03*
D13*
X27551638Y-87730000D03*
%TD*%
D29*
%TO.P,SW44,MP*%
%TO.N,N/C*%
X127026638Y-106680000D03*
X127026638Y-95480000D03*
D28*
%TO.P,SW44,C,C_C*%
%TO.N,GND*%
X119526638Y-101080000D03*
%TO.P,SW44,B,B_B*%
%TO.N,ROT_B*%
X119526638Y-103580000D03*
D27*
%TO.P,SW44,A,A_A*%
%TO.N,ROT_A*%
X119526638Y-98580000D03*
D26*
%TO.P,SW44,*%
%TO.N,*%
X134026638Y-103580000D03*
X134026638Y-98580000D03*
%TD*%
D25*
%TO.P,OLED2,1,VCC_1*%
%TO.N,+5V*%
X128546638Y-89795000D03*
D24*
%TO.P,OLED2,2,GND_2*%
%TO.N,GND*%
X126006638Y-89795000D03*
%TO.P,OLED2,3,SDA_3*%
%TO.N,OLED_SDA*%
X123466638Y-89795000D03*
%TO.P,OLED2,4,SCL_4*%
%TO.N,OLED_SCL*%
X120926638Y-89795000D03*
%TD*%
D23*
%TO.P,PIR2,1,GND_1*%
%TO.N,GND*%
X145051638Y-80620000D03*
%TO.P,PIR2,2,ON_TIME_2*%
X147591638Y-78080000D03*
%TO.P,PIR2,3,VCC_3*%
%TO.N,+3V3*%
X145051638Y-75540000D03*
%TO.P,PIR2,4,OUT_4*%
%TO.N,PIR_OUT*%
X142511638Y-78080000D03*
%TD*%
D22*
%TO.P,U2,15,BAT_15*%
%TO.N,VBAT*%
X136151638Y-63080000D03*
%TO.P,U2,16,GND_16*%
%TO.N,GND*%
X136151638Y-59680000D03*
%TD*%
D30*
%TO.P,U4,1,A0_1*%
%TO.N,unconnected-(U4-A0-Pad1)*%
X131951638Y-74700000D03*
D10*
%TO.P,U4,2,A1_2*%
%TO.N,unconnected-(U4-A1-Pad2)*%
X131951638Y-77240000D03*
%TO.P,U4,3,A2_3*%
%TO.N,unconnected-(U4-A2-Pad3)*%
X131951638Y-79780000D03*
%TO.P,U4,4,P0_4*%
%TO.N,COL4*%
X131951638Y-82320000D03*
%TO.P,U4,5,P1_5*%
%TO.N,COL5*%
X131951638Y-84860000D03*
%TO.P,U4,6,P2_6*%
%TO.N,BACKLIGHT_LED*%
X131951638Y-87400000D03*
%TO.P,U4,7,P3_7*%
%TO.N,PIR_OUT*%
X131951638Y-89940000D03*
%TO.P,U4,8,GND_8*%
%TO.N,GND*%
X131951638Y-92480000D03*
%TO.P,U4,9,P4_9*%
%TO.N,ROT_A*%
X139571638Y-92480000D03*
%TO.P,U4,10,P5_10*%
%TO.N,ROT_B*%
X139571638Y-89940000D03*
%TO.P,U4,11,P6_11*%
%TO.N,OLED_SDA*%
X139571638Y-87400000D03*
%TO.P,U4,12,P7_12*%
%TO.N,OLED_SCL*%
X139571638Y-84860000D03*
%TO.P,U4,13,~{INT}_13*%
%TO.N,unconnected-(U4-~{INT}-Pad13)*%
X139571638Y-82320000D03*
%TO.P,U4,14,SCL_14*%
%TO.N,EXP_SCL*%
X139571638Y-79780000D03*
%TO.P,U4,15,SDA_15*%
%TO.N,EXP_SDA*%
X139571638Y-77240000D03*
%TO.P,U4,16,VDD_16*%
%TO.N,+5V*%
X139571638Y-74700000D03*
%TD*%
D17*
%TO.P,D21,1,K_1*%
%TO.N,/right/ROW1*%
X72501638Y-60180000D03*
%TO.P,D21,2,A_2*%
%TO.N,Net-(D21-A)*%
X75801638Y-60180000D03*
%TD*%
D16*
%TO.P,C34,1*%
%TO.N,+5V*%
X62101638Y-54480000D03*
%TO.P,C34,2*%
%TO.N,GND*%
X60201638Y-54480000D03*
%TD*%
D32*
%TO.P,D32,1,K_1*%
%TO.N,/right/ROW4*%
X62201638Y-94880000D03*
%TO.P,D32,2,A_2*%
%TO.N,Net-(D32-A)*%
X58901638Y-94880000D03*
%TD*%
D38*
%TO.P,TP4,1,1_1*%
%TO.N,GND*%
X139161638Y-59600000D03*
%TD*%
D32*
%TO.P,D4,1,K_1*%
%TO.N,/right/ROW2*%
X86451638Y-126480000D03*
%TO.P,D4,2,A_2*%
%TO.N,Net-(D4-A)*%
X83151638Y-126480000D03*
%TD*%
%TO.P,D40,1,K_1*%
%TO.N,/right/ROW4*%
X41201638Y-70780000D03*
%TO.P,D40,2,A_2*%
%TO.N,Net-(D40-A)*%
X37901638Y-70780000D03*
%TD*%
D16*
%TO.P,C8,1*%
%TO.N,+5V*%
X85001638Y-92780000D03*
%TO.P,C8,2*%
%TO.N,GND*%
X83101638Y-92780000D03*
%TD*%
D53*
%TO.P,C7,1*%
%TO.N,+5V*%
X118374362Y-117555000D03*
%TO.P,C7,2*%
%TO.N,GND*%
X116728914Y-116605000D03*
%TD*%
D17*
%TO.P,D38,1,K_1*%
%TO.N,/right/ROW2*%
X97301638Y-95780000D03*
%TO.P,D38,2,A_2*%
%TO.N,/right/ROW1*%
X100601638Y-95780000D03*
%TD*%
D16*
%TO.P,C12,1*%
%TO.N,+5V*%
X9101638Y-78580000D03*
%TO.P,C12,2*%
%TO.N,GND*%
X7201638Y-78580000D03*
%TD*%
%TO.P,C33,1*%
%TO.N,+5V*%
X47101638Y-73780000D03*
%TO.P,C33,2*%
%TO.N,GND*%
X45201638Y-73780000D03*
%TD*%
%TO.P,C32,1*%
%TO.N,+5V*%
X28101638Y-97480000D03*
%TO.P,C32,2*%
%TO.N,GND*%
X26201638Y-97480000D03*
%TD*%
D17*
%TO.P,D16,1,K_1*%
%TO.N,/right/ROW4*%
X97601638Y-79280000D03*
%TO.P,D16,2,A_2*%
%TO.N,Net-(D16-A)*%
X100901638Y-79280000D03*
%TD*%
D16*
%TO.P,C31,1*%
%TO.N,+5V*%
X104501638Y-76080000D03*
%TO.P,C31,2*%
%TO.N,GND*%
X102601638Y-76080000D03*
%TD*%
%TO.P,C20,1*%
%TO.N,+5V*%
X81101638Y-53079999D03*
%TO.P,C20,2*%
%TO.N,GND*%
X79201638Y-53079999D03*
%TD*%
%TO.P,C4,1*%
%TO.N,+5V*%
X75601638Y-112480000D03*
%TO.P,C4,2*%
%TO.N,GND*%
X73701638Y-112480000D03*
%TD*%
%TO.P,C23,1*%
%TO.N,+5V*%
X66101638Y-71380000D03*
%TO.P,C23,2*%
%TO.N,GND*%
X64201638Y-71380000D03*
%TD*%
%TO.P,C45,1*%
%TO.N,+5V*%
X104001638Y-95280000D03*
%TO.P,C45,2*%
%TO.N,GND*%
X102101638Y-95280000D03*
%TD*%
%TO.P,C35,1*%
%TO.N,+5V*%
X100101638Y-55080000D03*
%TO.P,C35,2*%
%TO.N,GND*%
X98201638Y-55080000D03*
%TD*%
D32*
%TO.P,D31,1,K_1*%
%TO.N,/right/ROW3*%
X43601638Y-104580000D03*
%TO.P,D31,2,A_2*%
%TO.N,Net-(D31-A)*%
X40301638Y-104580000D03*
%TD*%
%TO.P,D37,1,K_1*%
%TO.N,/right/ROW1*%
X43301638Y-80480000D03*
%TO.P,D37,2,A_2*%
%TO.N,Net-(D37-A)*%
X40001638Y-80480000D03*
%TD*%
D16*
%TO.P,C10,1*%
%TO.N,+5V*%
X85001638Y-73780000D03*
%TO.P,C10,2*%
%TO.N,GND*%
X83101638Y-73780000D03*
%TD*%
D32*
%TO.P,D30,1,K_1*%
%TO.N,/right/ROW2*%
X61851638Y-83380000D03*
%TO.P,D30,2,A_2*%
%TO.N,Net-(D30-A)*%
X58551638Y-83380000D03*
%TD*%
%TO.P,D13,1,K_1*%
%TO.N,/right/ROW1*%
X99001638Y-90480000D03*
%TO.P,D13,2,A_2*%
%TO.N,Net-(D13-A)*%
X95701638Y-90480000D03*
%TD*%
D16*
%TO.P,C44,1*%
%TO.N,+5V*%
X47101638Y-92780000D03*
%TO.P,C44,2*%
%TO.N,GND*%
X45201638Y-92780000D03*
%TD*%
D32*
%TO.P,D23,1,K_1*%
%TO.N,/right/ROW3*%
X79101638Y-102080000D03*
%TO.P,D23,2,A_2*%
%TO.N,Net-(D23-A)*%
X75801638Y-102080000D03*
%TD*%
D16*
%TO.P,C43,1*%
%TO.N,+5V*%
X99976638Y-72580000D03*
%TO.P,C43,2*%
%TO.N,GND*%
X98076638Y-72580000D03*
%TD*%
D34*
%TO.P,D6,1,K_1*%
%TO.N,/right/ROW3*%
X91951638Y-111480000D03*
%TO.P,D6,2,A_2*%
%TO.N,Net-(D6-A)*%
X91951638Y-114780000D03*
%TD*%
D16*
%TO.P,C47,1*%
%TO.N,+5V*%
X9101638Y-97580000D03*
%TO.P,C47,2*%
%TO.N,GND*%
X7201638Y-97580000D03*
%TD*%
D32*
%TO.P,D29,1,K_1*%
%TO.N,/right/ROW1*%
X62401638Y-58580000D03*
%TO.P,D29,2,A_2*%
%TO.N,Net-(D29-A)*%
X59101638Y-58580000D03*
%TD*%
D20*
%TO.P,C22,1*%
%TO.N,+5V*%
X97969268Y-114125878D03*
%TO.P,C22,2*%
%TO.N,GND*%
X96134008Y-113634122D03*
%TD*%
D32*
%TO.P,D42,1,K_1*%
%TO.N,ROW5*%
X43651638Y-97580000D03*
%TO.P,D42,2,A_2*%
%TO.N,Net-(D42-A)*%
X40351638Y-97580000D03*
%TD*%
D16*
%TO.P,C19,1*%
%TO.N,+5V*%
X9201638Y-59480000D03*
%TO.P,C19,2*%
%TO.N,GND*%
X7301638Y-59480000D03*
%TD*%
D32*
%TO.P,D8,1,K_1*%
%TO.N,/right/ROW4*%
X117101638Y-106580000D03*
%TO.P,D8,2,A_2*%
%TO.N,Net-(D8-A)*%
X113801638Y-106580000D03*
%TD*%
D17*
%TO.P,D15,1,K_1*%
%TO.N,/right/ROW3*%
X97301638Y-68980000D03*
%TO.P,D15,2,A_2*%
%TO.N,Net-(D15-A)*%
X100601638Y-68980000D03*
%TD*%
D16*
%TO.P,C21,1*%
%TO.N,+5V*%
X66101638Y-90480000D03*
%TO.P,C21,2*%
%TO.N,GND*%
X64201638Y-90480000D03*
%TD*%
D32*
%TO.P,D14,1,K_1*%
%TO.N,/right/ROW2*%
X98201638Y-101480000D03*
%TO.P,D14,2,A_2*%
%TO.N,Net-(D14-A)*%
X94901638Y-101480000D03*
%TD*%
%TO.P,D39,1,K_1*%
%TO.N,/right/ROW3*%
X29301638Y-111080000D03*
%TO.P,D39,2,A_2*%
%TO.N,Net-(D39-A)*%
X26001638Y-111080000D03*
%TD*%
D16*
%TO.P,C46,1*%
%TO.N,+5V*%
X28101638Y-78380000D03*
%TO.P,C46,2*%
%TO.N,GND*%
X26201638Y-78380000D03*
%TD*%
D17*
%TO.P,D2,1,K_1*%
%TO.N,/right/ROW1*%
X111201638Y-102980000D03*
%TO.P,D2,2,A_2*%
%TO.N,Net-(D2-A)*%
X114501638Y-102980000D03*
%TD*%
D38*
%TO.P,TP2,1,1_1*%
%TO.N,VBAT*%
X139401638Y-62940000D03*
%TD*%
D17*
%TO.P,D22,1,K_1*%
%TO.N,/right/ROW2*%
X63401638Y-84280000D03*
%TO.P,D22,2,A_2*%
%TO.N,Net-(D22-A)*%
X66701638Y-84280000D03*
%TD*%
D21*
%TO.P,D24,1,K_1*%
%TO.N,/right/ROW4*%
X102551638Y-73430000D03*
%TO.P,D24,2,A_2*%
%TO.N,Net-(D24-A)*%
X102551638Y-70130000D03*
%TD*%
D16*
%TO.P,C2,1*%
%TO.N,+5V*%
X43051638Y-57380000D03*
%TO.P,C2,2*%
%TO.N,GND*%
X41151638Y-57380000D03*
%TD*%
D54*
%TO.P,D84,1,VDD_1*%
%TO.N,+5V*%
X10926638Y-97630000D03*
%TO.P,D84,2,DOUT_2*%
%TO.N,unconnected-(D84-DOUT-Pad2)*%
X10926638Y-99130000D03*
%TO.P,D84,3,DIN_3*%
%TO.N,Net-(D82-DOUT)*%
X16376638Y-97630000D03*
D55*
%TO.P,D84,4,VSS_4*%
%TO.N,GND*%
X16376638Y-99130000D03*
%TD*%
D54*
%TO.P,D82,1,VDD_1*%
%TO.N,+5V*%
X29926638Y-97430000D03*
%TO.P,D82,2,DOUT_2*%
%TO.N,Net-(D82-DOUT)*%
X29926638Y-98930000D03*
%TO.P,D82,3,DIN_3*%
%TO.N,Net-(D81-DOUT)*%
X35376638Y-97430000D03*
D55*
%TO.P,D82,4,VSS_4*%
%TO.N,GND*%
X35376638Y-98930000D03*
%TD*%
D54*
%TO.P,D81,1,VDD_1*%
%TO.N,+5V*%
X48926638Y-92730000D03*
%TO.P,D81,2,DOUT_2*%
%TO.N,Net-(D81-DOUT)*%
X48926638Y-94230000D03*
%TO.P,D81,3,DIN_3*%
%TO.N,Net-(D80-DOUT)*%
X54376638Y-92730000D03*
D55*
%TO.P,D81,4,VSS_4*%
%TO.N,GND*%
X54376638Y-94230000D03*
%TD*%
D54*
%TO.P,D80,1,VDD_1*%
%TO.N,+5V*%
X67926638Y-90430000D03*
%TO.P,D80,2,DOUT_2*%
%TO.N,Net-(D80-DOUT)*%
X67926638Y-91930000D03*
%TO.P,D80,3,DIN_3*%
%TO.N,Net-(D79-DOUT)*%
X73376638Y-90430000D03*
D55*
%TO.P,D80,4,VSS_4*%
%TO.N,GND*%
X73376638Y-91930000D03*
%TD*%
D54*
%TO.P,D79,1,VDD_1*%
%TO.N,+5V*%
X86851638Y-92730000D03*
%TO.P,D79,2,DOUT_2*%
%TO.N,Net-(D79-DOUT)*%
X86851638Y-94230000D03*
%TO.P,D79,3,DIN_3*%
%TO.N,Net-(D78-DOUT)*%
X92301638Y-92730000D03*
D55*
%TO.P,D79,4,VSS_4*%
%TO.N,GND*%
X92301638Y-94230000D03*
%TD*%
D54*
%TO.P,D78,1,VDD_1*%
%TO.N,+5V*%
X105926638Y-95130000D03*
%TO.P,D78,2,DOUT_2*%
%TO.N,Net-(D78-DOUT)*%
X105926638Y-96630000D03*
%TO.P,D78,3,DIN_3*%
%TO.N,Net-(D72-DOUT)*%
X111376638Y-95130000D03*
D55*
%TO.P,D78,4,VSS_4*%
%TO.N,GND*%
X111376638Y-96630000D03*
%TD*%
D54*
%TO.P,D72,1,VDD_1*%
%TO.N,+5V*%
X77426638Y-112330000D03*
%TO.P,D72,2,DOUT_2*%
%TO.N,Net-(D72-DOUT)*%
X77426638Y-113830000D03*
%TO.P,D72,3,DIN_3*%
%TO.N,Net-(D71-DOUT)*%
X82876638Y-112330000D03*
D55*
%TO.P,D72,4,VSS_4*%
%TO.N,GND*%
X82876638Y-113830000D03*
%TD*%
D56*
%TO.P,D71,1,VDD_1*%
%TO.N,+5V*%
X99813604Y-114650274D03*
%TO.P,D71,2,DOUT_2*%
%TO.N,Net-(D71-DOUT)*%
X99425376Y-116099162D03*
%TO.P,D71,3,DIN_3*%
%TO.N,Net-(D70-DOUT)*%
X105077900Y-116060838D03*
D57*
%TO.P,D71,4,VSS_4*%
%TO.N,GND*%
X104689672Y-117509726D03*
%TD*%
D58*
%TO.P,D70,1,VDD_1*%
%TO.N,+5V*%
X129353054Y-125054982D03*
%TO.P,D70,2,DOUT_2*%
%TO.N,Net-(D70-DOUT)*%
X128054016Y-124304982D03*
%TO.P,D70,3,DIN_3*%
%TO.N,Net-(D69-DOUT)*%
X126628054Y-129774820D03*
D59*
%TO.P,D70,4,VSS_4*%
%TO.N,GND*%
X125329016Y-129024820D03*
%TD*%
D54*
%TO.P,D69,1,VDD_1*%
%TO.N,+5V*%
X10926638Y-78530000D03*
%TO.P,D69,2,DOUT_2*%
%TO.N,Net-(D69-DOUT)*%
X10926638Y-80030000D03*
%TO.P,D69,3,DIN_3*%
%TO.N,Net-(D68-DOUT)*%
X16376638Y-78530000D03*
D55*
%TO.P,D69,4,VSS_4*%
%TO.N,GND*%
X16376638Y-80030000D03*
%TD*%
D54*
%TO.P,D68,1,VDD_1*%
%TO.N,+5V*%
X29926638Y-78530000D03*
%TO.P,D68,2,DOUT_2*%
%TO.N,Net-(D68-DOUT)*%
X29926638Y-80030000D03*
%TO.P,D68,3,DIN_3*%
%TO.N,Net-(D62-DOUT)*%
X35376638Y-78530000D03*
D55*
%TO.P,D68,4,VSS_4*%
%TO.N,GND*%
X35376638Y-80030000D03*
%TD*%
D54*
%TO.P,D62,1,VDD_1*%
%TO.N,+5V*%
X48926638Y-73730000D03*
%TO.P,D62,2,DOUT_2*%
%TO.N,Net-(D62-DOUT)*%
X48926638Y-75230000D03*
%TO.P,D62,3,DIN_3*%
%TO.N,Net-(D61-DOUT)*%
X54376638Y-73730000D03*
D55*
%TO.P,D62,4,VSS_4*%
%TO.N,GND*%
X54376638Y-75230000D03*
%TD*%
D54*
%TO.P,D61,1,VDD_1*%
%TO.N,+5V*%
X67926638Y-71330000D03*
%TO.P,D61,2,DOUT_2*%
%TO.N,Net-(D61-DOUT)*%
X67926638Y-72830000D03*
%TO.P,D61,3,DIN_3*%
%TO.N,Net-(D60-DOUT)*%
X73376638Y-71330000D03*
D55*
%TO.P,D61,4,VSS_4*%
%TO.N,GND*%
X73376638Y-72830000D03*
%TD*%
D54*
%TO.P,D60,1,VDD_1*%
%TO.N,+5V*%
X86926638Y-73730000D03*
%TO.P,D60,2,DOUT_2*%
%TO.N,Net-(D60-DOUT)*%
X86926638Y-75230000D03*
%TO.P,D60,3,DIN_3*%
%TO.N,Net-(D59-DOUT)*%
X92376638Y-73730000D03*
D55*
%TO.P,D60,4,VSS_4*%
%TO.N,GND*%
X92376638Y-75230000D03*
%TD*%
D54*
%TO.P,D59,1,VDD_1*%
%TO.N,+5V*%
X106326638Y-76030000D03*
%TO.P,D59,2,DOUT_2*%
%TO.N,Net-(D59-DOUT)*%
X106326638Y-77530000D03*
%TO.P,D59,3,DIN_3*%
%TO.N,Net-(D58-DOUT)*%
X111776638Y-76030000D03*
D55*
%TO.P,D59,4,VSS_4*%
%TO.N,GND*%
X111776638Y-77530000D03*
%TD*%
D54*
%TO.P,D58,1,VDD_1*%
%TO.N,+5V*%
X105926638Y-57130000D03*
%TO.P,D58,2,DOUT_2*%
%TO.N,Net-(D58-DOUT)*%
X105926638Y-58630000D03*
%TO.P,D58,3,DIN_3*%
%TO.N,Net-(D52-DOUT)*%
X111376638Y-57130000D03*
D55*
%TO.P,D58,4,VSS_4*%
%TO.N,GND*%
X111376638Y-58630000D03*
%TD*%
D54*
%TO.P,D52,1,VDD_1*%
%TO.N,+5V*%
X11026638Y-59430000D03*
%TO.P,D52,2,DOUT_2*%
%TO.N,Net-(D52-DOUT)*%
X11026638Y-60930000D03*
%TO.P,D52,3,DIN_3*%
%TO.N,Net-(D50-DOUT)*%
X16476638Y-59430000D03*
D55*
%TO.P,D52,4,VSS_4*%
%TO.N,GND*%
X16476638Y-60930000D03*
%TD*%
D54*
%TO.P,D50,1,VDD_1*%
%TO.N,+5V*%
X29926638Y-59430000D03*
%TO.P,D50,2,DOUT_2*%
%TO.N,Net-(D50-DOUT)*%
X29926638Y-60930000D03*
%TO.P,D50,3,DIN_3*%
%TO.N,Net-(D49-DOUT)*%
X35376638Y-59430000D03*
D55*
%TO.P,D50,4,VSS_4*%
%TO.N,GND*%
X35376638Y-60930000D03*
%TD*%
D54*
%TO.P,D49,1,VDD_1*%
%TO.N,+5V*%
X48926638Y-54730000D03*
%TO.P,D49,2,DOUT_2*%
%TO.N,Net-(D49-DOUT)*%
X48926638Y-56230000D03*
%TO.P,D49,3,DIN_3*%
%TO.N,Net-(D46-DOUT)*%
X54376638Y-54730000D03*
D55*
%TO.P,D49,4,VSS_4*%
%TO.N,GND*%
X54376638Y-56230000D03*
%TD*%
D54*
%TO.P,D46,1,VDD_1*%
%TO.N,+5V*%
X68026638Y-52330000D03*
%TO.P,D46,2,DOUT_2*%
%TO.N,Net-(D46-DOUT)*%
X68026638Y-53830000D03*
%TO.P,D46,3,DIN_3*%
%TO.N,Net-(D44-DOUT)*%
X73476638Y-52330000D03*
D55*
%TO.P,D46,4,VSS_4*%
%TO.N,GND*%
X73476638Y-53830000D03*
%TD*%
D54*
%TO.P,D44,1,VDD_1*%
%TO.N,+5V*%
X87126638Y-54730000D03*
%TO.P,D44,2,DOUT_2*%
%TO.N,Net-(D44-DOUT)*%
X87126638Y-56230000D03*
%TO.P,D44,3,DIN_3*%
%TO.N,Net-(D44-DIN)*%
X92576638Y-54730000D03*
D55*
%TO.P,D44,4,VSS_4*%
%TO.N,GND*%
X92576638Y-56230000D03*
%TD*%
D60*
%TO.N,/right/ROW1*%
X73930000Y-59410000D03*
%TO.N,Net-(D51-DOUT)*%
X298590000Y-57760000D03*
X207650000Y-59602951D03*
%TO.N,Net-(D44-DIN)*%
X127251638Y-53780000D03*
%TO.N,GND*%
X135685046Y-104255046D03*
%TO.N,BAT_PIN*%
X119696237Y-106153763D03*
%TO.N,+5V*%
X180160167Y-56509833D03*
%TO.N,GND*%
X212466638Y-92730000D03*
X252280167Y-92789833D03*
X210166638Y-94420000D03*
X254723319Y-91336681D03*
X273710903Y-77775735D03*
X254590903Y-53855735D03*
X227070167Y-90369833D03*
X207436638Y-56540000D03*
X216020167Y-113969833D03*
X224961721Y-75101387D03*
X172050167Y-94109833D03*
X233932728Y-112950000D03*
X275798956Y-95767394D03*
X262628486Y-91345485D03*
X196132951Y-59602951D03*
X283161638Y-97209833D03*
X252036638Y-57230000D03*
X273136638Y-58080000D03*
X211380167Y-112469833D03*
X283750167Y-95629833D03*
X281589686Y-79300000D03*
X216439353Y-72052715D03*
%TO.N,BAT_PIN*%
X172411638Y-104510000D03*
%TO.N,COL4*%
X225070167Y-113199833D03*
X176150167Y-81519833D03*
%TO.N,COL1*%
X185336638Y-115690000D03*
X160080167Y-58744788D03*
%TO.N,COL2*%
X165240167Y-57550000D03*
%TO.N,COL3*%
X163554091Y-65125909D03*
X197435167Y-72544833D03*
X179990167Y-66489833D03*
%TO.N,ROW5*%
X283330167Y-94859833D03*
%TO.N,/left/ROW4*%
X184890167Y-113509833D03*
X222890167Y-71429833D03*
X265930167Y-105419833D03*
X214920167Y-77449833D03*
X243813754Y-107359833D03*
X202090167Y-92899833D03*
X277100167Y-75209833D03*
%TO.N,/left/ROW3*%
X238790167Y-107069833D03*
X264220167Y-90239833D03*
X216260167Y-120419833D03*
X256420167Y-96789833D03*
X206940167Y-73709833D03*
%TO.N,/left/ROW2*%
X237570167Y-116359833D03*
X180890167Y-66869833D03*
X237410167Y-102859833D03*
X237420167Y-104489833D03*
X180010167Y-64299833D03*
X244310167Y-87109833D03*
X208576638Y-96400000D03*
X235736225Y-102333775D03*
X251210167Y-71069833D03*
%TO.N,/left/ROW1*%
X222870167Y-90109833D03*
X175300167Y-64289833D03*
X251261638Y-58450000D03*
X298226638Y-75889833D03*
X285626136Y-111313864D03*
%TO.N,Net-(D64-DOUT)*%
X299041329Y-77221255D03*
X300370167Y-80869833D03*
X265590167Y-107969833D03*
X279323351Y-101183499D03*
%TO.N,Net-(D43-DIN)*%
X215240167Y-56279833D03*
%TO.N,Net-(D67-DOUT)*%
X231400167Y-109649833D03*
X198930167Y-97800000D03*
%TO.N,Net-(D7-A)*%
X187496638Y-116280000D03*
%TO.N,+5V*%
X100706116Y-97997914D03*
X103545848Y-93515263D03*
%TO.N,GND*%
X118351638Y-88846346D03*
X19851638Y-79180000D03*
X92851638Y-76180000D03*
X57251638Y-54480000D03*
X28351638Y-81180000D03*
X65551638Y-92130000D03*
X17851638Y-99680000D03*
X95451638Y-112180000D03*
X96251638Y-72780000D03*
X43351638Y-60030000D03*
X94851638Y-114880000D03*
X74251638Y-74580000D03*
X55451638Y-94980000D03*
X18551638Y-81380000D03*
X76551638Y-92180000D03*
X55651638Y-56680000D03*
X94801638Y-75780000D03*
X17251638Y-62480000D03*
X146611638Y-58070000D03*
X40951638Y-58780000D03*
X37251638Y-98580000D03*
X115351638Y-116080000D03*
X105051638Y-119480000D03*
X113351638Y-98380000D03*
X9901638Y-86056679D03*
X16851638Y-101280000D03*
X65351638Y-72680000D03*
X74151638Y-94180000D03*
X77551638Y-73880000D03*
X118351638Y-86380000D03*
X8851638Y-62280000D03*
X26351638Y-99530000D03*
X52374409Y-83143657D03*
X25151638Y-98330000D03*
X14726358Y-81697082D03*
X26021638Y-74970000D03*
X35951638Y-95580000D03*
X44951638Y-91155000D03*
%TO.N,VBAT*%
X148821246Y-83899608D03*
%TO.N,BAT_PIN*%
X129851638Y-55180000D03*
%TO.N,COL4*%
X114551638Y-83980000D03*
X48956638Y-88580000D03*
%TO.N,COL1*%
X130140903Y-56890735D03*
X150532463Y-76075873D03*
%TO.N,COL2*%
X100051638Y-57730000D03*
%TO.N,COL3*%
X100703110Y-56530000D03*
%TO.N,ROW5*%
X94551638Y-100230000D03*
%TO.N,/right/ROW4*%
X97251638Y-83580000D03*
X86251638Y-69080000D03*
X95751638Y-93780000D03*
X111751638Y-97880000D03*
X100351638Y-74580000D03*
%TO.N,/right/ROW3*%
X80351638Y-97480000D03*
X99251635Y-57730000D03*
X42201638Y-108330000D03*
X44551638Y-105480000D03*
X129151638Y-55780000D03*
X146651638Y-66880000D03*
X78090000Y-105480000D03*
X96151638Y-68480000D03*
%TO.N,/right/ROW2*%
X98251638Y-102880000D03*
X56051638Y-87980000D03*
X95751638Y-96580000D03*
X88251638Y-123480000D03*
%TO.N,/right/ROW1*%
X45075251Y-77603613D03*
X100151638Y-90480000D03*
X59341638Y-61540000D03*
X100115776Y-94167332D03*
%TO.N,Net-(D44-DIN)*%
X97051638Y-54480000D03*
%TO.N,Net-(D69-DOUT)*%
X11051638Y-81880000D03*
X11631638Y-107600000D03*
%TO.N,Net-(D72-DOUT)*%
X112851638Y-95780000D03*
X77651638Y-115780000D03*
%TO.N,Net-(D30-A)*%
X60051638Y-81980000D03*
%TO.N,Net-(D29-A)*%
X44051638Y-60880000D03*
%TO.N,Net-(D44-DOUT)*%
X78651638Y-56780000D03*
X75251638Y-52280000D03*
%TO.N,Net-(D31-A)*%
X40151638Y-100980000D03*
%TO.N,Net-(D52-DOUT)*%
X93751638Y-52580000D03*
X10951638Y-62230000D03*
%TO.N,Net-(D8-A)*%
X118225819Y-114354181D03*
%TO.N,Net-(D42-A)*%
X38451638Y-97180000D03*
%TD*%
%TO.N,BAT_PIN*%
D61*
X172411638Y-104510000D02*
X172366439Y-104555199D01*
X172366439Y-104555199D02*
X172366439Y-110759941D01*
X172366439Y-110759941D02*
X173010248Y-111403750D01*
%TO.N,GND*%
X171429752Y-112316250D02*
X171429752Y-94600248D01*
X171429752Y-94600248D02*
X171920167Y-94109833D01*
X171920167Y-94109833D02*
X172050167Y-94109833D01*
%TO.N,BAT_PIN*%
X173010248Y-111403750D02*
X174181201Y-111403750D01*
X174181201Y-111403750D02*
X183688960Y-120911509D01*
X186799990Y-119269522D02*
X190500351Y-115569162D01*
X183688960Y-120911509D02*
X185158003Y-120911509D01*
X185158003Y-120911509D02*
X185158003Y-120898635D01*
X185158003Y-120898635D02*
X186787116Y-119269522D01*
X186787116Y-119269522D02*
X186799990Y-119269522D01*
X190500351Y-115569162D02*
X194043338Y-115569162D01*
X194043338Y-115569162D02*
X199102500Y-110510000D01*
%TO.N,GND*%
X133327273Y-101080000D02*
X119526638Y-101080000D01*
X135685046Y-104255046D02*
X135685046Y-103437773D01*
X135685046Y-103437773D02*
X133327273Y-101080000D01*
%TO.N,Net-(D44-DIN)*%
X143507638Y-90380000D02*
X141140000Y-92747638D01*
X141140000Y-92747638D02*
X141140000Y-93360000D01*
X141140000Y-93360000D02*
X139330000Y-95170000D01*
%TO.N,+5V*%
X51376638Y-70355000D02*
X65076638Y-70355000D01*
%TO.N,ROW5*%
X77914380Y-96280000D02*
X83748694Y-96280000D01*
%TO.N,GND*%
X26351638Y-99530000D02*
X27201638Y-100380000D01*
X30151638Y-100380000D02*
X30701638Y-100930000D01*
X27201638Y-100380000D02*
X30151638Y-100380000D01*
X30701638Y-100930000D02*
X34601638Y-100930000D01*
X34601638Y-100930000D02*
X35376638Y-100155000D01*
X35376638Y-100155000D02*
X35376638Y-98930000D01*
%TO.N,Net-(D28-A)*%
X260361638Y-104000000D02*
X262056638Y-104000000D01*
X258811638Y-104000000D02*
X260361638Y-104000000D01*
%TO.N,Net-(D63-DOUT)*%
X281611638Y-77225000D02*
X291311638Y-77225000D01*
%TO.N,GND*%
X197186638Y-71944833D02*
X209881471Y-71944833D01*
X209881471Y-71944833D02*
X210386638Y-72450000D01*
%TO.N,ROW5*%
X281280167Y-95147333D02*
X282582667Y-95147333D01*
%TO.N,/right/ROW1*%
X73271638Y-59410000D02*
X72501638Y-60180000D01*
X73930000Y-59410000D02*
X73271638Y-59410000D01*
%TO.N,Net-(D20-A)*%
X224250167Y-67857333D02*
X224250167Y-66293529D01*
X224250167Y-66293529D02*
X223956638Y-66000000D01*
%TO.N,GND*%
X301161638Y-59350000D02*
X298971638Y-57160000D01*
X298971638Y-57160000D02*
X295256638Y-57160000D01*
X295256638Y-57160000D02*
X293886638Y-58530000D01*
X293886638Y-58530000D02*
X293886638Y-59300000D01*
%TO.N,Net-(D51-DOUT)*%
X298590000Y-57760000D02*
X298590000Y-58553362D01*
X298590000Y-58553362D02*
X299336638Y-59300000D01*
X198986638Y-58500000D02*
X200089589Y-59602951D01*
X200089589Y-59602951D02*
X207650000Y-59602951D01*
%TO.N,GND*%
X196132951Y-59602951D02*
X196383687Y-59602951D01*
X196383687Y-59602951D02*
X198986638Y-57000000D01*
X196132951Y-59602951D02*
X198761638Y-62231638D01*
X198761638Y-62231638D02*
X198761638Y-70369833D01*
X198761638Y-70369833D02*
X197186638Y-71944833D01*
X196835167Y-72296304D02*
X197186638Y-71944833D01*
X196132951Y-59602951D02*
X196132951Y-59602948D01*
X198976638Y-57000000D02*
X198986638Y-57000000D01*
%TO.N,Net-(D44-DIN)*%
X127251638Y-57730612D02*
X127885513Y-58364487D01*
X127885513Y-58364487D02*
X143507638Y-73986611D01*
X127251638Y-53780000D02*
X127251638Y-57730612D01*
X127251638Y-57730611D02*
X127885513Y-58364487D01*
X143507638Y-73986611D02*
X143507638Y-90380000D01*
%TO.N,VBAT*%
X195301805Y-110599833D02*
X195391638Y-110510000D01*
X195391638Y-110510000D02*
X197277500Y-110510000D01*
%TO.N,GND*%
X171429752Y-112316250D02*
X171429752Y-113177479D01*
X171429752Y-113177479D02*
X180846137Y-122593863D01*
%TO.N,BACKLIGHT_LED*%
X139170000Y-106133350D02*
X138599576Y-106703774D01*
X137395412Y-106703774D02*
X135571638Y-104880000D01*
X118988160Y-104880000D02*
X118226638Y-104118478D01*
X135571638Y-104880000D02*
X118988160Y-104880000D01*
X118226638Y-104118478D02*
X118226638Y-97280000D01*
X138599576Y-106703774D02*
X137395412Y-106703774D01*
X139170000Y-103532500D02*
X139170000Y-106133350D01*
X130851638Y-88500000D02*
X131951638Y-87400000D01*
X130151638Y-92780000D02*
X130851638Y-92080000D01*
X118226638Y-97280000D02*
X122726638Y-92780000D01*
X122726638Y-92780000D02*
X130151638Y-92780000D01*
X130851638Y-92080000D02*
X130851638Y-88500000D01*
%TO.N,Net-(D8-A)*%
X116251638Y-112380000D02*
X115156003Y-112380000D01*
X118225819Y-114354181D02*
X116251638Y-112380000D01*
X115156003Y-112380000D02*
X113511638Y-110735635D01*
X113511638Y-110735635D02*
X113511638Y-106870000D01*
X113511638Y-106870000D02*
X113801638Y-106580000D01*
%TO.N,BAT_PIN*%
X119696237Y-106153763D02*
X117826638Y-104284163D01*
%TO.N,/right/ROW3*%
X78090000Y-105480000D02*
X78251638Y-105480000D01*
X78251638Y-105480000D02*
X78551638Y-105180000D01*
X78551638Y-105180000D02*
X78551638Y-102630000D01*
X78551638Y-102630000D02*
X79101638Y-102080000D01*
%TO.N,+5V*%
X299070167Y-62369833D02*
X299070167Y-63205585D01*
X301814582Y-65950000D02*
X301814582Y-77897056D01*
X299070167Y-63205585D02*
X301814582Y-65950000D01*
X301814582Y-77897056D02*
X301261638Y-78450000D01*
X299070167Y-62369833D02*
X299336638Y-62103362D01*
X299336638Y-62103362D02*
X299336638Y-60800000D01*
X281866638Y-62230000D02*
X282006471Y-62369833D01*
X282006471Y-62369833D02*
X299070167Y-62369833D01*
%TO.N,GND*%
X236986638Y-90300000D02*
X236986638Y-89783362D01*
X244261638Y-71250000D02*
X246611638Y-73600000D01*
X224908345Y-58850000D02*
X216495334Y-67263011D01*
X262628486Y-92016848D02*
X263261638Y-92650000D01*
X204596805Y-93499833D02*
X204726638Y-93370000D01*
X206540167Y-113189833D02*
X206130167Y-113599833D01*
X242036638Y-89010000D02*
X241996638Y-89050000D01*
X217786638Y-53760000D02*
X218596639Y-52949999D01*
X198986638Y-93892157D02*
X199378962Y-93499833D01*
X206130167Y-114063711D02*
X205673604Y-114520274D01*
X255986638Y-92600000D02*
X256000167Y-92586471D01*
X303861638Y-58640256D02*
X303861638Y-77750000D01*
X218061638Y-92600000D02*
X218061638Y-91989666D01*
X240861421Y-59720000D02*
X235816855Y-59720000D01*
X218061638Y-91989666D02*
X220541471Y-89509833D01*
X274362373Y-77775735D02*
X274986638Y-78400000D01*
X242421638Y-69410000D02*
X244261638Y-71250000D01*
X248261638Y-54350000D02*
X246231421Y-54350000D01*
X236986638Y-89783362D02*
X237906213Y-88863787D01*
X216439353Y-72052715D02*
X216439353Y-70372715D01*
X275916638Y-57710000D02*
X292296638Y-57710000D01*
X216495334Y-70316734D02*
X216439353Y-70372715D01*
X246231421Y-54350000D02*
X240861421Y-59720000D01*
X204130167Y-74218529D02*
X205861638Y-75950000D01*
X209871638Y-94125000D02*
X210166638Y-94420000D01*
X206130167Y-113599833D02*
X206130167Y-114063711D01*
X273136638Y-58080000D02*
X273316638Y-58260000D01*
X254242333Y-58379833D02*
X257962500Y-62100000D01*
X205861638Y-75225000D02*
X205861638Y-75950000D01*
X251951638Y-57725000D02*
X252606471Y-58379833D01*
X255242373Y-53855735D02*
X255986638Y-54600000D01*
X251951638Y-57725000D02*
X252036638Y-57640000D01*
X301161638Y-59350000D02*
X302186638Y-58325000D01*
X251861638Y-58698529D02*
X251861638Y-57950000D01*
X252606471Y-58379833D02*
X254242333Y-58379833D01*
X260564582Y-62100000D02*
X265414582Y-57250000D01*
X216495334Y-67263011D02*
X216495334Y-70316734D01*
X237906213Y-88863787D02*
X237935361Y-88863787D01*
X273316638Y-58260000D02*
X273946638Y-58260000D01*
X252036638Y-57640000D02*
X252036638Y-57230000D01*
X179810167Y-123629833D02*
X180846137Y-122593863D01*
X204130167Y-74148529D02*
X196835167Y-74148529D01*
X254723319Y-91336681D02*
X252396638Y-89010000D01*
%TO.N,+5V*%
X204436638Y-97473362D02*
X204436638Y-96500000D01*
X204349908Y-118423504D02*
X208449908Y-122523504D01*
X223436638Y-75100000D02*
X224206471Y-75869833D01*
X272850167Y-81489833D02*
X279620167Y-81489833D01*
X235511638Y-76152944D02*
X235511638Y-76449833D01*
X204436638Y-100736304D02*
X204436638Y-96500000D01*
X280436638Y-80533362D02*
X280436638Y-79900000D01*
X222570167Y-57689833D02*
X223236638Y-57023362D01*
X242716805Y-53319833D02*
X242336638Y-53700000D01*
X217365313Y-110859833D02*
X214229268Y-113995878D01*
X208611638Y-58500000D02*
X208611638Y-63412608D01*
X227261638Y-73650000D02*
X228071471Y-74459833D01*
X208611638Y-63412608D02*
X213830167Y-68631137D01*
X265034415Y-100469833D02*
X261436638Y-96872056D01*
X223436638Y-75843362D02*
X223436638Y-75100000D01*
X299436638Y-99000000D02*
X301611638Y-99000000D01*
X282511638Y-79900000D02*
X284161638Y-78250000D01*
X223736638Y-55600000D02*
X241770000Y-55600000D01*
X299436638Y-100073362D02*
X299436638Y-99000000D01*
X223511638Y-94858362D02*
X223511638Y-94100000D01*
X223436638Y-75826304D02*
X224060167Y-76449833D01*
X214901471Y-57689833D02*
X222570167Y-57689833D01*
X279620167Y-81349833D02*
X280436638Y-80533362D01*
X250095167Y-91544833D02*
X251967971Y-91544833D01*
X228210167Y-110859833D02*
X217365313Y-110859833D01*
X211349046Y-118179100D02*
X210549672Y-117379726D01*
X280170167Y-99066471D02*
X280170167Y-100469833D01*
X265161638Y-92650000D02*
X265161638Y-81597056D01*
X222750167Y-95619833D02*
X223511638Y-94858362D01*
X195505943Y-90654833D02*
X204036638Y-82124138D01*
X236712333Y-76449833D02*
X238962500Y-78700000D01*
X208611638Y-58500000D02*
X212161638Y-54950000D01*
X228820167Y-94059833D02*
X229040167Y-93839833D01*
X303161638Y-97450000D02*
X303940167Y-96671471D01*
X295290167Y-100929833D02*
X295400167Y-100819833D01*
X214831805Y-52279833D02*
X217800167Y-52279833D01*
X204036638Y-82124138D02*
X204036638Y-77400000D01*
X189555167Y-90654833D02*
X189555167Y-85739833D01*
X253791471Y-57979833D02*
X260250167Y-57979833D01*
X194044481Y-123479833D02*
X199100810Y-118423504D01*
X301611638Y-60800000D02*
X303061638Y-59350000D01*
X203790167Y-98119833D02*
X204436638Y-97473362D01*
X232971471Y-108659833D02*
X230420167Y-108659833D01*
X284161638Y-78250000D02*
X287381471Y-81469833D01*
X299026638Y-81469833D02*
X299436638Y-81059833D01*
X234808694Y-75450000D02*
X235511638Y-76152944D01*
X223436638Y-75100000D02*
X223436638Y-75826304D01*
X227400167Y-94059833D02*
X227360000Y-94100000D01*
X184698228Y-130489833D02*
X186990167Y-130489833D01*
X265161638Y-73650000D02*
X272103921Y-73650000D01*
X250161638Y-54350000D02*
X249131471Y-53319833D01*
X260480167Y-95709833D02*
X261436638Y-94753362D01*
X248300334Y-91800000D02*
X242436638Y-91800000D01*
X241770000Y-55600000D02*
X242336638Y-55033362D01*
X280436638Y-98800000D02*
X280170167Y-99066471D01*
X235511638Y-76449833D02*
X236712333Y-76449833D01*
X198761638Y-86007717D02*
X198761638Y-79038500D01*
X261436638Y-75100000D02*
X266460334Y-75100000D01*
X183673147Y-129464752D02*
X184698228Y-130489833D01*
X246161638Y-71250000D02*
X246941805Y-70469833D01*
X233111638Y-76449833D02*
X233111638Y-76152944D01*
X261436638Y-56793362D02*
X261436638Y-56100000D01*
X211349046Y-121322642D02*
X211349046Y-118179100D01*
X197300334Y-98400000D02*
X202740000Y-98400000D01*
X241280167Y-74459833D02*
X242436638Y-73303362D01*
X228820167Y-94059833D02*
X227400167Y-94059833D01*
X189555167Y-90654833D02*
X197300334Y-98400000D01*
X265161638Y-61300000D02*
X269211638Y-57250000D01*
X260250167Y-57979833D02*
X261436638Y-56793362D01*
X256132971Y-95709833D02*
X260480167Y-95709833D01*
X207761638Y-76675000D02*
X207761638Y-75950000D01*
X189555167Y-90654833D02*
X195505943Y-90654833D01*
X202740000Y-98400000D02*
X203020167Y-98119833D01*
X208591471Y-76779833D02*
X222500167Y-76779833D01*
X236661638Y-112350000D02*
X232971471Y-108659833D01*
X236661638Y-102092283D02*
X242436638Y-96317283D01*
X264181471Y-70469833D02*
X265161638Y-71450000D01*
X303940167Y-90779365D02*
X299436638Y-86275836D01*
X295400167Y-100819833D02*
X298690167Y-100819833D01*
X279620167Y-81489833D02*
X279620167Y-81349833D01*
X272103921Y-73650000D02*
X281866638Y-63887283D01*
X281866638Y-63887283D02*
X281866638Y-62230000D01*
X214229268Y-110528934D02*
X204436638Y-100736304D01*
X228480167Y-110599833D02*
X228470167Y-110599833D01*
X280436638Y-60800000D02*
X281866638Y-62230000D01*
X218155001Y-51924999D02*
X230136638Y-51924999D01*
X299436638Y-86275836D02*
X299436638Y-81059833D01*
X213830167Y-70049833D02*
X212286638Y-71593362D01*
X208449908Y-122523504D02*
X210148184Y-122523504D01*
X224206471Y-75869833D02*
X225041805Y-75869833D01*
X224433744Y-116330838D02*
X228731662Y-116330838D01*
X280436638Y-79900000D02*
X282511638Y-79900000D01*
X233111638Y-76152944D02*
X233814582Y-75450000D01*
X224060167Y-76449833D02*
X233111638Y-76449833D01*
X233890167Y-113689833D02*
X235321805Y-113689833D01*
X228470167Y-110599833D02*
X228210167Y-110859833D01*
X204036638Y-77400000D02*
X207036638Y-77400000D01*
X242436638Y-96317283D02*
X242436638Y-91800000D01*
X287741471Y-100929833D02*
X295290167Y-100929833D01*
X190965334Y-87150000D02*
X197619355Y-87150000D01*
X242336638Y-55033362D02*
X242336638Y-53700000D01*
X206911638Y-96500000D02*
X204436638Y-96500000D01*
X222500167Y-76779833D02*
X223436638Y-75843362D01*
X282711638Y-98800000D02*
X284161638Y-97350000D01*
X180160167Y-60437029D02*
X180160167Y-56509833D01*
X253664582Y-77000000D02*
X260430334Y-77000000D01*
X261436638Y-96872056D02*
X261436638Y-94100000D01*
X251967971Y-91544833D02*
X256132971Y-95709833D01*
X212286638Y-71593362D02*
X212286638Y-72450000D01*
X189555167Y-85739833D02*
X178365167Y-74549833D01*
X301611638Y-99000000D02*
X303161638Y-97450000D01*
X228071471Y-74459833D02*
X241280167Y-74459833D01*
X280436638Y-98800000D02*
X282711638Y-98800000D01*
X204436638Y-58500000D02*
X208611638Y-58500000D01*
X223236638Y-57023362D02*
X223236638Y-56100000D01*
X229832667Y-115229833D02*
X232430167Y-115229833D01*
X225041805Y-75869833D02*
X227261638Y-73650000D01*
X265161638Y-73650000D02*
X265161638Y-71450000D01*
X246941805Y-70469833D02*
X264181471Y-70469833D01*
X197619355Y-87150000D02*
X198761638Y-86007717D01*
X242436638Y-73303362D02*
X242436638Y-72700000D01*
X208261638Y-95150000D02*
X206911638Y-96500000D01*
X260430334Y-77000000D02*
X261330167Y-77899833D01*
X232936638Y-114723362D02*
X232936638Y-113700000D01*
X233814582Y-75450000D02*
X234808694Y-75450000D01*
X268061638Y-56100000D02*
X261436638Y-56100000D01*
X251964582Y-78700000D02*
X253664582Y-77000000D01*
X230136638Y-51924999D02*
X231161638Y-52949999D01*
X233880000Y-113700000D02*
X233890167Y-113689833D01*
X215112500Y-95150000D02*
X215582333Y-95619833D01*
X266460334Y-75100000D02*
X272850167Y-81489833D01*
X235321805Y-113689833D02*
X236661638Y-112350000D01*
X223236638Y-56100000D02*
X223736638Y-55600000D01*
X261436638Y-94753362D02*
X261436638Y-94100000D01*
X284161638Y-97350000D02*
X287741471Y-100929833D01*
X229040167Y-93839833D02*
X229040167Y-92419833D01*
X265161638Y-81597056D02*
X261436638Y-77872056D01*
X232430167Y-115229833D02*
X232936638Y-114723362D01*
X212161638Y-54950000D02*
X214901471Y-57689833D01*
X303940167Y-96671471D02*
X303940167Y-90779365D01*
X299436638Y-79900000D02*
X300886638Y-78450000D01*
X208261638Y-95150000D02*
X215112500Y-95150000D01*
X298690167Y-100819833D02*
X299436638Y-100073362D01*
X217800167Y-52279833D02*
X218155001Y-51924999D01*
X300886638Y-78450000D02*
X301261638Y-78450000D01*
X190940844Y-123479833D02*
X194044481Y-123479833D01*
X299436638Y-81059833D02*
X299436638Y-79900000D01*
X261330167Y-77899833D02*
X261436638Y-77793362D01*
X238962500Y-78700000D02*
X251964582Y-78700000D01*
X232936638Y-113700000D02*
X233880000Y-113700000D01*
X236661638Y-112350000D02*
X236661638Y-102092283D01*
X213830167Y-68631137D02*
X213830167Y-70049833D01*
X178365167Y-74549833D02*
X190965334Y-87150000D01*
X210148184Y-122523504D02*
X211349046Y-121322642D01*
X186990167Y-130489833D02*
X186990167Y-127430510D01*
X215582333Y-95619833D02*
X222750167Y-95619833D01*
X299336638Y-60800000D02*
X301611638Y-60800000D01*
X230420167Y-108659833D02*
X228480167Y-110599833D01*
X280170167Y-100469833D02*
X265034415Y-100469833D01*
X199100810Y-118423504D02*
X204349908Y-118423504D01*
X223384856Y-117379726D02*
X224433744Y-116330838D01*
X228731662Y-116330838D02*
X229832667Y-115229833D01*
X227360000Y-94100000D02*
X223511638Y-94100000D01*
X203020167Y-98119833D02*
X203790167Y-98119833D01*
X249070167Y-92569833D02*
X250095167Y-91544833D01*
X212161638Y-54950000D02*
X214831805Y-52279833D01*
X207761638Y-75950000D02*
X208591471Y-76779833D01*
X207036638Y-77400000D02*
X207761638Y-76675000D01*
X249131471Y-53319833D02*
X242716805Y-53319833D01*
X265161638Y-71450000D02*
X265161638Y-61300000D01*
X210549672Y-117379726D02*
X223384856Y-117379726D01*
X261436638Y-77793362D02*
X261436638Y-75100000D01*
X186990167Y-127430510D02*
X190940844Y-123479833D01*
X269211638Y-57250000D02*
X268061638Y-56100000D01*
X250161638Y-54350000D02*
X253791471Y-57979833D01*
X287381471Y-81469833D02*
X299026638Y-81469833D01*
X198761638Y-79038500D02*
X180160167Y-60437029D01*
X261436638Y-77872056D02*
X261436638Y-77793362D01*
X249070167Y-92569833D02*
X248300334Y-91800000D01*
X214229268Y-113995878D02*
X214229268Y-110528934D01*
%TO.N,GND*%
X251794138Y-57882500D02*
X248261638Y-54350000D01*
X183984482Y-132069833D02*
X179810167Y-127895518D01*
X282261638Y-78250000D02*
X282261638Y-78628048D01*
X164026712Y-64750000D02*
X166610000Y-64750000D01*
X235816855Y-59720000D02*
X234946855Y-58850000D01*
X250970167Y-92569833D02*
X252060167Y-92569833D01*
X226330167Y-91109833D02*
X227070167Y-90369833D01*
X303861638Y-77750000D02*
X303161638Y-78450000D01*
X212596638Y-92600000D02*
X218061638Y-92600000D01*
X255986638Y-72650000D02*
X255986638Y-73600000D01*
X237906638Y-69410000D02*
X242421638Y-69410000D01*
X236211637Y-51524999D02*
X236886638Y-52200000D01*
X252396638Y-89010000D02*
X242036638Y-89010000D01*
X165311638Y-86896304D02*
X170745167Y-92329833D01*
X282401805Y-97209833D02*
X282261638Y-97350000D01*
X256520167Y-90769833D02*
X261138285Y-90769833D01*
X217751005Y-112200000D02*
X216020167Y-113930838D01*
X206640952Y-92730000D02*
X212466638Y-92730000D01*
X217786638Y-54600000D02*
X217786638Y-53760000D01*
X256000167Y-92586471D02*
X256000167Y-91289833D01*
X251861638Y-57950000D02*
X251794138Y-57882500D01*
X180846137Y-122593863D02*
X182247187Y-123994914D01*
X274986638Y-58640000D02*
X275916638Y-57710000D01*
X251794138Y-57882500D02*
X251951638Y-57725000D01*
X302186638Y-58325000D02*
X303546382Y-58325000D01*
X246611638Y-73600000D02*
X255986638Y-73600000D01*
X165211638Y-59550000D02*
X163411638Y-61350000D01*
X206000952Y-93370000D02*
X206640952Y-92730000D01*
X293986638Y-96703362D02*
X293986638Y-97500000D01*
X226330167Y-91109833D02*
X226330167Y-91609833D01*
X261138285Y-90769833D02*
X263018452Y-92650000D01*
X216020167Y-113930838D02*
X216020167Y-113969833D01*
X275808023Y-95767394D02*
X275798956Y-95767394D01*
X282261638Y-78628048D02*
X281589686Y-79300000D01*
X220541471Y-89509833D02*
X226210167Y-89509833D01*
X204130167Y-74148529D02*
X204130167Y-74218529D01*
X212394008Y-113483674D02*
X211380167Y-112469833D01*
X226210167Y-89509833D02*
X227070167Y-90369833D01*
X303546382Y-58325000D02*
X303861638Y-58640256D01*
X213686639Y-51524999D02*
X236211637Y-51524999D01*
X252060167Y-92569833D02*
X252280167Y-92789833D01*
X293986638Y-78400000D02*
X292411638Y-76825000D01*
X167851638Y-77950000D02*
X165311638Y-80490000D01*
X276021638Y-76825000D02*
X274986638Y-77860000D01*
X274986638Y-59300000D02*
X274986638Y-58640000D01*
X188635615Y-131439833D02*
X188005615Y-132069833D01*
%TO.N,OLED_SCL*%
X181935167Y-88279833D02*
X178365167Y-84709833D01*
X181935167Y-90654833D02*
X181935167Y-88279833D01*
%TO.N,GND*%
X225361638Y-73650000D02*
X225361638Y-74701470D01*
X236986638Y-90300000D02*
X227140000Y-90300000D01*
X216439353Y-70372715D02*
X212352235Y-74459833D01*
X217986638Y-73600000D02*
X216439353Y-72052715D01*
X198986638Y-95000000D02*
X198986638Y-93892157D01*
X196835167Y-72296304D02*
X196835167Y-74148529D01*
X256716638Y-71920000D02*
X255986638Y-72650000D01*
X212352235Y-74459833D02*
X206626805Y-74459833D01*
X292116471Y-95629833D02*
X283750167Y-95629833D01*
X263018452Y-92650000D02*
X263261638Y-92650000D01*
X206626805Y-74459833D02*
X205861638Y-75225000D01*
X237935361Y-88863787D02*
X238311815Y-88487333D01*
X241433971Y-88487333D02*
X238311815Y-88487333D01*
X293986638Y-97500000D02*
X292116471Y-95629833D01*
X212466638Y-92730000D02*
X212596638Y-92600000D01*
X227140000Y-90300000D02*
X227070167Y-90369833D01*
X254723319Y-91336681D02*
X255986638Y-92600000D01*
X209026638Y-54950000D02*
X207436638Y-56540000D01*
X229261638Y-52949999D02*
X230286638Y-53974999D01*
X218596639Y-52949999D02*
X229261638Y-52949999D01*
X204726638Y-93370000D02*
X206000952Y-93370000D01*
X165311638Y-80490000D02*
X165311638Y-86896304D01*
X261531638Y-71920000D02*
X256716638Y-71920000D01*
X274986638Y-96579712D02*
X275798956Y-95767394D01*
X211380167Y-112469833D02*
X210660167Y-113189833D01*
X236986638Y-71200000D02*
X236986638Y-70330000D01*
X301261638Y-97450000D02*
X299611471Y-95799833D01*
X299611471Y-95799833D02*
X294890167Y-95799833D01*
X199378962Y-93499833D02*
X204596805Y-93499833D01*
X234946855Y-58850000D02*
X224908345Y-58850000D01*
X234532728Y-112350000D02*
X233932728Y-112950000D01*
X179810167Y-127895518D02*
X179810167Y-123629833D01*
X207386638Y-94125000D02*
X209871638Y-94125000D01*
X210261638Y-54950000D02*
X213686639Y-51524999D01*
X257962500Y-62100000D02*
X260564582Y-62100000D01*
X244261638Y-71250000D02*
X248941638Y-66570000D01*
X265414582Y-57250000D02*
X267311638Y-57250000D01*
X263261638Y-73650000D02*
X261531638Y-71920000D01*
X165211638Y-59691304D02*
X165211638Y-59550000D01*
X226330167Y-91609833D02*
X227140167Y-92419833D01*
X235111639Y-53974999D02*
X236886638Y-52200000D01*
X292296638Y-57710000D02*
X293886638Y-59300000D01*
X163411638Y-61350000D02*
X163411638Y-64134926D01*
X283161638Y-97209833D02*
X282401805Y-97209833D01*
X248941638Y-61618529D02*
X251861638Y-58698529D01*
X227070167Y-90369833D02*
X227140167Y-90439833D01*
X234761638Y-112350000D02*
X234532728Y-112350000D01*
X166610000Y-64750000D02*
X168440167Y-62919833D01*
X262628486Y-91345485D02*
X262628486Y-92016848D01*
X182247187Y-123994914D02*
X181936743Y-123684470D01*
X230286638Y-53974999D02*
X235111639Y-53974999D01*
X294890167Y-95799833D02*
X293986638Y-96703362D01*
X212394008Y-113504122D02*
X212394008Y-113483674D01*
X274986638Y-77860000D02*
X274986638Y-78400000D01*
X292411638Y-76825000D02*
X276021638Y-76825000D01*
X236986638Y-70330000D02*
X237906638Y-69410000D01*
X172012229Y-94147771D02*
X172050167Y-94109833D01*
X163411638Y-64134926D02*
X164026712Y-64750000D01*
X188005615Y-132069833D02*
X183984482Y-132069833D01*
X273946638Y-58260000D02*
X274986638Y-59300000D01*
X196835167Y-74148529D02*
X198586638Y-75900000D01*
X248941638Y-66570000D02*
X248941638Y-61618529D01*
X254590903Y-53855735D02*
X255242373Y-53855735D01*
X275818014Y-95757403D02*
X275808023Y-95767394D01*
X225361638Y-74701470D02*
X224961721Y-75101387D01*
X273710903Y-77775735D02*
X274362373Y-77775735D01*
X210261638Y-54950000D02*
X209026638Y-54950000D01*
X227486638Y-112200000D02*
X217751005Y-112200000D01*
X274986638Y-97300000D02*
X274986638Y-96579712D01*
X256000167Y-91289833D02*
X256520167Y-90769833D01*
X241996638Y-89050000D02*
X241433971Y-88487333D01*
X168440167Y-62919833D02*
X168440167Y-77361471D01*
X210660167Y-113189833D02*
X206540167Y-113189833D01*
X206361638Y-95150000D02*
X207386638Y-94125000D01*
X168440167Y-77361471D02*
X167851638Y-77950000D01*
%TO.N,COL1*%
X172975167Y-93429833D02*
X170289532Y-93429833D01*
X194416985Y-129740028D02*
X198795220Y-129740028D01*
X185336638Y-115690000D02*
X183260334Y-115690000D01*
X175325167Y-95779833D02*
X172975167Y-93429833D01*
X194416985Y-129740028D02*
X192794485Y-128117528D01*
X193566638Y-104200000D02*
X196811638Y-104200000D01*
X198795220Y-129740028D02*
X202305559Y-126229689D01*
X175325167Y-107754833D02*
X175325167Y-95779833D01*
X192794485Y-128117528D02*
X192794485Y-126929776D01*
X170289532Y-93429833D02*
X160080167Y-83220468D01*
X183260334Y-115690000D02*
X175325167Y-107754833D01*
X160080167Y-83220468D02*
X160080167Y-58744788D01*
%TO.N,COL5*%
X272811638Y-87600000D02*
X269566638Y-87600000D01*
X269566638Y-68500000D02*
X272811638Y-68500000D01*
%TO.N,COL4*%
X176600167Y-81069833D02*
X179970167Y-81069833D01*
X222739162Y-115530838D02*
X225070167Y-113199833D01*
X206270167Y-104679833D02*
X213312130Y-111721796D01*
X253811638Y-101800000D02*
X250566638Y-101800000D01*
X214224037Y-115530838D02*
X222739162Y-115530838D01*
X191354188Y-93184833D02*
X202849188Y-104679833D01*
X179970167Y-81069833D02*
X188405167Y-89504833D01*
X188405167Y-89504833D02*
X188405167Y-93184833D01*
X250566638Y-82800000D02*
X253811638Y-82800000D01*
X176150167Y-81519833D02*
X176600167Y-81069833D01*
X213312130Y-111721796D02*
X213312130Y-114618931D01*
X213312130Y-114618931D02*
X214224037Y-115530838D01*
X202849188Y-104679833D02*
X206270167Y-104679833D01*
X188405167Y-93184833D02*
X191354188Y-93184833D01*
%TO.N,VBAT*%
X168550167Y-59339833D02*
X165211638Y-62678362D01*
X165211638Y-62678362D02*
X165211638Y-62950000D01*
X174900167Y-94738529D02*
X190761471Y-110599833D01*
X168550167Y-59339833D02*
X174900167Y-65689833D01*
X190761471Y-110599833D02*
X195301805Y-110599833D01*
X174900167Y-65689833D02*
X174900167Y-94738529D01*
%TO.N,/left/ROW1*%
X284524198Y-111313864D02*
X284170167Y-110959833D01*
X247390167Y-62321471D02*
X251261638Y-58450000D01*
X298249138Y-75912333D02*
X300260167Y-75912333D01*
X298226638Y-75889833D02*
X298249138Y-75912333D01*
X175300167Y-93789833D02*
X175300167Y-64289833D01*
X285626136Y-111313864D02*
X284524198Y-111313864D01*
X247390167Y-62612333D02*
X247390167Y-62321471D01*
X302406471Y-92149833D02*
X303190167Y-92149833D01*
X300056638Y-89800000D02*
X296811638Y-89800000D01*
X300056638Y-89800000D02*
X302406471Y-92149833D01*
X222870167Y-90109833D02*
X224090167Y-90109833D01*
X224090167Y-90109833D02*
X224340167Y-90359833D01*
X191210167Y-109699833D02*
X175300167Y-93789833D01*
X300260167Y-75912333D02*
X300260167Y-76269833D01*
%TO.N,/left/ROW3*%
X287410802Y-112250000D02*
X282360802Y-107200000D01*
X246640334Y-104400000D02*
X246130167Y-103889833D01*
X262336363Y-107069833D02*
X252455853Y-107069833D01*
X253225167Y-93594833D02*
X256420167Y-96789833D01*
X242950167Y-107069833D02*
X238790167Y-107069833D01*
X246130167Y-103889833D02*
X247761638Y-102258362D01*
X247761638Y-102258362D02*
X247761638Y-94584315D01*
X249786020Y-104400000D02*
X246640334Y-104400000D01*
X273476638Y-104450000D02*
X264956196Y-104450000D01*
X212130167Y-121499833D02*
X213210167Y-120419833D01*
X247761638Y-94584315D02*
X248751120Y-93594833D01*
X252455853Y-107069833D02*
X249786020Y-104400000D01*
X206940167Y-73709833D02*
X205448971Y-73709833D01*
X278619355Y-106850000D02*
X275876638Y-106850000D01*
X263957667Y-89977333D02*
X262260167Y-89977333D01*
X299882667Y-111349833D02*
X298982500Y-112250000D01*
X264220167Y-90239833D02*
X263957667Y-89977333D01*
X248751120Y-93594833D02*
X253225167Y-93594833D01*
X275876638Y-106850000D02*
X273476638Y-104450000D01*
X213210167Y-120419833D02*
X216260167Y-120419833D01*
X205448971Y-73709833D02*
X205336638Y-73597500D01*
X298982500Y-112250000D02*
X287410802Y-112250000D01*
X282360802Y-107200000D02*
X278969355Y-107200000D01*
X246130167Y-103889833D02*
X242950167Y-107069833D01*
X264956196Y-104450000D02*
X262336363Y-107069833D01*
X278969355Y-107200000D02*
X278619355Y-106850000D01*
%TO.N,/left/ROW2*%
X209761638Y-97585000D02*
X209761638Y-101799164D01*
X299890167Y-92149833D02*
X299590334Y-91850000D01*
X218402140Y-109160000D02*
X224366638Y-109160000D01*
X243727667Y-87109833D02*
X243100167Y-87737333D01*
X233312667Y-125919833D02*
X234212667Y-126819833D01*
X180890167Y-66869833D02*
X180890167Y-65179833D01*
X208576638Y-96400000D02*
X209761638Y-97585000D01*
X217762307Y-109799833D02*
X218402140Y-109160000D01*
X237420167Y-104489833D02*
X237420167Y-102869833D01*
X264361638Y-93359744D02*
X264361638Y-92230108D01*
X234212667Y-126819833D02*
X237061363Y-126819833D01*
X217762307Y-109799833D02*
X209761638Y-101799164D01*
X180890167Y-65179833D02*
X180010167Y-64299833D01*
X237061363Y-126819833D02*
X237570167Y-126311029D01*
X237570167Y-126311029D02*
X237570167Y-116359833D01*
X262300167Y-71227333D02*
X251367667Y-71227333D01*
X244310167Y-87109833D02*
X243727667Y-87109833D01*
X284185802Y-93675000D02*
X264676894Y-93675000D01*
X251367667Y-71227333D02*
X251210167Y-71069833D01*
X250189657Y-87737333D02*
X243100167Y-87737333D01*
X250192157Y-87739833D02*
X250189657Y-87737333D01*
X286010802Y-91850000D02*
X284185802Y-93675000D01*
X262858863Y-90727333D02*
X261661471Y-90727333D01*
X259871363Y-87739833D02*
X250192157Y-87739833D01*
X299590334Y-91850000D02*
X286010802Y-91850000D01*
X228910000Y-109160000D02*
X224366638Y-109160000D01*
X264361638Y-92230108D02*
X262858863Y-90727333D01*
X235736225Y-102333775D02*
X228910000Y-109160000D01*
X259830167Y-88896029D02*
X259830167Y-87781029D01*
X264676894Y-93675000D02*
X264361638Y-93359744D01*
X259830167Y-87781029D02*
X259871363Y-87739833D01*
X261661471Y-90727333D02*
X259830167Y-88896029D01*
X237420167Y-102869833D02*
X237410167Y-102859833D01*
%TO.N,ROW5*%
X282870167Y-94859833D02*
X282582667Y-95147333D01*
X283330167Y-94859833D02*
X282870167Y-94859833D01*
%TO.N,/left/ROW4*%
X209590167Y-82779833D02*
X214920167Y-77449833D01*
X184890167Y-113789833D02*
X183920167Y-114759833D01*
X243923754Y-107469833D02*
X243813754Y-107359833D01*
X277100167Y-75209833D02*
X277657667Y-75767333D01*
X265930167Y-105427333D02*
X265187667Y-106169833D01*
X222890167Y-71429833D02*
X223977667Y-71429833D01*
X223977667Y-71429833D02*
X224250167Y-71157333D01*
X277657667Y-75767333D02*
X281300167Y-75767333D01*
X265930167Y-105419833D02*
X265930167Y-105427333D01*
X265187667Y-106169833D02*
X264084893Y-106169833D01*
X262784893Y-107469833D02*
X243923754Y-107469833D01*
X202410000Y-92580000D02*
X202090167Y-92899833D01*
X264084893Y-106169833D02*
X262784893Y-107469833D01*
X184890167Y-113509833D02*
X184890167Y-113789833D01*
X209590167Y-86857333D02*
X209590167Y-82779833D01*
X205286638Y-92580000D02*
X202410000Y-92580000D01*
X205286638Y-91160862D02*
X209590167Y-86857333D01*
X205286638Y-92580000D02*
X205286638Y-91160862D01*
%TO.N,COL2*%
X196811638Y-85200000D02*
X196811638Y-84952775D01*
X196811638Y-84952775D02*
X169408863Y-57550000D01*
X169408863Y-57550000D02*
X165240167Y-57550000D01*
%TO.N,COL3*%
X162811638Y-64383456D02*
X162811638Y-58965074D01*
X197809138Y-72847500D02*
X197506471Y-72544833D01*
X212466638Y-63800000D02*
X216095334Y-67428696D01*
X207954030Y-73475000D02*
X207326530Y-72847500D01*
X207326530Y-72847500D02*
X197809138Y-72847500D01*
X212771382Y-73475000D02*
X207954030Y-73475000D01*
X162811638Y-58965074D02*
X164826712Y-56950000D01*
X164826712Y-56950000D02*
X170450334Y-56950000D01*
X170450334Y-56950000D02*
X179990167Y-66489833D01*
X163554091Y-65125909D02*
X162811638Y-64383456D01*
X216095334Y-70151048D02*
X212771382Y-73475000D01*
X197506471Y-72544833D02*
X197435167Y-72544833D01*
X216095334Y-67428696D02*
X216095334Y-70151048D01*
%TO.N,Net-(D64-DOUT)*%
X206572983Y-123097009D02*
X194992991Y-123097009D01*
X210031303Y-128170763D02*
X208889020Y-127028480D01*
X242551549Y-107969833D02*
X232361638Y-118159744D01*
X295962500Y-105000000D02*
X292292333Y-101329833D01*
X214006341Y-128170763D02*
X210031303Y-128170763D01*
X194992991Y-123097009D02*
X193390167Y-124699833D01*
X181840167Y-129359833D02*
X180210167Y-127729833D01*
X292292333Y-101329833D02*
X279469685Y-101329833D01*
X184284932Y-131578912D02*
X182118001Y-129411981D01*
X299436638Y-78400000D02*
X299436638Y-77616564D01*
X191757274Y-124699833D02*
X187996891Y-128460216D01*
X187198117Y-131578912D02*
X184284932Y-131578912D01*
X180210167Y-125482895D02*
X180948148Y-124744914D01*
X232361638Y-118159744D02*
X232361638Y-118499138D01*
X226119355Y-119450000D02*
X220790058Y-119450000D01*
X304340167Y-98320609D02*
X297660776Y-105000000D01*
X218705196Y-121534862D02*
X218705196Y-123471908D01*
X193390167Y-124699833D02*
X191757274Y-124699833D01*
X297660776Y-105000000D02*
X295962500Y-105000000D01*
X279469685Y-101329833D02*
X279323351Y-101183499D01*
X299436638Y-77616564D02*
X299041329Y-77221255D01*
X300370167Y-83605585D02*
X304340167Y-87575585D01*
X230821382Y-119700000D02*
X230801549Y-119719833D01*
X220790058Y-119450000D02*
X218705196Y-121534862D01*
X218705196Y-123471908D02*
X214006341Y-128170763D01*
X187996891Y-130780138D02*
X187198117Y-131578912D01*
X232361638Y-118499138D02*
X231160776Y-119700000D01*
X304340167Y-87575585D02*
X304340167Y-98320609D01*
X208889020Y-127028480D02*
X208889020Y-125413046D01*
X208889020Y-125413046D02*
X206572983Y-123097009D01*
X265590167Y-107969833D02*
X242551549Y-107969833D01*
X300370167Y-80869833D02*
X300370167Y-83605585D01*
X180210167Y-127729833D02*
X180210167Y-125482895D01*
X187996891Y-128460216D02*
X187996891Y-130780138D01*
X226389188Y-119719833D02*
X226119355Y-119450000D01*
X181998492Y-129411981D02*
X181946344Y-129359833D01*
X181946344Y-129359833D02*
X181840167Y-129359833D01*
X231160776Y-119700000D02*
X230821382Y-119700000D01*
X230801549Y-119719833D02*
X226389188Y-119719833D01*
X182118001Y-129411981D02*
X181998492Y-129411981D01*
%TO.N,Net-(D63-DOUT)*%
X291311638Y-77225000D02*
X293986638Y-79900000D01*
X280436638Y-78400000D02*
X281611638Y-77225000D01*
%TO.N,Net-(D74-DOUT)*%
X227624911Y-93444833D02*
X224356471Y-93444833D01*
X236576638Y-91390000D02*
X228260256Y-91390000D01*
X224356471Y-93444833D02*
X223511638Y-92600000D01*
X228260256Y-91390000D02*
X227940167Y-91710089D01*
X227940167Y-93129577D02*
X227624911Y-93444833D01*
X227940167Y-91710089D02*
X227940167Y-93129577D01*
X236986638Y-91800000D02*
X236576638Y-91390000D01*
%TO.N,Net-(D45-DOUT)*%
X255986638Y-56100000D02*
X252086638Y-52200000D01*
X252086638Y-52200000D02*
X242336638Y-52200000D01*
%TO.N,Net-(D43-DOUT)*%
X236886638Y-53700000D02*
X235986638Y-54600000D01*
X235986638Y-54600000D02*
X223236638Y-54600000D01*
%TO.N,Net-(D17-A)*%
X247390167Y-65912333D02*
X246322667Y-66979833D01*
X244181471Y-66979833D02*
X242984138Y-65782500D01*
%TO.N,Net-(D76-DOUT)*%
X265961638Y-97125000D02*
X265961638Y-98048696D01*
X265961638Y-98048696D02*
X266712942Y-98800000D01*
X266712942Y-98800000D02*
X274986638Y-98800000D01*
X261436638Y-92600000D02*
X265961638Y-97125000D01*
%TO.N,Net-(D75-DOUT)*%
X252186638Y-90300000D02*
X255986638Y-94100000D01*
X242436638Y-90300000D02*
X252186638Y-90300000D01*
%TO.N,Net-(D25-A)*%
X280870167Y-110959833D02*
X280870167Y-108986471D01*
X280870167Y-108986471D02*
X281056638Y-108800000D01*
%TO.N,Net-(D35-A)*%
X302506471Y-111349833D02*
X300056638Y-108900000D01*
X300056638Y-108900000D02*
X296811638Y-108900000D01*
X303182667Y-111349833D02*
X302506471Y-111349833D01*
%TO.N,Net-(D67-DOUT)*%
X232936638Y-112200000D02*
X233090000Y-112200000D01*
X232936638Y-112200000D02*
X232936638Y-111186304D01*
X198930167Y-97800000D02*
X198930167Y-96556471D01*
%TO.N,Net-(D66-DOUT)*%
X225255800Y-115930838D02*
X210937900Y-115930838D01*
X227486638Y-113700000D02*
X225255800Y-115930838D01*
%TO.N,Net-(D77-DOUT)*%
X280436638Y-97300000D02*
X281411638Y-96325000D01*
X291311638Y-96325000D02*
X293986638Y-99000000D01*
X281411638Y-96325000D02*
X291311638Y-96325000D01*
%TO.N,Net-(D73-DOUT)*%
X205216638Y-94220000D02*
X204436638Y-95000000D01*
X218061638Y-94100000D02*
X217598970Y-93637332D01*
X217598970Y-93637332D02*
X206299306Y-93637332D01*
X205716638Y-94220000D02*
X205216638Y-94220000D01*
X206299306Y-93637332D02*
X205716638Y-94220000D01*
%TO.N,Net-(D65-DOUT)*%
X205285376Y-115969162D02*
X190666036Y-115969162D01*
X185920167Y-127766771D02*
X184972186Y-128714752D01*
X184996890Y-121638308D02*
X184996890Y-126057544D01*
X185920167Y-126980821D02*
X185920167Y-127766771D01*
X184996890Y-126057544D02*
X185920167Y-126980821D01*
X190666036Y-115969162D02*
X184996890Y-121638308D01*
%TO.N,Net-(D56-DOUT)*%
X246336638Y-75100000D02*
X242436638Y-71200000D01*
X255986638Y-75100000D02*
X246336638Y-75100000D01*
%TO.N,Net-(D18-A)*%
X243326638Y-82870000D02*
X243056638Y-82600000D01*
X243326638Y-84690000D02*
X243326638Y-82870000D01*
%TO.N,Net-(D48-DOUT)*%
X281936638Y-60800000D02*
X280436638Y-59300000D01*
X293886638Y-60800000D02*
X281936638Y-60800000D01*
%TO.N,Net-(D1-A)*%
X201811638Y-106400000D02*
X197810000Y-106400000D01*
X205056638Y-106400000D02*
X202711638Y-106400000D01*
X197810000Y-106400000D02*
X194510167Y-109699833D01*
X205056638Y-106400000D02*
X201811638Y-106400000D01*
%TO.N,Net-(D7-A)*%
X182270167Y-117617717D02*
X186158921Y-117617717D01*
X186158921Y-117617717D02*
X187496638Y-116280000D01*
%TO.N,Net-(D10-A)*%
X224156638Y-104000000D02*
X224156638Y-105650000D01*
X221070167Y-104158529D02*
X220911638Y-104000000D01*
X224156638Y-105650000D02*
X224366638Y-105860000D01*
X224156638Y-104000000D02*
X220911638Y-104000000D01*
%TO.N,Net-(D36-A)*%
X281300167Y-70943529D02*
X281056638Y-70700000D01*
X281300167Y-72467333D02*
X281300167Y-70943529D01*
%TO.N,Net-(D28-A)*%
X261887667Y-104168971D02*
X262056638Y-104000000D01*
X261887667Y-106169833D02*
X261887667Y-104168971D01*
%TO.N,Net-(D43-DIN)*%
X217786638Y-56100000D02*
X215420000Y-56100000D01*
X215420000Y-56100000D02*
X215240167Y-56279833D01*
%TO.N,Net-(D5-A)*%
X211678889Y-125380894D02*
X210839020Y-126220763D01*
X215430167Y-121499833D02*
X215430167Y-123924175D01*
X215430167Y-123924175D02*
X213973448Y-125380894D01*
X213973448Y-125380894D02*
X211678889Y-125380894D01*
%TO.N,Net-(D27-A)*%
X262260167Y-86677333D02*
X262260167Y-85203529D01*
X262260167Y-85203529D02*
X262056638Y-85000000D01*
%TO.N,Net-(D19-A)*%
X242830167Y-103889833D02*
X242830167Y-101926471D01*
X242830167Y-101926471D02*
X243056638Y-101700000D01*
%TO.N,Net-(D47-DOUT)*%
X274986638Y-60800000D02*
X268786638Y-54600000D01*
X268786638Y-54600000D02*
X261436638Y-54600000D01*
%TO.N,Net-(D53-DOUT)*%
X198586638Y-77400000D02*
X191640167Y-70453529D01*
X203990167Y-55269833D02*
X204100167Y-55159833D01*
X191640167Y-70453529D02*
X191640167Y-63247205D01*
X204100167Y-55159833D02*
X204436638Y-55496304D01*
X204436638Y-55496304D02*
X204436638Y-57000000D01*
X191640167Y-63247205D02*
X199617539Y-55269833D01*
X199617539Y-55269833D02*
X203990167Y-55269833D01*
%TO.N,Net-(D33-A)*%
X300056638Y-72408804D02*
X300260167Y-72612333D01*
X300056638Y-70700000D02*
X300056638Y-72408804D01*
%TO.N,Net-(D67-DOUT)*%
X198930167Y-96556471D02*
X198986638Y-96500000D01*
X232936638Y-111186304D02*
X231400167Y-109649833D01*
%TO.N,Net-(D17-A)*%
X246322667Y-66979833D02*
X244181471Y-66979833D01*
X242984138Y-65782500D02*
X242984138Y-63600000D01*
%TO.N,Net-(D26-A)*%
X262056638Y-66000000D02*
X262056638Y-67683804D01*
X262056638Y-67683804D02*
X262300167Y-67927333D01*
X262056638Y-66000000D02*
X258811638Y-66000000D01*
%TO.N,Net-(D57-DOUT)*%
X261436638Y-73600000D02*
X262511638Y-74675000D01*
X269761638Y-74675000D02*
X274986638Y-79900000D01*
X262511638Y-74675000D02*
X269761638Y-74675000D01*
%TO.N,Net-(D55-DOUT)*%
X224411638Y-72625000D02*
X236911638Y-72625000D01*
X223436638Y-73600000D02*
X224411638Y-72625000D01*
X236911638Y-72625000D02*
X236986638Y-72700000D01*
%TO.N,Net-(D54-DOUT)*%
X206646382Y-76975000D02*
X206961638Y-76659744D01*
X206961638Y-76659744D02*
X206961638Y-75145000D01*
X217746471Y-74859833D02*
X217986638Y-75100000D01*
X207246805Y-74859833D02*
X217746471Y-74859833D01*
X204036638Y-75900000D02*
X205111638Y-76975000D01*
X205111638Y-76975000D02*
X206646382Y-76975000D01*
X206961638Y-75145000D02*
X207246805Y-74859833D01*
%TO.N,Net-(D41-A)*%
X281056638Y-91623804D02*
X281280167Y-91847333D01*
X281056638Y-89800000D02*
X281056638Y-91623804D01*
X281056638Y-89800000D02*
X277811638Y-89800000D01*
%TO.N,Net-(D9-A)*%
X224056638Y-86776304D02*
X224340167Y-87059833D01*
X224056638Y-85000000D02*
X224056638Y-86776304D01*
%TO.N,Net-(D11-A)*%
X205336638Y-70297500D02*
X205336638Y-68680000D01*
X205336638Y-68680000D02*
X205056638Y-68400000D01*
%TO.N,Net-(D3-A)*%
X233556638Y-123600000D02*
X235876471Y-125919833D01*
X230311638Y-123600000D02*
X233556638Y-123600000D01*
X235876471Y-125919833D02*
X236612667Y-125919833D01*
%TO.N,Net-(D12-A)*%
X205286638Y-89280000D02*
X205286638Y-87630000D01*
X205286638Y-87630000D02*
X205056638Y-87400000D01*
X201811638Y-87400000D02*
X205056638Y-87400000D01*
%TO.N,+5V*%
X105851638Y-94160000D02*
X105926638Y-94235000D01*
X125731638Y-86980000D02*
X115251638Y-86980000D01*
X29926638Y-96555000D02*
X29926638Y-97430000D01*
X118426638Y-117502724D02*
X118426638Y-116655000D01*
X48926638Y-72805000D02*
X48926638Y-73730000D01*
X28101638Y-78380000D02*
X29776638Y-78380000D01*
X39551638Y-100780000D02*
X37650776Y-100780000D01*
X40400167Y-100380000D02*
X39903109Y-100380000D01*
X40751638Y-103681304D02*
X40751638Y-100731471D01*
X105160585Y-95130000D02*
X103545848Y-93515263D01*
X26548694Y-100780000D02*
X17251638Y-100780000D01*
X39951638Y-89180000D02*
X37376638Y-91755000D01*
X102251638Y-57130000D02*
X105926638Y-57130000D01*
X93303719Y-91572081D02*
X92661638Y-90930000D01*
X9951638Y-79505000D02*
X9951638Y-83930000D01*
X10926638Y-97630000D02*
X9151638Y-97630000D01*
X51376638Y-70355000D02*
X48926638Y-72805000D01*
X10926638Y-96905000D02*
X11851638Y-95980000D01*
X9101638Y-99830000D02*
X9101638Y-97580000D01*
X67926638Y-70805000D02*
X67926638Y-71330000D01*
X10926638Y-97630000D02*
X10926638Y-96905000D01*
X100706116Y-97997914D02*
X100706116Y-100342195D01*
X100101638Y-55080000D02*
X102151638Y-57130000D01*
X29351638Y-57880000D02*
X30876638Y-56355000D01*
X86851638Y-91680000D02*
X86851638Y-92730000D01*
X72690138Y-88280000D02*
X69051638Y-88280000D01*
X62101638Y-54480000D02*
X60201638Y-52580000D01*
X105926638Y-94235000D02*
X105926638Y-95130000D01*
X87126638Y-53705000D02*
X87651638Y-53180000D01*
X43051638Y-57380000D02*
X45701638Y-54730000D01*
X87001638Y-66237717D02*
X87001638Y-72330000D01*
X9701576Y-67022221D02*
X10501638Y-67822283D01*
X66101638Y-71380000D02*
X65076638Y-70355000D01*
X104501638Y-76080000D02*
X104501638Y-73428696D01*
X87126638Y-54730000D02*
X82751639Y-54730000D01*
X48876638Y-92780000D02*
X48926638Y-92730000D01*
X24051638Y-57680000D02*
X11351638Y-57680000D01*
X75601638Y-112480000D02*
X77276638Y-112480000D01*
X85001638Y-92780000D02*
X86801638Y-92780000D01*
X29351638Y-58855000D02*
X29351638Y-57880000D01*
X99813604Y-113818034D02*
X100251638Y-113380000D01*
X97969268Y-114125878D02*
X98493664Y-114650274D01*
X29876638Y-97480000D02*
X29926638Y-97430000D01*
X108597305Y-93634333D02*
X106377305Y-93634333D01*
X87851638Y-71480000D02*
X98876638Y-71480000D01*
X67876638Y-71380000D02*
X67926638Y-71330000D01*
X106276638Y-76080000D02*
X106326638Y-76030000D01*
X122195298Y-114978821D02*
X123589992Y-113584127D01*
X68251638Y-90105000D02*
X68251638Y-89080000D01*
X105926638Y-95130000D02*
X102368719Y-91572081D01*
X82401638Y-90180000D02*
X74590138Y-90180000D01*
X48876638Y-73780000D02*
X48926638Y-73730000D01*
X68651638Y-50780000D02*
X78801639Y-50780000D01*
X29851638Y-96480000D02*
X29926638Y-96555000D01*
X87001638Y-72330000D02*
X87851638Y-71480000D01*
X91293920Y-70530000D02*
X91047779Y-70283859D01*
X47101638Y-73780000D02*
X48876638Y-73780000D01*
X68026638Y-51405000D02*
X68651638Y-50780000D01*
X17251638Y-100780000D02*
X17151638Y-100680000D01*
X85051638Y-73730000D02*
X85001638Y-73780000D01*
X139571638Y-74700000D02*
X133051638Y-81220000D01*
X64616003Y-106080000D02*
X43150334Y-106080000D01*
X45701638Y-54730000D02*
X48926638Y-54730000D01*
X129353054Y-118119593D02*
X129353054Y-125054982D01*
X100251638Y-111263785D02*
X100251638Y-113380000D01*
X128546638Y-84169365D02*
X128546638Y-89795000D01*
X47101638Y-92780000D02*
X45551638Y-91230000D01*
X33400776Y-105030000D02*
X30798694Y-105030000D01*
X25801638Y-59430000D02*
X29926638Y-59430000D01*
X95893921Y-57130000D02*
X87001638Y-66022283D01*
X98201638Y-53180000D02*
X100101638Y-55080000D01*
X64626003Y-106090000D02*
X64616003Y-106080000D01*
X77276638Y-112480000D02*
X77426638Y-112330000D01*
X30876638Y-56355000D02*
X42026638Y-56355000D01*
X26601638Y-95980000D02*
X28101638Y-97480000D01*
X120426262Y-117555000D02*
X122195298Y-115785964D01*
X26701638Y-76980000D02*
X12476638Y-76980000D01*
X105501638Y-103522283D02*
X105501638Y-106013785D01*
X39903109Y-100380000D02*
X39551638Y-100731471D01*
X101602942Y-70530000D02*
X91293920Y-70530000D01*
X62101638Y-54480000D02*
X64251638Y-52330000D01*
X51276638Y-89455000D02*
X65076638Y-89455000D01*
X86801638Y-92780000D02*
X86851638Y-92730000D01*
X115251638Y-86980000D02*
X108597305Y-93634333D01*
X98876638Y-71480000D02*
X99976638Y-72580000D01*
X133051638Y-81220000D02*
X131496003Y-81220000D01*
X102251638Y-57130000D02*
X95893921Y-57130000D01*
X10876638Y-78580000D02*
X10926638Y-78530000D01*
X64251638Y-52330000D02*
X68026638Y-52330000D01*
X68251638Y-89080000D02*
X69051638Y-88280000D01*
X30798694Y-105030000D02*
X26548694Y-100780000D01*
X10501638Y-77180000D02*
X9101638Y-78580000D01*
X87001638Y-66022283D02*
X87001638Y-66237717D01*
X9701576Y-59979938D02*
X9701576Y-67022221D01*
X28101638Y-97480000D02*
X29876638Y-97480000D01*
X43825167Y-89180000D02*
X39951638Y-89180000D01*
X28101638Y-78380000D02*
X26701638Y-76980000D01*
X42026638Y-56355000D02*
X43051638Y-57380000D01*
X45551638Y-91230000D02*
X45551638Y-90906471D01*
X29776638Y-78380000D02*
X29926638Y-78530000D01*
X102151638Y-57130000D02*
X102251638Y-57130000D01*
X34576638Y-91755000D02*
X29851638Y-96480000D01*
X11851638Y-95980000D02*
X26601638Y-95980000D01*
X67926638Y-90430000D02*
X68251638Y-90105000D01*
X91293921Y-70530000D02*
X91047779Y-70283859D01*
X87651638Y-53180000D02*
X98201638Y-53180000D01*
X9201638Y-59480000D02*
X10976638Y-59480000D01*
X66101638Y-90480000D02*
X67876638Y-90480000D01*
X11351638Y-95330000D02*
X9101638Y-97580000D01*
X128546638Y-89795000D02*
X125731638Y-86980000D01*
X10926638Y-78001530D02*
X11948168Y-76980000D01*
X45551638Y-90906471D02*
X43825167Y-89180000D01*
X87601638Y-90930000D02*
X86851638Y-91680000D01*
X37650776Y-100780000D02*
X33400776Y-105030000D01*
X72690138Y-69180000D02*
X69551638Y-69180000D01*
X9201638Y-59480000D02*
X9701576Y-59979938D01*
X17151638Y-100680000D02*
X9951638Y-100680000D01*
X86926638Y-73730000D02*
X86951638Y-73705000D01*
X131496003Y-81220000D02*
X128546638Y-84169365D01*
X118426638Y-116655000D02*
X115151638Y-113380000D01*
X9101638Y-78580000D02*
X10876638Y-78580000D01*
X102368719Y-91572081D02*
X93303719Y-91572081D01*
X115151638Y-113380000D02*
X100251638Y-113380000D01*
X104551638Y-76030000D02*
X104501638Y-76080000D01*
X106326638Y-76030000D02*
X104551638Y-76030000D01*
X65076638Y-89455000D02*
X66101638Y-90480000D01*
X82751639Y-54730000D02*
X81101638Y-53079999D01*
X47101638Y-92780000D02*
X48876638Y-92780000D01*
X10501638Y-67822283D02*
X10501638Y-77180000D01*
X48926638Y-92730000D02*
X48926638Y-91805000D01*
X98493664Y-114650274D02*
X99813604Y-114650274D01*
X11948168Y-76980000D02*
X12476638Y-76980000D01*
X43150334Y-106080000D02*
X40751638Y-103681304D01*
X87126638Y-54730000D02*
X87126638Y-53705000D01*
X104001638Y-95280000D02*
X105776638Y-95280000D01*
X100706116Y-100342195D02*
X102743921Y-102380000D01*
X39551638Y-100731471D02*
X39551638Y-100780000D01*
X10926638Y-78530000D02*
X10926638Y-78001530D01*
X37376638Y-91755000D02*
X34576638Y-91755000D01*
X69201638Y-106080000D02*
X66127273Y-106080000D01*
X24051638Y-57680000D02*
X25801638Y-59430000D01*
X10976638Y-59480000D02*
X11026638Y-59430000D01*
X91047779Y-70283859D02*
X87001638Y-66237717D01*
X9951638Y-83930000D02*
X11351638Y-85330000D01*
X99813604Y-114650274D02*
X99813604Y-113818034D01*
X118374362Y-117555000D02*
X118426638Y-117502724D01*
X11026638Y-58005000D02*
X11351638Y-57680000D01*
X11026638Y-59430000D02*
X11026638Y-58005000D01*
X78801639Y-50780000D02*
X81101638Y-53079999D01*
X92661638Y-90930000D02*
X87601638Y-90930000D01*
X74590138Y-90180000D02*
X72690138Y-88280000D01*
X83976638Y-72755000D02*
X76265138Y-72755000D01*
X102743921Y-102380000D02*
X104359355Y-102380000D01*
X86951638Y-73705000D02*
X86951638Y-72380000D01*
X9151638Y-97630000D02*
X9101638Y-97580000D01*
X48926638Y-91805000D02*
X51276638Y-89455000D01*
X48926638Y-53905000D02*
X48926638Y-54730000D01*
X103545848Y-93515263D02*
X103545848Y-94824210D01*
X68026638Y-52330000D02*
X68026638Y-51405000D01*
X86926638Y-73730000D02*
X85051638Y-73730000D01*
X76265138Y-72755000D02*
X72690138Y-69180000D01*
X66127273Y-106080000D02*
X66117273Y-106090000D01*
X123589992Y-113584127D02*
X124817588Y-113584127D01*
X85001638Y-92780000D02*
X82401638Y-90180000D01*
X104501638Y-73428696D02*
X101602942Y-70530000D01*
X118374362Y-117555000D02*
X120426262Y-117555000D01*
X40751638Y-100731471D02*
X40400167Y-100380000D01*
X104359355Y-102380000D02*
X105501638Y-103522283D01*
X60201638Y-52580000D02*
X50251638Y-52580000D01*
X9951638Y-100680000D02*
X9101638Y-99830000D01*
X122195298Y-115785964D02*
X122195298Y-114978821D01*
X29926638Y-59430000D02*
X29351638Y-58855000D01*
X11351638Y-85330000D02*
X11351638Y-95330000D01*
X103545848Y-94824210D02*
X104001638Y-95280000D01*
X75601638Y-112480000D02*
X69201638Y-106080000D01*
X106377305Y-93634333D02*
X105851638Y-94160000D01*
X86951638Y-72380000D02*
X87001638Y-72330000D01*
X105926638Y-95130000D02*
X105160585Y-95130000D01*
X105501638Y-106013785D02*
X100251638Y-111263785D01*
X124817588Y-113584127D02*
X129353054Y-118119593D01*
X50251638Y-52580000D02*
X48926638Y-53905000D01*
X66117273Y-106090000D02*
X64626003Y-106090000D01*
X69551638Y-69180000D02*
X67926638Y-70805000D01*
X66101638Y-71380000D02*
X67876638Y-71380000D01*
X85001638Y-73780000D02*
X83976638Y-72755000D01*
X67876638Y-90480000D02*
X67926638Y-90430000D01*
X10926638Y-78530000D02*
X9951638Y-79505000D01*
%TO.N,GND*%
X140513109Y-61590000D02*
X140513109Y-60951471D01*
X65351638Y-72530000D02*
X64201638Y-71380000D01*
X78051638Y-54229999D02*
X79201638Y-53079999D01*
X107446965Y-120267019D02*
X104689672Y-117509726D01*
X7201638Y-78580000D02*
X6701700Y-79079938D01*
X25351638Y-98330000D02*
X26201638Y-97480000D01*
X9951638Y-86372283D02*
X9951638Y-86106679D01*
X147251638Y-58710000D02*
X146611638Y-58070000D01*
X26254582Y-73780000D02*
X17251638Y-64777056D01*
X12702500Y-105130000D02*
X14701638Y-105130000D01*
X73476638Y-54695000D02*
X73476638Y-53830000D01*
X82205969Y-115325669D02*
X82551638Y-114980000D01*
X78051638Y-57028529D02*
X78051638Y-54229999D01*
X35376638Y-81155000D02*
X35001638Y-81530000D01*
X92301638Y-95420000D02*
X92301638Y-94230000D01*
X10501638Y-88537717D02*
X10501638Y-86922283D01*
X34441638Y-62650000D02*
X18256638Y-62650000D01*
X7201638Y-97580000D02*
X7211638Y-97570000D01*
X93251638Y-75780000D02*
X92851638Y-76180000D01*
X43695225Y-66937717D02*
X40451638Y-70181304D01*
X111376638Y-96630000D02*
X111376638Y-97155000D01*
X78451637Y-53830000D02*
X73476638Y-53830000D01*
X82876638Y-114705000D02*
X82876638Y-113830000D01*
X118351638Y-93380000D02*
X118351638Y-88846346D01*
X68531638Y-56230000D02*
X69419591Y-55342047D01*
X98076638Y-72580000D02*
X96451638Y-72580000D01*
X43101638Y-71680000D02*
X40752942Y-71680000D01*
X83051638Y-114005000D02*
X82876638Y-113830000D01*
X110351638Y-98180000D02*
X106986709Y-98180000D01*
X146403109Y-67480000D02*
X146900167Y-67480000D01*
X38576638Y-95730000D02*
X55769404Y-95730000D01*
X76877069Y-116380431D02*
X78552069Y-116380431D01*
X9951638Y-92860000D02*
X9951638Y-89087717D01*
X73376638Y-91930000D02*
X74051638Y-91930000D01*
X14701638Y-105130000D02*
X16851638Y-102980000D01*
X113351638Y-98380000D02*
X118351638Y-93380000D01*
X111376638Y-61940176D02*
X113821638Y-64385177D01*
X9951638Y-86106679D02*
X9901638Y-86056679D01*
X7201638Y-97580000D02*
X7201638Y-99629138D01*
X54376638Y-56230000D02*
X58100334Y-56230000D01*
X54376638Y-75230000D02*
X55026638Y-74580000D01*
X110851638Y-97680000D02*
X110351638Y-98180000D01*
X65351638Y-72680000D02*
X65351638Y-72530000D01*
X82601638Y-114980000D02*
X82876638Y-114705000D01*
X147251638Y-67128529D02*
X147251638Y-58710000D01*
X64201638Y-90480000D02*
X65551638Y-91830000D01*
X93726638Y-55080000D02*
X92576638Y-56230000D01*
X77481638Y-95360000D02*
X86861638Y-95360000D01*
X105051638Y-117871692D02*
X104689672Y-117509726D01*
X74251638Y-74580000D02*
X74251638Y-73705000D01*
X7211638Y-95600000D02*
X9951638Y-92860000D01*
X83101638Y-73780000D02*
X77651638Y-73780000D01*
X17251638Y-61705000D02*
X16476638Y-60930000D01*
X44951638Y-92530000D02*
X44951638Y-91155000D01*
X54376638Y-75230000D02*
X54376638Y-81141428D01*
X6701700Y-84327118D02*
X8154582Y-85780000D01*
X82551638Y-114980000D02*
X82601638Y-114980000D01*
X82501638Y-92180000D02*
X76551638Y-92180000D01*
X136231638Y-59600000D02*
X136151638Y-59680000D01*
X45201638Y-92780000D02*
X38751638Y-92780000D01*
X16851638Y-102980000D02*
X16851638Y-101280000D01*
X92301638Y-94230000D02*
X93351638Y-93180000D01*
X17251638Y-64777056D02*
X17251638Y-62480000D01*
X102601638Y-76080000D02*
X102601638Y-76805000D01*
X55769404Y-95730000D02*
X58069405Y-93430000D01*
X26201638Y-78380000D02*
X25401638Y-79180000D01*
X79201638Y-53079999D02*
X78451637Y-53830000D01*
X87531638Y-96030000D02*
X91971638Y-96030000D01*
X16376638Y-81155000D02*
X16376638Y-80030000D01*
X60201638Y-54480000D02*
X57251638Y-54480000D01*
X28701638Y-81530000D02*
X28351638Y-81180000D01*
X35376638Y-60930000D02*
X35376638Y-61715000D01*
X78552069Y-116380431D02*
X79606831Y-115325669D01*
X17201638Y-80030000D02*
X16376638Y-80030000D01*
X92281638Y-95440000D02*
X92301638Y-95420000D01*
X91971638Y-96030000D02*
X92281638Y-95720000D01*
X111351638Y-79380000D02*
X111776638Y-78955000D01*
X59851638Y-59178696D02*
X56431638Y-62598696D01*
X38751638Y-92780000D02*
X35951638Y-95580000D01*
X105176638Y-79380000D02*
X111351638Y-79380000D01*
X74251638Y-73705000D02*
X73376638Y-72830000D01*
X116203914Y-116080000D02*
X116728914Y-116605000D01*
X77651638Y-73780000D02*
X77551638Y-73880000D01*
X9951638Y-89087717D02*
X10501638Y-88537717D01*
X74151638Y-92705000D02*
X74151638Y-94180000D01*
X35376638Y-61715000D02*
X34441638Y-62650000D01*
X55651638Y-56680000D02*
X54826638Y-56680000D01*
X111376638Y-58630000D02*
X111376638Y-61940176D01*
X104144152Y-98038200D02*
X102101638Y-95995686D01*
X25401638Y-79180000D02*
X19851638Y-79180000D01*
X78753109Y-57730000D02*
X78051638Y-57028529D01*
X55026638Y-74580000D02*
X74251638Y-74580000D01*
X65551638Y-91830000D02*
X65551638Y-92130000D01*
X16476638Y-60930000D02*
X18226638Y-62680000D01*
X86861638Y-95360000D02*
X87531638Y-96030000D01*
X7301638Y-60730000D02*
X8851638Y-62280000D01*
X45201638Y-73780000D02*
X43101638Y-71680000D01*
X94255108Y-55080000D02*
X91605108Y-57730000D01*
X54376638Y-56230000D02*
X68531638Y-56230000D01*
X93351638Y-93180000D02*
X100001638Y-93180000D01*
X114292189Y-127112243D02*
X107446965Y-120267019D01*
X72829591Y-55342047D02*
X73476638Y-54695000D01*
X92851638Y-75705000D02*
X92376638Y-75230000D01*
X9624959Y-85780000D02*
X9901638Y-86056679D01*
X7301638Y-59480000D02*
X7301638Y-60730000D01*
X111376638Y-97155000D02*
X110851638Y-97680000D01*
X82876638Y-113830000D02*
X93801638Y-113830000D01*
X18551638Y-81380000D02*
X17201638Y-80030000D01*
X10501638Y-86922283D02*
X9951638Y-86372283D01*
X73701638Y-112480000D02*
X73701638Y-113205000D01*
X113821638Y-64385177D02*
X113821638Y-75485000D01*
X7211638Y-97570000D02*
X7211638Y-95600000D01*
X35726638Y-98580000D02*
X35376638Y-98930000D01*
X83101638Y-92780000D02*
X82501638Y-92180000D01*
X56431638Y-62598696D02*
X52325225Y-62598696D01*
X92281638Y-95720000D02*
X92281638Y-95440000D01*
X96451638Y-72580000D02*
X96251638Y-72780000D01*
X111776638Y-77530000D02*
X118351638Y-84105000D01*
X52325225Y-62598696D02*
X47986204Y-66937717D01*
X113821638Y-75485000D02*
X111776638Y-77530000D01*
X18256638Y-62650000D02*
X18226638Y-62680000D01*
X69419591Y-55342047D02*
X72829591Y-55342047D01*
X17851638Y-99680000D02*
X16926638Y-99680000D01*
X45201638Y-92780000D02*
X44951638Y-92530000D01*
X146900167Y-67480000D02*
X147251638Y-67128529D01*
X6701700Y-79079938D02*
X6701700Y-84327118D01*
X40451638Y-70181304D02*
X40451638Y-71378696D01*
X98201638Y-55080000D02*
X94255108Y-55080000D01*
X98201638Y-55080000D02*
X93726638Y-55080000D01*
X113351638Y-98380000D02*
X113126638Y-98380000D01*
X58100334Y-56230000D02*
X59851638Y-57981304D01*
X42451638Y-60930000D02*
X43351638Y-60030000D01*
X115351638Y-116080000D02*
X116203914Y-116080000D01*
X102101638Y-95995686D02*
X102101638Y-95280000D01*
X106844909Y-98038200D02*
X104144152Y-98038200D01*
X7201638Y-99629138D02*
X12702500Y-105130000D01*
X91605108Y-57730000D02*
X78753109Y-57730000D01*
X94801638Y-75780000D02*
X93251638Y-75780000D01*
X16776638Y-99530000D02*
X26351638Y-99530000D01*
X41151638Y-57380000D02*
X41151638Y-58580000D01*
X35376638Y-80030000D02*
X35376638Y-81155000D01*
X118351638Y-84105000D02*
X118351638Y-86380000D01*
X17251638Y-62480000D02*
X17251638Y-61705000D01*
X16376638Y-99130000D02*
X16776638Y-99530000D01*
X92851638Y-76180000D02*
X92851638Y-75705000D01*
X93801638Y-113830000D02*
X94851638Y-114880000D01*
X35376638Y-98930000D02*
X38576638Y-95730000D01*
X26254582Y-73780000D02*
X26254582Y-74737056D01*
X54376638Y-81141428D02*
X52374409Y-83143657D01*
X16926638Y-99680000D02*
X16376638Y-99130000D01*
X43401638Y-60080000D02*
X43351638Y-60030000D01*
X145051638Y-80620000D02*
X147591638Y-78080000D01*
X14726358Y-81697082D02*
X15834556Y-81697082D01*
X105051638Y-119480000D02*
X105051638Y-117871692D01*
X146403109Y-67480000D02*
X140513109Y-61590000D01*
X54826638Y-56680000D02*
X54376638Y-56230000D01*
X139161638Y-59600000D02*
X136231638Y-59600000D01*
X55451638Y-94980000D02*
X55126638Y-94980000D01*
X59851638Y-57981304D02*
X59851638Y-59178696D01*
X74051638Y-91930000D02*
X77481638Y-95360000D01*
X123416439Y-127112243D02*
X114292189Y-127112243D01*
X106986709Y-98180000D02*
X106844909Y-98038200D01*
X113126638Y-98380000D02*
X111376638Y-96630000D01*
X15834556Y-81697082D02*
X16376638Y-81155000D01*
X35376638Y-60930000D02*
X42451638Y-60930000D01*
X55126638Y-94980000D02*
X54376638Y-94230000D01*
X25151638Y-98330000D02*
X25351638Y-98330000D01*
X140513109Y-60951471D02*
X139161638Y-59600000D01*
X125329016Y-129024820D02*
X123416439Y-127112243D01*
X111776638Y-78955000D02*
X111776638Y-77530000D01*
X95451638Y-112180000D02*
X95451638Y-112951752D01*
X47986204Y-66937717D02*
X43695225Y-66937717D01*
X95451638Y-112951752D02*
X96134008Y-113634122D01*
X79606831Y-115325669D02*
X82205969Y-115325669D01*
X8154582Y-85780000D02*
X9624959Y-85780000D01*
X37251638Y-98580000D02*
X35726638Y-98580000D01*
X40752942Y-71680000D02*
X40451638Y-71378696D01*
X26254582Y-74737056D02*
X26021638Y-74970000D01*
X100001638Y-93180000D02*
X102101638Y-95280000D01*
X73401638Y-93430000D02*
X74151638Y-94180000D01*
X35001638Y-81530000D02*
X28701638Y-81530000D01*
X73376638Y-91930000D02*
X74151638Y-92705000D01*
X102601638Y-76805000D02*
X105176638Y-79380000D01*
X41151638Y-58580000D02*
X40951638Y-58780000D01*
X73701638Y-113205000D02*
X76877069Y-116380431D01*
X58069405Y-93430000D02*
X73401638Y-93430000D01*
%TO.N,VBAT*%
X148821246Y-83899608D02*
X148821246Y-81948421D01*
X136291638Y-62940000D02*
X136151638Y-63080000D01*
X151161638Y-79608029D02*
X151161638Y-74940000D01*
X148821246Y-81948421D02*
X151161638Y-79608029D01*
X148451638Y-72480000D02*
X148451638Y-71990000D01*
X151161638Y-74940000D02*
X148701638Y-72480000D01*
X148701638Y-72480000D02*
X148451638Y-72480000D01*
X139401638Y-62940000D02*
X136291638Y-62940000D01*
X148451638Y-71990000D02*
X139401638Y-62940000D01*
%TO.N,BAT_PIN*%
X132485952Y-86300000D02*
X138071638Y-80714314D01*
X122560953Y-92380000D02*
X129985952Y-92380000D01*
X138071638Y-77184365D02*
X139116003Y-76140000D01*
X129985952Y-87810051D02*
X131496003Y-86300000D01*
X117826638Y-97114314D02*
X122560953Y-92380000D01*
X139116003Y-76140000D02*
X141119935Y-76140000D01*
X126651638Y-53531471D02*
X127003109Y-53180000D01*
X131496003Y-86300000D02*
X132485952Y-86300000D01*
X141119935Y-76140000D02*
X141651638Y-75608297D01*
X117826638Y-104284163D02*
X117826638Y-97114314D01*
X127851638Y-53180000D02*
X129851638Y-55180000D01*
X138071638Y-80714314D02*
X138071638Y-77184365D01*
X141651638Y-72696297D02*
X126651638Y-57696297D01*
X129985952Y-92380000D02*
X129985952Y-87810051D01*
X127003109Y-53180000D02*
X127851638Y-53180000D01*
X126651638Y-57696297D02*
X126651638Y-53531471D01*
X141651638Y-75608297D02*
X141651638Y-72696297D01*
%TO.N,PIR_OUT*%
X142511638Y-78080000D02*
X143107638Y-78676000D01*
X138471638Y-83420000D02*
X131951638Y-89940000D01*
X143107638Y-82824000D02*
X142511638Y-83420000D01*
X142511638Y-83420000D02*
X138471638Y-83420000D01*
X143107638Y-78676000D02*
X143107638Y-82824000D01*
%TO.N,ROT_A*%
X119626638Y-98680000D02*
X119526638Y-98580000D01*
X137871638Y-94180000D02*
X139571638Y-92480000D01*
X119526638Y-98580000D02*
X123926638Y-94180000D01*
X123926638Y-94180000D02*
X137871638Y-94180000D01*
%TO.N,COL4*%
X97303109Y-84480000D02*
X98403109Y-83380000D01*
X98403109Y-80429833D02*
X100452942Y-78380000D01*
X69511382Y-84780000D02*
X76552474Y-84780000D01*
X90709355Y-83530000D02*
X96353109Y-83530000D01*
X107714380Y-83980000D02*
X114551638Y-83980000D01*
X76552474Y-84780000D02*
X80352474Y-80980000D01*
X96353109Y-83530000D02*
X97303109Y-84480000D01*
X98403109Y-83380000D02*
X98403109Y-80429833D01*
X80352474Y-80980000D02*
X88159355Y-80980000D01*
X88159355Y-80980000D02*
X90709355Y-83530000D01*
X65711382Y-88580000D02*
X69511382Y-84780000D01*
X43306638Y-82930000D02*
X48956638Y-88580000D01*
X48956638Y-88580000D02*
X65711382Y-88580000D01*
X102114380Y-78380000D02*
X107714380Y-83980000D01*
X100452942Y-78380000D02*
X102114380Y-78380000D01*
%TO.N,COL1*%
X122174362Y-117555000D02*
X122753738Y-117555000D01*
X134966712Y-64880000D02*
X130140903Y-60054191D01*
X130140903Y-60054191D02*
X130140903Y-56890735D01*
X150532463Y-76075873D02*
X139336590Y-64880000D01*
X122753738Y-117555000D02*
X123766719Y-118567981D01*
X139336590Y-64880000D02*
X134966712Y-64880000D01*
%TO.N,COL2*%
X103551638Y-66330000D02*
X100051638Y-62830000D01*
X100051638Y-62830000D02*
X100051638Y-57730000D01*
%TO.N,COL3*%
X88118186Y-58130000D02*
X93428235Y-58130000D01*
X93428235Y-58130000D02*
X95028235Y-56530000D01*
X84651638Y-61596548D02*
X88118186Y-58130000D01*
X84651638Y-63930000D02*
X84651638Y-61596548D01*
X95028235Y-56530000D02*
X100703110Y-56530000D01*
%TO.N,ROW5*%
X59802942Y-93830000D02*
X63452942Y-97480000D01*
X75864380Y-98330000D02*
X77914380Y-96280000D01*
X43651638Y-97580000D02*
X45101638Y-96130000D01*
X58235090Y-93830000D02*
X59802942Y-93830000D01*
X83748694Y-96280000D02*
X88128694Y-100660000D01*
X69536815Y-98330000D02*
X75864380Y-98330000D01*
X45101638Y-96130000D02*
X55935090Y-96130000D01*
X94121638Y-100660000D02*
X94551638Y-100230000D01*
X68686814Y-97480000D02*
X69536815Y-98330000D01*
X88128694Y-100660000D02*
X94121638Y-100660000D01*
X55935090Y-96130000D02*
X58235090Y-93830000D01*
X63452942Y-97480000D02*
X68686814Y-97480000D01*
%TO.N,/right/ROW4*%
X97601638Y-83230000D02*
X97601638Y-79280000D01*
X62201638Y-94880000D02*
X64401638Y-97080000D01*
X117101638Y-104231304D02*
X114950334Y-102080000D01*
X102551638Y-73430000D02*
X102551638Y-74330000D01*
X100351638Y-74580000D02*
X100351638Y-74880000D01*
X96650334Y-93780000D02*
X95751638Y-93780000D01*
X95731638Y-93800000D02*
X95751638Y-93780000D01*
X111650334Y-103880000D02*
X108135952Y-103880000D01*
X97251638Y-83580000D02*
X97601638Y-83230000D01*
X95731638Y-95330000D02*
X95731638Y-93800000D01*
X69702500Y-97930000D02*
X75698694Y-97930000D01*
X68852500Y-97080000D02*
X69702500Y-97930000D01*
X113450334Y-102080000D02*
X111650334Y-103880000D01*
X84242500Y-95870000D02*
X88602500Y-100230000D01*
X77758694Y-95870000D02*
X84242500Y-95870000D01*
X101176638Y-75705000D02*
X97601638Y-79280000D01*
X100935952Y-96680000D02*
X99550334Y-96680000D01*
X100351638Y-74880000D02*
X101176638Y-75705000D01*
X75698694Y-97930000D02*
X77758694Y-95870000D01*
X102551638Y-74330000D02*
X101176638Y-75705000D01*
X43701638Y-68280000D02*
X85451638Y-68280000D01*
X111751638Y-100381304D02*
X113450334Y-102080000D01*
X114950334Y-102080000D02*
X113450334Y-102080000D01*
X41201638Y-70780000D02*
X43701638Y-68280000D01*
X117101638Y-106580000D02*
X117101638Y-104231304D01*
X108135952Y-103880000D02*
X100935952Y-96680000D01*
X111751638Y-97880000D02*
X111751638Y-100381304D01*
X64401638Y-97080000D02*
X68852500Y-97080000D01*
X88602500Y-100230000D02*
X90831638Y-100230000D01*
X85451638Y-68280000D02*
X86251638Y-69080000D01*
X99550334Y-96680000D02*
X96650334Y-93780000D01*
X90831638Y-100230000D02*
X95731638Y-95330000D01*
%TO.N,/right/ROW3*%
X146651638Y-65251522D02*
X146651638Y-66880000D01*
X99251635Y-58880003D02*
X97301638Y-60830000D01*
X29951638Y-111080000D02*
X30551638Y-111680000D01*
X87851638Y-111480000D02*
X79101638Y-102730000D01*
X91951638Y-111480000D02*
X87851638Y-111480000D01*
X97301638Y-60830000D02*
X97301638Y-68980000D01*
X79101638Y-98730000D02*
X80351638Y-97480000D01*
X129151638Y-55780000D02*
X137180116Y-55780000D01*
X79101638Y-102730000D02*
X79101638Y-102080000D01*
X44551638Y-105480000D02*
X44501638Y-105480000D01*
X40601638Y-108330000D02*
X42201638Y-108330000D01*
X137180116Y-55780000D02*
X146651638Y-65251522D01*
X96801638Y-68480000D02*
X97301638Y-68980000D01*
X96151638Y-68480000D02*
X96801638Y-68480000D01*
X44501638Y-105480000D02*
X43601638Y-104580000D01*
X79101638Y-102080000D02*
X79101638Y-98730000D01*
X30551638Y-111680000D02*
X37251638Y-111680000D01*
X37251638Y-111680000D02*
X40601638Y-108330000D01*
X99251635Y-57730000D02*
X99251635Y-58880003D01*
X29301638Y-111080000D02*
X29951638Y-111080000D01*
%TO.N,/right/ROW2*%
X63401638Y-84280000D02*
X62751638Y-84280000D01*
X62751638Y-84280000D02*
X61851638Y-83380000D01*
X88251638Y-123480000D02*
X88251638Y-124680000D01*
X98251638Y-102880000D02*
X98251638Y-101530000D01*
X97301638Y-100580000D02*
X98201638Y-101480000D01*
X60651638Y-83380000D02*
X56051638Y-87980000D01*
X97301638Y-95780000D02*
X97301638Y-100580000D01*
X98251638Y-101530000D02*
X98201638Y-101480000D01*
X61851638Y-83380000D02*
X60651638Y-83380000D01*
X96501638Y-96580000D02*
X97301638Y-95780000D01*
X95751638Y-96580000D02*
X96501638Y-96580000D01*
X88251638Y-124680000D02*
X86451638Y-126480000D01*
%TO.N,/right/ROW1*%
X59341638Y-61540000D02*
X59441638Y-61540000D01*
X62801638Y-58980000D02*
X62401638Y-58580000D01*
X42851638Y-80480000D02*
X43301638Y-80480000D01*
X31702500Y-81930000D02*
X33400776Y-81930000D01*
X107801638Y-102980000D02*
X100601638Y-95780000D01*
X31052500Y-82580000D02*
X31702500Y-81930000D01*
X43301638Y-79377226D02*
X45075251Y-77603613D01*
X100151638Y-90480000D02*
X99001638Y-90480000D01*
X100451638Y-94503194D02*
X100451638Y-95630000D01*
X16796638Y-89930000D02*
X24146638Y-82580000D01*
X43301638Y-80480000D02*
X43301638Y-79377226D01*
X59441638Y-61540000D02*
X62401638Y-58580000D01*
X111201638Y-102980000D02*
X107801638Y-102980000D01*
X40751638Y-82580000D02*
X42851638Y-80480000D01*
X24146638Y-82580000D02*
X31052500Y-82580000D01*
X34050776Y-82580000D02*
X40751638Y-82580000D01*
X72501638Y-60180000D02*
X69221194Y-60180000D01*
X100115776Y-94167332D02*
X100451638Y-94503194D01*
X33400776Y-81930000D02*
X34050776Y-82580000D01*
X100451638Y-95630000D02*
X100601638Y-95780000D01*
X69221194Y-60180000D02*
X68021194Y-58980000D01*
X68021194Y-58980000D02*
X62801638Y-58980000D01*
%TO.N,Net-(D44-DIN)*%
X92576638Y-54730000D02*
X92826638Y-54480000D01*
X92826638Y-54480000D02*
X97051638Y-54480000D01*
%TO.N,Net-(D70-DOUT)*%
X108631638Y-119614576D02*
X105077900Y-116060838D01*
X127902243Y-122192019D02*
X124494135Y-122192019D01*
X128054016Y-124304982D02*
X128548150Y-123810848D01*
X119664268Y-119679649D02*
X109071451Y-119679649D01*
X108631638Y-119660000D02*
X108631638Y-119614576D01*
X120334141Y-120349522D02*
X119664268Y-119679649D01*
X128548150Y-122837926D02*
X127902243Y-122192019D01*
X109071451Y-119679649D02*
X109051802Y-119660000D01*
X122651638Y-120349522D02*
X120334141Y-120349522D01*
X109051802Y-119660000D02*
X108631638Y-119660000D01*
X124494135Y-122192019D02*
X122651638Y-120349522D01*
X128548150Y-123810848D02*
X128548150Y-122837926D01*
%TO.N,Net-(D69-DOUT)*%
X101678955Y-129033662D02*
X103651357Y-129033662D01*
X96751638Y-128980000D02*
X101625293Y-128980000D01*
X80094783Y-120722283D02*
X72651638Y-113279138D01*
X28359355Y-104780000D02*
X20201638Y-104780000D01*
X126319203Y-130083671D02*
X125041534Y-130083671D01*
X86342450Y-120722283D02*
X80094783Y-120722283D01*
X94151638Y-126380000D02*
X96751638Y-128980000D01*
X101625293Y-128980000D02*
X101678955Y-129033662D01*
X11051638Y-80155000D02*
X10926638Y-80030000D01*
X11051638Y-81880000D02*
X11051638Y-80155000D01*
X41658644Y-106537843D02*
X41400801Y-106280000D01*
X72651638Y-113279138D02*
X72651638Y-110095686D01*
X11631638Y-107600000D02*
X11631638Y-106435176D01*
X92000167Y-126380000D02*
X86342450Y-120722283D01*
X11631638Y-106435176D02*
X12536814Y-105530000D01*
X20201638Y-104780000D02*
X19451638Y-105530000D01*
X94151638Y-126380000D02*
X92000167Y-126380000D01*
X69093795Y-106537843D02*
X41658644Y-106537843D01*
X122470106Y-127512243D02*
X105172776Y-127512243D01*
X125041534Y-130083671D02*
X122470106Y-127512243D01*
X105172776Y-127512243D02*
X103651357Y-129033662D01*
X126628054Y-129774820D02*
X126319203Y-130083671D01*
X19451638Y-105530000D02*
X12536814Y-105530000D01*
X29859355Y-106280000D02*
X28359355Y-104780000D01*
X72651638Y-110095686D02*
X69093795Y-106537843D01*
X41400801Y-106280000D02*
X29859355Y-106280000D01*
%TO.N,Net-(D72-DOUT)*%
X77426638Y-113830000D02*
X77426638Y-115555000D01*
X77426638Y-115555000D02*
X77651638Y-115780000D01*
X112026638Y-95780000D02*
X111376638Y-95130000D01*
X112851638Y-95780000D02*
X112026638Y-95780000D01*
%TO.N,Net-(D71-DOUT)*%
X93289695Y-112330000D02*
X82876638Y-112330000D01*
X99425376Y-116099162D02*
X97058857Y-116099162D01*
X97058857Y-116099162D02*
X93289695Y-112330000D01*
%TO.N,Net-(D21-A)*%
X75801638Y-61797500D02*
X73869138Y-63730000D01*
X75801638Y-60180000D02*
X75801638Y-61797500D01*
%TO.N,Net-(D6-A)*%
X99014230Y-120742592D02*
X99014230Y-125840736D01*
X91951638Y-114780000D02*
X93051638Y-114780000D01*
X93051638Y-114780000D02*
X99014230Y-120742592D01*
X99014230Y-125840736D02*
X99524257Y-126350763D01*
%TO.N,Net-(D2-A)*%
X114501638Y-103825000D02*
X114501638Y-102980000D01*
X111796638Y-106530000D02*
X114501638Y-103825000D01*
%TO.N,Net-(D32-A)*%
X58901638Y-94880000D02*
X57750776Y-94880000D01*
X57750776Y-94880000D02*
X54796638Y-97834138D01*
X54796638Y-97834138D02*
X54796638Y-104130000D01*
%TO.N,Net-(D30-A)*%
X59951638Y-81980000D02*
X58551638Y-83380000D01*
X60051638Y-81980000D02*
X59951638Y-81980000D01*
%TO.N,Net-(D68-DOUT)*%
X16376638Y-78530000D02*
X17876638Y-80030000D01*
X17876638Y-80030000D02*
X29926638Y-80030000D01*
%TO.N,Net-(D4-A)*%
X83151638Y-126480000D02*
X83151638Y-123875000D01*
X83151638Y-123875000D02*
X83296638Y-123730000D01*
%TO.N,Net-(D29-A)*%
X58651638Y-58130000D02*
X59101638Y-58580000D01*
X44051638Y-60445686D02*
X46367324Y-58130000D01*
X44051638Y-60880000D02*
X44051638Y-60445686D01*
X46367324Y-58130000D02*
X58651638Y-58130000D01*
X35796638Y-108930000D02*
X35951638Y-108930000D01*
%TO.N,Net-(D39-A)*%
X18846638Y-111080000D02*
X16796638Y-109030000D01*
X26001638Y-111080000D02*
X18846638Y-111080000D01*
%TO.N,Net-(D40-A)*%
X37551638Y-70430000D02*
X36196638Y-70430000D01*
X36196638Y-70430000D02*
X36079481Y-70547157D01*
X37901638Y-70780000D02*
X37551638Y-70430000D01*
%TO.N,Net-(D44-DOUT)*%
X75251638Y-52280000D02*
X73526638Y-52280000D01*
X73526638Y-52280000D02*
X73476638Y-52330000D01*
X79201638Y-56230000D02*
X78651638Y-56780000D01*
X87126638Y-56230000D02*
X79201638Y-56230000D01*
%TO.N,Net-(D78-DOUT)*%
X92301638Y-92730000D02*
X102001638Y-92730000D01*
X102976638Y-93705000D02*
X102001638Y-92730000D01*
X102976638Y-96305000D02*
X102976638Y-93705000D01*
X105926638Y-96630000D02*
X103301638Y-96630000D01*
X103301638Y-96630000D02*
X102976638Y-96305000D01*
%TO.N,Net-(D31-A)*%
X40151638Y-100980000D02*
X40301638Y-101130000D01*
X40301638Y-101130000D02*
X40301638Y-104580000D01*
%TO.N,Net-(D52-DOUT)*%
X108851638Y-53480000D02*
X111376638Y-56005000D01*
X111376638Y-56005000D02*
X111376638Y-57130000D01*
X11026638Y-62155000D02*
X10951638Y-62230000D01*
X11026638Y-60930000D02*
X11026638Y-62155000D01*
X93951638Y-52780000D02*
X98367324Y-52780000D01*
X93751638Y-52580000D02*
X93951638Y-52780000D01*
X98367324Y-52780000D02*
X99067324Y-53480000D01*
X99067324Y-53480000D02*
X108851638Y-53480000D01*
%TO.N,Net-(D50-DOUT)*%
X29926638Y-60930000D02*
X17976638Y-60930000D01*
X17976638Y-60930000D02*
X16476638Y-59430000D01*
%TO.N,Net-(D16-A)*%
X110698694Y-87530000D02*
X111796638Y-87530000D01*
X100901638Y-79280000D02*
X102448694Y-79280000D01*
X102448694Y-79280000D02*
X110698694Y-87530000D01*
%TO.N,Net-(D24-A)*%
X96896638Y-70130000D02*
X102551638Y-70130000D01*
X92896638Y-66130000D02*
X96896638Y-70130000D01*
%TO.N,Net-(D80-DOUT)*%
X67126638Y-92730000D02*
X67926638Y-91930000D01*
X54376638Y-92730000D02*
X67126638Y-92730000D01*
%TO.N,Net-(D79-DOUT)*%
X73376638Y-90430000D02*
X77176638Y-94230000D01*
X77176638Y-94230000D02*
X86851638Y-94230000D01*
%TO.N,Net-(D58-DOUT)*%
X111776638Y-74680000D02*
X113421638Y-73035000D01*
X107151638Y-60380000D02*
X105926638Y-59155000D01*
X109250776Y-60380000D02*
X107151638Y-60380000D01*
X105926638Y-59155000D02*
X105926638Y-58630000D01*
X113421638Y-73035000D02*
X113421638Y-64550862D01*
X111776638Y-76030000D02*
X111776638Y-74680000D01*
X113421638Y-64550862D02*
X109250776Y-60380000D01*
%TO.N,Net-(D13-A)*%
X92796638Y-87575000D02*
X95701638Y-90480000D01*
X92796638Y-85130000D02*
X92796638Y-87575000D01*
%TO.N,Net-(D37-A)*%
X36551638Y-75780000D02*
X40001638Y-79230000D01*
X21746638Y-75780000D02*
X36551638Y-75780000D01*
X40001638Y-79230000D02*
X40001638Y-80480000D01*
X16796638Y-70830000D02*
X21746638Y-75780000D01*
%TO.N,Net-(D14-A)*%
X92696638Y-104130000D02*
X92696638Y-103685000D01*
X92696638Y-103685000D02*
X94901638Y-101480000D01*
%TO.N,Net-(D22-A)*%
X66701638Y-84280000D02*
X69001638Y-84280000D01*
X69001638Y-84280000D02*
X70551638Y-82730000D01*
%TO.N,Net-(D59-DOUT)*%
X103150334Y-72680000D02*
X101386382Y-72680000D01*
X103451638Y-76739744D02*
X103451638Y-72981304D01*
X106326638Y-77530000D02*
X104241894Y-77530000D01*
X101386382Y-72680000D02*
X100336382Y-73730000D01*
X104241894Y-77530000D02*
X103451638Y-76739744D01*
X100336382Y-73730000D02*
X92376638Y-73730000D01*
X103451638Y-72981304D02*
X103150334Y-72680000D01*
%TO.N,Net-(D23-A)*%
X73796638Y-101830000D02*
X75551638Y-101830000D01*
X75551638Y-101830000D02*
X75801638Y-102080000D01*
%TO.N,Net-(D61-DOUT)*%
X54376638Y-73730000D02*
X67026638Y-73730000D01*
X67026638Y-73730000D02*
X67926638Y-72830000D01*
%TO.N,Net-(D60-DOUT)*%
X86926638Y-75230000D02*
X77276638Y-75230000D01*
X77276638Y-75230000D02*
X73376638Y-71330000D01*
%TO.N,Net-(D15-A)*%
X102543921Y-68080000D02*
X102993921Y-68530000D01*
X102543921Y-68080000D02*
X101501638Y-68080000D01*
X101501638Y-68080000D02*
X100601638Y-68980000D01*
X100701638Y-69080000D02*
X100601638Y-68980000D01*
X102993921Y-68530000D02*
X111796638Y-68530000D01*
%TO.N,Net-(D42-A)*%
X38451638Y-97180000D02*
X38851638Y-97580000D01*
X38851638Y-97580000D02*
X40351638Y-97580000D01*
%TO.N,Net-(D62-DOUT)*%
X46600334Y-75230000D02*
X40450334Y-81380000D01*
X48926638Y-75230000D02*
X46600334Y-75230000D01*
X40450334Y-81380000D02*
X38226638Y-81380000D01*
X38226638Y-81380000D02*
X35376638Y-78530000D01*
%TO.N,Net-(D46-DOUT)*%
X66351638Y-55505000D02*
X68026638Y-53830000D01*
X54376638Y-54730000D02*
X55151638Y-55505000D01*
X55151638Y-55505000D02*
X66351638Y-55505000D01*
%TO.N,Net-(D49-DOUT)*%
X35376638Y-59430000D02*
X44501638Y-59430000D01*
X47701638Y-56230000D02*
X48926638Y-56230000D01*
X44501638Y-59430000D02*
X47701638Y-56230000D01*
%TO.N,Net-(D81-DOUT)*%
X48926638Y-94230000D02*
X38576638Y-94230000D01*
X38576638Y-94230000D02*
X35376638Y-97430000D01*
%TO.N,Net-(D82-DOUT)*%
X29926638Y-98930000D02*
X17676638Y-98930000D01*
X17676638Y-98930000D02*
X16376638Y-97630000D01*
%TD*%
M02*
