M48
; DRILL file KiCad 10.0.0 date 2026-05-18T21:46:11
; FORMAT={-:-/ absolute / metric / decimal}
; #@! TF.CreationDate,2026-05-18T21:46:11-07:00
; #@! TF.GenerationSoftware,Kicad,Pcbnew,10.0.0
; #@! TF.FileFunction,NonPlated,1,2,NPTH
FMAT,2
METRIC
; #@! TA.AperFunction,NonPlated,NPTH,ComponentDrill
T1C0.500
; #@! TA.AperFunction,NonPlated,NPTH,ComponentDrill
T2C1.700
; #@! TA.AperFunction,NonPlated,NPTH,ComponentDrill
T3C2.100
; #@! TA.AperFunction,NonPlated,NPTH,ComponentDrill
T4C3.400
%
G90
G05
T1
X153.554Y-75.94
X153.554Y-76.69
X153.554Y-77.452
X153.554Y-78.202
X153.554Y-78.976
X153.562Y-65.984
X153.562Y-66.758
X153.562Y-67.508
X153.562Y-68.258
X153.562Y-69.02
X153.572Y-56.076
X153.572Y-56.85
X153.572Y-57.6
X153.572Y-58.35
X153.572Y-59.112
X156.554Y-75.94
X156.554Y-76.702
X156.554Y-77.452
X156.554Y-78.202
X156.554Y-78.976
X156.562Y-65.984
X156.562Y-66.758
X156.562Y-67.508
X156.562Y-68.27
X156.562Y-69.02
X156.572Y-56.076
X156.572Y-56.85
X156.572Y-57.6
X156.572Y-58.362
X156.572Y-59.112
T2
X8.052Y-64.88
X8.052Y-83.98
X8.052Y-103.08
X19.052Y-64.88
X19.052Y-83.98
X19.052Y-103.08
X27.052Y-64.88
X27.052Y-83.98
X27.052Y-102.98
X38.052Y-64.88
X38.052Y-83.98
X38.052Y-102.98
X46.052Y-60.18
X46.052Y-79.18
X46.052Y-98.18
X57.052Y-98.18
X57.052Y-60.18
X57.052Y-79.18
X65.052Y-76.78
X65.052Y-95.88
X65.124Y-57.78
X74.552Y-117.78
X76.052Y-76.78
X76.052Y-95.88
X76.124Y-57.78
X83.952Y-98.18
X84.052Y-79.18
X84.152Y-60.18
X85.552Y-117.78
X94.952Y-98.18
X95.052Y-79.18
X95.152Y-60.18
X95.752Y-119.18
X103.052Y-62.58
X103.052Y-81.58
X103.052Y-100.58
X106.377Y-122.027
X114.052Y-62.58
X114.052Y-81.58
X114.052Y-100.58
X120.566Y-129.368
X126.066Y-119.842
X184.297Y-119.712
X189.797Y-129.238
X196.312Y-62.45
X196.312Y-81.45
X196.312Y-100.45
X203.986Y-121.897
X207.312Y-62.45
X207.312Y-81.45
X207.312Y-100.45
X214.612Y-119.05
X215.212Y-60.05
X215.312Y-79.05
X215.412Y-98.05
X224.812Y-117.65
X226.212Y-60.05
X226.312Y-79.05
X226.412Y-98.05
X234.239Y-57.65
X234.312Y-76.65
X234.312Y-95.75
X235.812Y-117.65
X245.239Y-57.65
X245.312Y-76.65
X245.312Y-95.75
X253.312Y-60.05
X253.312Y-79.05
X253.312Y-98.05
X264.312Y-60.05
X264.312Y-79.05
X264.312Y-98.05
X272.312Y-64.75
X272.312Y-83.85
X272.312Y-102.85
X283.312Y-64.75
X283.312Y-83.85
X283.312Y-102.85
X291.312Y-64.75
X291.312Y-83.85
X291.312Y-102.95
X302.312Y-64.75
X302.312Y-83.85
X302.312Y-102.95
T3
X22.952Y-74.28
X23.002Y-93.46
X64.232Y-110.9
X80.052Y-69.68
X118.89Y-110.56
X230.312Y-69.55
X248.457Y-110.34
X287.267Y-93.36
X287.412Y-74.15
T4
X13.552Y-64.88
X13.552Y-83.98
X13.552Y-103.08
X32.552Y-64.88
X32.552Y-83.98
X32.552Y-102.98
X51.552Y-60.18
X51.552Y-79.18
X51.552Y-98.18
X70.552Y-76.78
X70.552Y-95.88
X70.624Y-57.78
X80.052Y-117.78
X89.452Y-98.18
X89.552Y-79.18
X89.652Y-60.18
X101.064Y-120.604
X108.552Y-62.58
X108.552Y-81.58
X108.552Y-100.58
X123.316Y-124.605
X187.047Y-124.475
X201.812Y-62.45
X201.812Y-81.45
X201.812Y-100.45
X209.299Y-120.474
X220.712Y-60.05
X220.812Y-79.05
X220.912Y-98.05
X230.312Y-117.65
X239.739Y-57.65
X239.812Y-76.65
X239.812Y-95.75
X258.812Y-60.05
X258.812Y-79.05
X258.812Y-98.05
X277.812Y-64.75
X277.812Y-83.85
X277.812Y-102.85
X296.812Y-64.75
X296.812Y-83.85
X296.812Y-102.95
M30
